<svg width="55" height="56" viewBox="0 0 55 56" fill="none" xmlns="http://www.w3.org/2000/svg">
<g id="account_circle">
<mask id="mask0_5682_4829" style="mask-type:alpha" maskUnits="userSpaceOnUse" x="0" y="0" width="55" height="56">
<rect id="Bounding box" y="0.908203" width="55" height="55" fill="#D9D9D9"/>
</mask>
<g mask="url(#mask0_5682_4829)">
<path id="account_circle_2" d="M13.4069 40.0954C15.3548 38.6058 17.5319 37.4313 19.9382 36.5719C22.3444 35.7126 24.8652 35.2829 27.5007 35.2829C30.1361 35.2829 32.6569 35.7126 35.0632 36.5719C37.4694 37.4313 39.6465 38.6058 41.5944 40.0954C42.9312 38.5294 43.972 36.7534 44.7168 34.7673C45.4616 32.7811 45.834 30.6614 45.834 28.4079C45.834 23.328 44.0484 19.0025 40.4772 15.4313C36.906 11.8601 32.5805 10.0745 27.5007 10.0745C22.4208 10.0745 18.0953 11.8601 14.5241 15.4313C10.9529 19.0025 9.16732 23.328 9.16732 28.4079C9.16732 30.6614 9.53971 32.7811 10.2845 34.7673C11.0293 36.7534 12.0701 38.5294 13.4069 40.0954ZM27.5007 30.6995C25.2472 30.6995 23.347 29.9261 21.8001 28.3792C20.2533 26.8324 19.4798 24.9322 19.4798 22.6787C19.4798 20.4252 20.2533 18.5251 21.8001 16.9782C23.347 15.4313 25.2472 14.6579 27.5007 14.6579C29.7541 14.6579 31.6543 15.4313 33.2012 16.9782C34.748 18.5251 35.5215 20.4252 35.5215 22.6787C35.5215 24.9322 34.748 26.8324 33.2012 28.3792C31.6543 29.9261 29.7541 30.6995 27.5007 30.6995ZM27.5007 51.3245C24.3305 51.3245 21.3513 50.723 18.5632 49.5199C15.775 48.3167 13.3496 46.6839 11.2871 44.6214C9.22461 42.5589 7.5918 40.1336 6.38867 37.3454C5.18555 34.5572 4.58398 31.578 4.58398 28.4079C4.58398 25.2377 5.18555 22.2586 6.38867 19.4704C7.5918 16.6822 9.22461 14.2568 11.2871 12.1943C13.3496 10.1318 15.775 8.49902 18.5632 7.2959C21.3513 6.09277 24.3305 5.49121 27.5007 5.49121C30.6708 5.49121 33.65 6.09277 36.4382 7.2959C39.2263 8.49902 41.6517 10.1318 43.7142 12.1943C45.7767 14.2568 47.4095 16.6822 48.6126 19.4704C49.8158 22.2586 50.4173 25.2377 50.4173 28.4079C50.4173 31.578 49.8158 34.5572 48.6126 37.3454C47.4095 40.1336 45.7767 42.5589 43.7142 44.6214C41.6517 46.6839 39.2263 48.3167 36.4382 49.5199C33.65 50.723 30.6708 51.3245 27.5007 51.3245ZM27.5007 46.7412C29.525 46.7412 31.4347 46.4452 33.2298 45.8532C35.025 45.2612 36.6673 44.4114 38.1569 43.3037C36.6673 42.1961 35.025 41.3462 33.2298 40.7542C31.4347 40.1622 29.525 39.8662 27.5007 39.8662C25.4763 39.8662 23.5666 40.1622 21.7715 40.7542C19.9763 41.3462 18.334 42.1961 16.8444 43.3037C18.334 44.4114 19.9763 45.2612 21.7715 45.8532C23.5666 46.4452 25.4763 46.7412 27.5007 46.7412ZM27.5007 26.1162C28.4937 26.1162 29.3149 25.7916 29.9642 25.1423C30.6135 24.4929 30.9382 23.6718 30.9382 22.6787C30.9382 21.6857 30.6135 20.8645 29.9642 20.2152C29.3149 19.5659 28.4937 19.2412 27.5007 19.2412C26.5076 19.2412 25.6864 19.5659 25.0371 20.2152C24.3878 20.8645 24.0632 21.6857 24.0632 22.6787C24.0632 23.6718 24.3878 24.4929 25.0371 25.1423C25.6864 25.7916 26.5076 26.1162 27.5007 26.1162Z" fill="white"/>
</g>
</g>
</svg>
