<svg width="32" height="32" viewBox="0 0 32 32" fill="none" xmlns="http://www.w3.org/2000/svg">
<g id="ArrowSquareOut" clip-path="url(#clip0_2574_1302)">
<path id="Vector" opacity="0.2" d="M22 9H6C5.44772 9 5 9.44772 5 10V26C5 26.5523 5.44772 27 6 27H22C22.5523 27 23 26.5523 23 26V10C23 9.44772 22.5523 9 22 9Z" fill="#0F627D"/>
<path id="Vector_2" d="M17 15L27 5" stroke="#0F627D" stroke-width="2" stroke-linecap="round" stroke-linejoin="round"/>
<path id="Vector_3" d="M27 13L26.9988 5.00125L19 5" stroke="#0F627D" stroke-width="2" stroke-linecap="round" stroke-linejoin="round"/>
<path id="Vector_4" d="M23 17V26C23 26.2652 22.8946 26.5196 22.7071 26.7071C22.5196 26.8946 22.2652 27 22 27H6C5.73478 27 5.48043 26.8946 5.29289 26.7071C5.10536 26.5196 5 26.2652 5 26V10C5 9.73478 5.10536 9.48043 5.29289 9.29289C5.48043 9.10536 5.73478 9 6 9H15" stroke="#0F627D" stroke-width="2" stroke-linecap="round" stroke-linejoin="round"/>
</g>
<defs>
<clipPath id="clip0_2574_1302">
<rect width="32" height="32" fill="white"/>
</clipPath>
</defs>
</svg>
