<svg width="24" height="24" viewBox="0 0 24 24" fill="none" xmlns="http://www.w3.org/2000/svg">
<g id="Bicycle" clip-path="url(#clip0_531_8714)">
<path id="Vector" opacity="0.2" d="M19.5 18.75C21.5711 18.75 23.25 17.0711 23.25 15C23.25 12.9289 21.5711 11.25 19.5 11.25C17.4289 11.25 15.75 12.9289 15.75 15C15.75 17.0711 17.4289 18.75 19.5 18.75Z" fill="#261C02"/>
<path id="Vector_2" opacity="0.2" d="M4.5 18.75C6.57107 18.75 8.25 17.0711 8.25 15C8.25 12.9289 6.57107 11.25 4.5 11.25C2.42893 11.25 0.75 12.9289 0.75 15C0.75 17.0711 2.42893 18.75 4.5 18.75Z" fill="#261C02"/>
<path id="Vector_3" d="M19.5 7.5C19.5 7.10218 19.342 6.72064 19.0607 6.43934C18.7794 6.15804 18.3978 6 18 6H14.25L19.5 15" stroke="#261C02" stroke-linecap="round" stroke-linejoin="round"/>
<path id="Vector_4" d="M19.5 18.75C21.5711 18.75 23.25 17.0711 23.25 15C23.25 12.9289 21.5711 11.25 19.5 11.25C17.4289 11.25 15.75 12.9289 15.75 15C15.75 17.0711 17.4289 18.75 19.5 18.75Z" stroke="#261C02" stroke-linecap="round" stroke-linejoin="round"/>
<path id="Vector_5" d="M4.5 18.75C6.57107 18.75 8.25 17.0711 8.25 15C8.25 12.9289 6.57107 11.25 4.5 11.25C2.42893 11.25 0.75 12.9289 0.75 15C0.75 17.0711 2.42893 18.75 4.5 18.75Z" stroke="#261C02" stroke-linecap="round" stroke-linejoin="round"/>
<path id="Vector_6" d="M4.5 6H7.125L12.375 15" stroke="#261C02" stroke-linecap="round" stroke-linejoin="round"/>
<path id="Vector_7" d="M16.0003 9H8.87531L4.5 15" stroke="#261C02" stroke-linecap="round" stroke-linejoin="round"/>
</g>
<defs>
<clipPath id="clip0_531_8714">
<rect width="24" height="24" fill="white"/>
</clipPath>
</defs>
</svg>
