<svg width="55" height="56" viewBox="0 0 55 56" fill="none" xmlns="http://www.w3.org/2000/svg">
<g id="book_2">
<mask id="mask0_5682_4821" style="mask-type:alpha" maskUnits="userSpaceOnUse" x="0" y="0" width="55" height="56">
<rect id="Bounding box" y="0.908203" width="55" height="55" fill="#D9D9D9"/>
</mask>
<g mask="url(#mask0_5682_4821)">
<path id="book_2_2" d="M17.1868 51.3245C14.9716 51.3245 13.0809 50.5416 11.515 48.9756C9.949 47.4096 9.16602 45.519 9.16602 43.3037V13.512C9.16602 11.2968 9.949 9.40614 11.515 7.84017C13.0809 6.2742 14.9716 5.49121 17.1868 5.49121H45.8327V39.8662C44.8778 39.8662 44.0662 40.2004 43.3978 40.8688C42.7294 41.5372 42.3952 42.3489 42.3952 43.3037C42.3952 44.2586 42.7294 45.0702 43.3978 45.7386C44.0662 46.407 44.8778 46.7412 45.8327 46.7412V51.3245H17.1868ZM13.7493 36.0277C14.2841 35.7603 14.8379 35.5693 15.4108 35.4548C15.9837 35.3402 16.5757 35.2829 17.1868 35.2829H18.3327V10.0745H17.1868C16.232 10.0745 15.4204 10.4087 14.752 11.0771C14.0836 11.7456 13.7493 12.5572 13.7493 13.512V36.0277ZM22.916 35.2829H41.2494V10.0745H22.916V35.2829ZM17.1868 46.7412H38.5566C38.3275 46.2065 38.1461 45.6622 38.0124 45.1084C37.8787 44.5546 37.8118 43.953 37.8118 43.3037C37.8118 42.6926 37.8691 42.1006 37.9837 41.5277C38.0983 40.9548 38.2893 40.4009 38.5566 39.8662H17.1868C16.1938 39.8662 15.3726 40.2004 14.7233 40.8688C14.074 41.5372 13.7493 42.3489 13.7493 43.3037C13.7493 44.2968 14.074 45.118 14.7233 45.7673C15.3726 46.4166 16.1938 46.7412 17.1868 46.7412Z" fill="white"/>
</g>
</g>
</svg>
