<svg width="56" height="56" viewBox="0 0 56 56" fill="none" xmlns="http://www.w3.org/2000/svg">
<g id="CalendarDots" clip-path="url(#clip0_2616_718)">
<path id="Vector" opacity="0.2" d="M8.75 19.25H47.25V10.5C47.25 10.0359 47.0656 9.59075 46.7374 9.26256C46.4092 8.93437 45.9641 8.75 45.5 8.75H10.5C10.0359 8.75 9.59075 8.93437 9.26256 9.26256C8.93437 9.59075 8.75 10.0359 8.75 10.5V19.25Z" fill="#4B6E9A"/>
<path id="Vector_2" d="M45.5 8.75H10.5C9.5335 8.75 8.75 9.5335 8.75 10.5V45.5C8.75 46.4665 9.5335 47.25 10.5 47.25H45.5C46.4665 47.25 47.25 46.4665 47.25 45.5V10.5C47.25 9.5335 46.4665 8.75 45.5 8.75Z" stroke="#4B6E9A" stroke-width="2" stroke-linecap="round" stroke-linejoin="round"/>
<path id="Vector_3" d="M38.5 5.25V12.25" stroke="#4B6E9A" stroke-width="2" stroke-linecap="round" stroke-linejoin="round"/>
<path id="Vector_4" d="M17.5 5.25V12.25" stroke="#4B6E9A" stroke-width="2" stroke-linecap="round" stroke-linejoin="round"/>
<path id="Vector_5" d="M8.75 19.25H47.25" stroke="#4B6E9A" stroke-width="2" stroke-linecap="round" stroke-linejoin="round"/>
<path id="Vector_6" d="M28 31.5C29.4497 31.5 30.625 30.3247 30.625 28.875C30.625 27.4253 29.4497 26.25 28 26.25C26.5503 26.25 25.375 27.4253 25.375 28.875C25.375 30.3247 26.5503 31.5 28 31.5Z" fill="#4B6E9A"/>
<path id="Vector_7" d="M37.625 31.5C39.0747 31.5 40.25 30.3247 40.25 28.875C40.25 27.4253 39.0747 26.25 37.625 26.25C36.1753 26.25 35 27.4253 35 28.875C35 30.3247 36.1753 31.5 37.625 31.5Z" fill="#4B6E9A"/>
<path id="Vector_8" d="M18.375 40.25C19.8247 40.25 21 39.0747 21 37.625C21 36.1753 19.8247 35 18.375 35C16.9253 35 15.75 36.1753 15.75 37.625C15.75 39.0747 16.9253 40.25 18.375 40.25Z" fill="#4B6E9A"/>
<path id="Vector_9" d="M28 40.25C29.4497 40.25 30.625 39.0747 30.625 37.625C30.625 36.1753 29.4497 35 28 35C26.5503 35 25.375 36.1753 25.375 37.625C25.375 39.0747 26.5503 40.25 28 40.25Z" fill="#4B6E9A"/>
<path id="Vector_10" d="M37.625 40.25C39.0747 40.25 40.25 39.0747 40.25 37.625C40.25 36.1753 39.0747 35 37.625 35C36.1753 35 35 36.1753 35 37.625C35 39.0747 36.1753 40.25 37.625 40.25Z" fill="#4B6E9A"/>
</g>
<defs>
<clipPath id="clip0_2616_718">
<rect width="56" height="56" fill="white"/>
</clipPath>
</defs>
</svg>
