<svg width="20" height="21" viewBox="0 0 20 21" fill="none" xmlns="http://www.w3.org/2000/svg">
<g id="call">
<mask id="mask0_7674_559" style="mask-type:alpha" maskUnits="userSpaceOnUse" x="0" y="0" width="20" height="21">
<rect id="Bounding box" y="0.907715" width="20" height="20" fill="#003636"/>
</mask>
<g mask="url(#mask0_7674_559)">
<path id="call_2" d="M16.625 18.4077C14.8889 18.4077 13.1736 18.0292 11.4792 17.2723C9.78472 16.5154 8.24306 15.4424 6.85417 14.0535C5.46528 12.6647 4.39236 11.123 3.63542 9.42855C2.87847 7.7341 2.5 6.01883 2.5 4.28271C2.5 4.03271 2.58333 3.82438 2.75 3.65771C2.91667 3.49105 3.125 3.40771 3.375 3.40771H6.75C6.94444 3.40771 7.11806 3.47369 7.27083 3.60563C7.42361 3.73758 7.51389 3.89383 7.54167 4.07438L8.08333 6.99105C8.11111 7.21327 8.10417 7.40077 8.0625 7.55355C8.02083 7.70633 7.94444 7.83827 7.83333 7.94938L5.8125 9.99105C6.09028 10.5049 6.42014 11.0015 6.80208 11.4806C7.18403 11.9598 7.60417 12.4216 8.0625 12.866C8.49306 13.2966 8.94444 13.6959 9.41667 14.064C9.88889 14.432 10.3889 14.7688 10.9167 15.0744L12.875 13.116C13 12.991 13.1632 12.8973 13.3646 12.8348C13.566 12.7723 13.7639 12.7549 13.9583 12.7827L16.8333 13.366C17.0278 13.4216 17.1875 13.5223 17.3125 13.6681C17.4375 13.814 17.5 13.9772 17.5 14.1577V17.5327C17.5 17.7827 17.4167 17.991 17.25 18.1577C17.0833 18.3244 16.875 18.4077 16.625 18.4077ZM5.02083 8.40771L6.39583 7.03271L6.04167 5.07438H4.1875C4.25694 5.64383 4.35417 6.20633 4.47917 6.76188C4.60417 7.31744 4.78472 7.86605 5.02083 8.40771ZM12.4792 15.866C13.0208 16.1022 13.5729 16.2897 14.1354 16.4285C14.6979 16.5674 15.2639 16.6577 15.8333 16.6994V14.866L13.875 14.4702L12.4792 15.866Z" fill="#003636"/>
</g>
</g>
</svg>
