<svg width="57" height="56" viewBox="0 0 57 56" fill="none" xmlns="http://www.w3.org/2000/svg">
<g id="ClipboardText" clip-path="url(#clip0_531_8437)">
<path id="Vector" opacity="0.2" d="M35.5999 8.75C36.7382 10.2633 37.3525 12.1063 37.3499 14V15.75H19.8499V14C19.8472 12.1063 20.4615 10.2633 21.5999 8.75H12.8499C12.3857 8.75 11.9406 8.93437 11.6124 9.26256C11.2842 9.59075 11.0999 10.0359 11.0999 10.5V47.25C11.0999 47.7141 11.2842 48.1592 11.6124 48.4874C11.9406 48.8156 12.3857 49 12.8499 49H44.3499C44.814 49 45.2591 48.8156 45.5873 48.4874C45.9155 48.1592 46.0999 47.7141 46.0999 47.25V10.5C46.0999 10.0359 45.9155 9.59075 45.5873 9.26256C45.2591 8.93437 44.814 8.75 44.3499 8.75H35.5999Z" fill="#0F627D"/>
<path id="Vector_2" d="M21.5999 33.25H35.5999" stroke="#0F627D" stroke-width="2" stroke-linecap="round" stroke-linejoin="round"/>
<path id="Vector_3" d="M21.5999 26.25H35.5999" stroke="#0F627D" stroke-width="2" stroke-linecap="round" stroke-linejoin="round"/>
<path id="Vector_4" d="M35.5999 8.75H44.3499C44.814 8.75 45.2591 8.93437 45.5873 9.26256C45.9155 9.59075 46.0999 10.0359 46.0999 10.5V47.25C46.0999 47.7141 45.9155 48.1592 45.5873 48.4874C45.2591 48.8156 44.814 49 44.3499 49H12.8499C12.3857 49 11.9406 48.8156 11.6124 48.4874C11.2842 48.1592 11.0999 47.7141 11.0999 47.25V10.5C11.0999 10.0359 11.2842 9.59075 11.6124 9.26256C11.9406 8.93437 12.3857 8.75 12.8499 8.75H21.5999" stroke="#0F627D" stroke-width="2" stroke-linecap="round" stroke-linejoin="round"/>
<path id="Vector_5" d="M19.8499 15.75V14C19.8499 11.6794 20.7717 9.45376 22.4127 7.81282C24.0536 6.17187 26.2792 5.25 28.5999 5.25C30.9205 5.25 33.1461 6.17187 34.787 7.81282C36.428 9.45376 37.3499 11.6794 37.3499 14V15.75H19.8499Z" stroke="#0F627D" stroke-width="2" stroke-linecap="round" stroke-linejoin="round"/>
</g>
<defs>
<clipPath id="clip0_531_8437">
<rect width="56" height="56" fill="white" transform="translate(0.599854)"/>
</clipPath>
</defs>
</svg>
