<svg width="55" height="56" viewBox="0 0 55 56" fill="none" xmlns="http://www.w3.org/2000/svg">
<g id="diversity_1">
<mask id="mask0_5682_4837" style="mask-type:alpha" maskUnits="userSpaceOnUse" x="0" y="0" width="55" height="56">
<rect id="Bounding box" y="0.908203" width="55" height="55" fill="#D9D9D9"/>
</mask>
<g mask="url(#mask0_5682_4837)">
<path id="diversity_1_2" d="M2.17708 31.3874C1.48958 30.0124 0.954861 28.6183 0.572917 27.2051C0.190972 25.7919 0 24.3596 0 22.9082C0 18.6304 1.45139 15.0401 4.35417 12.1374C7.25694 9.23459 10.8472 7.7832 15.125 7.7832C17.5312 7.7832 19.8229 8.28928 22 9.30143C24.1771 10.3136 26.0104 11.7172 27.5 13.5124C28.9896 11.7172 30.8229 10.3136 33 9.30143C35.1771 8.28928 37.4688 7.7832 39.875 7.7832C44.1528 7.7832 47.7431 9.23459 50.6458 12.1374C53.5486 15.0401 55 18.6304 55 22.9082C55 24.3596 54.809 25.7919 54.4271 27.2051C54.0451 28.6183 53.5104 30.0124 52.8229 31.3874C52.4028 30.6617 51.9062 30.0124 51.3333 29.4395C50.7604 28.8665 50.092 28.4082 49.3281 28.0645C49.6719 27.186 49.9392 26.3266 50.1302 25.4863C50.3212 24.646 50.4167 23.7867 50.4167 22.9082C50.4167 19.929 49.4045 17.4273 47.3802 15.403C45.3559 13.3787 42.8542 12.3665 39.875 12.3665C36.7812 12.3665 34.4036 13.2164 32.7422 14.916C31.0807 16.6157 29.3333 18.5158 27.5 20.6165C25.6667 18.4776 23.9193 16.5679 22.2578 14.8874C20.5964 13.2068 18.2188 12.3665 15.125 12.3665C12.1458 12.3665 9.6441 13.3787 7.61979 15.403C5.59549 17.4273 4.58333 19.929 4.58333 22.9082C4.58333 23.7867 4.67882 24.646 4.86979 25.4863C5.06076 26.3266 5.32813 27.186 5.67188 28.0645C4.90799 28.4082 4.23958 28.8665 3.66667 29.4395C3.09375 30.0124 2.59722 30.6617 2.17708 31.3874ZM0 51.3249V47.7155C0 46.0349 0.849827 44.6886 2.54948 43.6764C4.24913 42.6643 6.45486 42.1582 9.16667 42.1582C9.66319 42.1582 10.1406 42.1677 10.599 42.1868C11.0573 42.2059 11.4965 42.2537 11.9167 42.3301C11.3819 43.094 10.9809 43.9151 10.7135 44.7936C10.4462 45.6721 10.3125 46.6079 10.3125 47.6009V51.3249H0ZM13.75 51.3249V47.6009C13.75 45.1183 15.02 43.1131 17.5599 41.5853C20.0998 40.0575 23.4132 39.2936 27.5 39.2936C31.625 39.2936 34.9479 40.0575 37.4688 41.5853C39.9896 43.1131 41.25 45.1183 41.25 47.6009V51.3249H13.75ZM44.6875 51.3249V47.6009C44.6875 46.6079 44.5634 45.6721 44.3151 44.7936C44.0668 43.9151 43.6944 43.094 43.1979 42.3301C43.6181 42.2537 44.0477 42.2059 44.487 42.1868C44.9262 42.1677 45.375 42.1582 45.8333 42.1582C48.5833 42.1582 50.7986 42.6643 52.4792 43.6764C54.1597 44.6886 55 46.0349 55 47.7155V51.3249H44.6875ZM27.5 43.8769C25.3229 43.8769 23.375 44.1634 21.6562 44.7363C19.9375 45.3092 18.9253 45.9776 18.6198 46.7415H36.4375C36.0938 45.9776 35.072 45.3092 33.3724 44.7363C31.6727 44.1634 29.7153 43.8769 27.5 43.8769ZM9.16667 39.8665C7.90625 39.8665 6.82726 39.4178 5.92969 38.5202C5.03212 37.6226 4.58333 36.5436 4.58333 35.2832C4.58333 33.9846 5.03212 32.896 5.92969 32.0176C6.82726 31.1391 7.90625 30.6999 9.16667 30.6999C10.4653 30.6999 11.5538 31.1391 12.4323 32.0176C13.3108 32.896 13.75 33.9846 13.75 35.2832C13.75 36.5436 13.3108 37.6226 12.4323 38.5202C11.5538 39.4178 10.4653 39.8665 9.16667 39.8665ZM45.8333 39.8665C44.5729 39.8665 43.4939 39.4178 42.5964 38.5202C41.6988 37.6226 41.25 36.5436 41.25 35.2832C41.25 33.9846 41.6988 32.896 42.5964 32.0176C43.4939 31.1391 44.5729 30.6999 45.8333 30.6999C47.1319 30.6999 48.2205 31.1391 49.099 32.0176C49.9774 32.896 50.4167 33.9846 50.4167 35.2832C50.4167 36.5436 49.9774 37.6226 49.099 38.5202C48.2205 39.4178 47.1319 39.8665 45.8333 39.8665ZM27.5 37.5749C25.5903 37.5749 23.967 36.9065 22.6302 35.5697C21.2934 34.2329 20.625 32.6096 20.625 30.6999C20.625 28.752 21.2934 27.1191 22.6302 25.8014C23.967 24.4837 25.5903 23.8249 27.5 23.8249C29.4479 23.8249 31.0807 24.4837 32.3984 25.8014C33.7161 27.1191 34.375 28.752 34.375 30.6999C34.375 32.6096 33.7161 34.2329 32.3984 35.5697C31.0807 36.9065 29.4479 37.5749 27.5 37.5749ZM27.5 28.4082C26.8507 28.4082 26.3064 28.6278 25.8672 29.0671C25.428 29.5063 25.2083 30.0506 25.2083 30.6999C25.2083 31.3492 25.428 31.8934 25.8672 32.3327C26.3064 32.7719 26.8507 32.9915 27.5 32.9915C28.1493 32.9915 28.6936 32.7719 29.1328 32.3327C29.5721 31.8934 29.7917 31.3492 29.7917 30.6999C29.7917 30.0506 29.5721 29.5063 29.1328 29.0671C28.6936 28.6278 28.1493 28.4082 27.5 28.4082Z" fill="white"/>
</g>
</g>
</svg>
