<svg width="24" height="24" viewBox="0 0 24 24" fill="none" xmlns="http://www.w3.org/2000/svg">
<g id="DribbbleLogo" clip-path="url(#clip0_531_8746)">
<path id="Vector" opacity="0.2" d="M12 21C16.9706 21 21 16.9706 21 12C21 7.02944 16.9706 3 12 3C7.02944 3 3 7.02944 3 12C3 16.9706 7.02944 21 12 21Z" fill="#261C02"/>
<path id="Vector_2" d="M12 21C16.9706 21 21 16.9706 21 12C21 7.02944 16.9706 3 12 3C7.02944 3 3 7.02944 3 12C3 16.9706 7.02944 21 12 21Z" stroke="#261C02" stroke-linecap="round" stroke-linejoin="round"/>
<path id="Vector_3" d="M6.65625 19.2441C7.99157 17.0323 9.87573 15.2032 12.126 13.934C14.3764 12.6648 16.9164 11.9986 19.5 12C20.0053 12 20.5059 12.0253 21 12.0741" stroke="#261C02" stroke-linecap="round" stroke-linejoin="round"/>
<path id="Vector_4" d="M17.6253 4.97717C16.2202 6.70423 14.4476 8.09614 12.4366 9.05154C10.4256 10.0069 8.22678 10.5018 6.00035 10.5C5.05158 10.5002 4.1049 10.4111 3.17285 10.2337" stroke="#261C02" stroke-linecap="round" stroke-linejoin="round"/>
<path id="Vector_5" d="M8.05566 3.90845C10.3113 5.23162 12.1816 7.12183 13.4809 9.39137C14.7801 11.6609 15.4631 14.2308 15.4619 16.8459C15.4627 18.0714 15.3138 19.2923 15.0185 20.4816" stroke="#261C02" stroke-linecap="round" stroke-linejoin="round"/>
</g>
<defs>
<clipPath id="clip0_531_8746">
<rect width="24" height="24" fill="white"/>
</clipPath>
</defs>
</svg>
