<svg width="24" height="25" viewBox="0 0 24 25" fill="none" xmlns="http://www.w3.org/2000/svg">
<g id="Vector">
<path d="M5 21.9082C4.45 21.9082 3.97917 21.7124 3.5875 21.3207C3.19583 20.929 3 20.4582 3 19.9082V5.9082C3 5.3582 3.19583 4.88737 3.5875 4.4957C3.97917 4.10404 4.45 3.9082 5 3.9082H12V5.9082H5V19.9082H19V12.9082H21V19.9082C21 20.4582 20.8042 20.929 20.4125 21.3207C20.0208 21.7124 19.55 21.9082 19 21.9082H5ZM9.7 16.6082L8.3 15.2082L17.6 5.9082H14V3.9082H21V10.9082H19V7.3082L9.7 16.6082Z" fill="#003636"/>
</g>
</svg>
