<svg width="200" height="200" viewBox="0 0 200 200" fill="none" xmlns="http://www.w3.org/2000/svg">
<g id="Group 1186">
<path id="Vector" d="M100 200C155.228 200 200 155.228 200 100C200 44.7715 155.228 0 100 0C44.7715 0 0 44.7715 0 100C0 155.228 44.7715 200 100 200Z" fill="#698CB4"/>
<path id="Vector_2" d="M0 100C0 155.233 44.7733 200 100 200C155.227 200 200 155.227 200 100C200 91.3303 198.896 82.9153 196.818 74.8857H3.18176C1.10414 82.9087 0 91.3237 0 100Z" fill="#F2F2EA"/>
<g id="REHOBOTH">
<path d="M35.9715 138.609C35.7131 138.609 35.5409 138.479 35.4548 138.218L31.493 123.651C31.4643 123.553 31.4068 123.504 31.3207 123.504H28.3063C28.1915 123.504 28.134 123.569 28.134 123.7V138.12C28.134 138.446 27.9905 138.609 27.7034 138.609H24.4306C24.1435 138.609 24 138.446 24 138.12V104.88C24 104.554 24.1435 104.391 24.4306 104.391H32.1389C33.6031 104.391 34.8949 104.798 36.0146 105.613C37.1342 106.428 37.9955 107.585 38.5984 109.084C39.23 110.55 39.5458 112.229 39.5458 114.119C39.5458 116.172 39.1725 117.964 38.4261 119.496C37.6797 120.995 36.6605 122.087 35.3686 122.771C35.2825 122.869 35.2538 122.966 35.2825 123.064L39.6749 138.071L39.718 138.267C39.718 138.495 39.5888 138.609 39.3304 138.609H35.9715ZM28.3063 108.448C28.1915 108.448 28.134 108.513 28.134 108.644V119.594C28.134 119.724 28.1915 119.789 28.3063 119.789H31.493C32.67 119.789 33.6174 119.284 34.3351 118.274C35.0528 117.231 35.4117 115.862 35.4117 114.168C35.4117 112.408 35.0528 111.023 34.3351 110.013C33.6174 108.97 32.67 108.448 31.493 108.448H28.3063Z" fill="#F26522"/>
<path d="M57.939 107.959C57.939 108.285 57.7955 108.448 57.5084 108.448H47.8192C47.7044 108.448 47.647 108.513 47.647 108.644V119.251C47.647 119.382 47.7044 119.447 47.8192 119.447H53.7619C54.049 119.447 54.1926 119.61 54.1926 119.936V123.015C54.1926 123.341 54.049 123.504 53.7619 123.504H47.8192C47.7044 123.504 47.647 123.569 47.647 123.7V134.356C47.647 134.486 47.7044 134.552 47.8192 134.552H57.5084C57.7955 134.552 57.939 134.715 57.939 135.041V138.12C57.939 138.446 57.7955 138.609 57.5084 138.609H43.9436C43.6565 138.609 43.5129 138.446 43.5129 138.12V104.88C43.5129 104.554 43.6565 104.391 43.9436 104.391H57.5084C57.7955 104.391 57.939 104.554 57.939 104.88V107.959Z" fill="#F26522"/>
<path d="M73.0817 104.88C73.0817 104.554 73.2253 104.391 73.5124 104.391H76.7852C77.0723 104.391 77.2158 104.554 77.2158 104.88V138.12C77.2158 138.446 77.0723 138.609 76.7852 138.609H73.5124C73.2253 138.609 73.0817 138.446 73.0817 138.12V123.7C73.0817 123.569 73.0243 123.504 72.9095 123.504H66.407C66.2921 123.504 66.2347 123.569 66.2347 123.7V138.12C66.2347 138.446 66.0912 138.609 65.8041 138.609H62.5313C62.2442 138.609 62.1007 138.446 62.1007 138.12V104.88C62.1007 104.554 62.2442 104.391 62.5313 104.391H65.8041C66.0912 104.391 66.2347 104.554 66.2347 104.88V119.251C66.2347 119.382 66.2921 119.447 66.407 119.447H72.9095C73.0243 119.447 73.0817 119.382 73.0817 119.251V104.88Z" fill="#F26522"/>
<path d="M89.7734 139C87.4193 139 85.5245 138.185 84.0891 136.556C82.6536 134.926 81.9359 132.759 81.9359 130.054V112.994C81.9359 110.29 82.6536 108.122 84.0891 106.493C85.5245 104.831 87.4193 104 89.7734 104C92.1562 104 94.0653 104.831 95.5008 106.493C96.9649 108.122 97.697 110.29 97.697 112.994V130.054C97.697 132.759 96.9649 134.926 95.5008 136.556C94.0653 138.185 92.1562 139 89.7734 139ZM89.7734 134.943C90.9217 134.943 91.8404 134.519 92.5294 133.672C93.2184 132.792 93.5629 131.651 93.5629 130.25V112.75C93.5629 111.349 93.2184 110.224 92.5294 109.377C91.8404 108.497 90.9217 108.057 89.7734 108.057C88.6537 108.057 87.7494 108.497 87.0604 109.377C86.4001 110.224 86.07 111.349 86.07 112.75V130.25C86.07 131.651 86.4001 132.792 87.0604 133.672C87.7494 134.519 88.6537 134.943 89.7734 134.943Z" fill="#F26522"/>
<path d="M118.105 129.272C118.105 132.238 117.359 134.535 115.866 136.165C114.402 137.794 112.464 138.609 110.052 138.609H102.861C102.574 138.609 102.43 138.446 102.43 138.12V104.88C102.43 104.554 102.574 104.391 102.861 104.391H109.449C112.062 104.391 114.1 105.173 115.564 106.737C117.057 108.269 117.804 110.518 117.804 113.483C117.804 117.003 116.698 119.431 114.488 120.767C114.344 120.865 114.33 120.946 114.445 121.011C115.593 121.793 116.483 122.885 117.115 124.286C117.775 125.688 118.105 127.35 118.105 129.272ZM106.737 108.448C106.622 108.448 106.564 108.513 106.564 108.644V119.007C106.564 119.137 106.622 119.203 106.737 119.203H109.493C110.842 119.203 111.89 118.746 112.636 117.834C113.383 116.889 113.756 115.585 113.756 113.923C113.756 112.196 113.383 110.86 112.636 109.915C111.89 108.937 110.842 108.448 109.493 108.448H106.737ZM109.708 134.503C111.028 134.503 112.062 133.998 112.808 132.987C113.584 131.977 113.971 130.543 113.971 128.686C113.971 126.796 113.598 125.329 112.851 124.286C112.105 123.211 111.072 122.673 109.751 122.673H106.737C106.622 122.673 106.564 122.738 106.564 122.869V134.307C106.564 134.438 106.622 134.503 106.737 134.503H109.708Z" fill="#F26522"/>
<path d="M129.304 139C126.95 139 125.055 138.185 123.62 136.556C122.184 134.926 121.466 132.759 121.466 130.054V112.994C121.466 110.29 122.184 108.122 123.62 106.493C125.055 104.831 126.95 104 129.304 104C131.687 104 133.596 104.831 135.031 106.493C136.495 108.122 137.227 110.29 137.227 112.994V130.054C137.227 132.759 136.495 134.926 135.031 136.556C133.596 138.185 131.687 139 129.304 139ZM129.304 134.943C130.452 134.943 131.371 134.519 132.06 133.672C132.749 132.792 133.093 131.651 133.093 130.25V112.75C133.093 111.349 132.749 110.224 132.06 109.377C131.371 108.497 130.452 108.057 129.304 108.057C128.184 108.057 127.28 108.497 126.591 109.377C125.931 110.224 125.6 111.349 125.6 112.75V130.25C125.6 131.651 125.931 132.792 126.591 133.672C127.28 134.519 128.184 134.943 129.304 134.943Z" fill="#F26522"/>
<path d="M156.473 104.391C156.76 104.391 156.904 104.554 156.904 104.88V107.959C156.904 108.285 156.76 108.448 156.473 108.448H150.832C150.717 108.448 150.659 108.513 150.659 108.644V138.12C150.659 138.446 150.516 138.609 150.229 138.609H146.956C146.669 138.609 146.525 138.446 146.525 138.12V108.644C146.525 108.513 146.468 108.448 146.353 108.448H141.013C140.726 108.448 140.583 108.285 140.583 107.959V104.88C140.583 104.554 140.726 104.391 141.013 104.391H156.473Z" fill="#F26522"/>
<path d="M171.866 104.88C171.866 104.554 172.01 104.391 172.297 104.391H175.569C175.856 104.391 176 104.554 176 104.88V138.12C176 138.446 175.856 138.609 175.569 138.609H172.297C172.01 138.609 171.866 138.446 171.866 138.12V123.7C171.866 123.569 171.809 123.504 171.694 123.504H165.191C165.076 123.504 165.019 123.569 165.019 123.7V138.12C165.019 138.446 164.875 138.609 164.588 138.609H161.316C161.028 138.609 160.885 138.446 160.885 138.12V104.88C160.885 104.554 161.028 104.391 161.316 104.391H164.588C164.875 104.391 165.019 104.554 165.019 104.88V119.251C165.019 119.382 165.076 119.447 165.191 119.447H171.694C171.809 119.447 171.866 119.382 171.866 119.251V104.88Z" fill="#F26522"/>
</g>
<g id="Group">
<g id="Group_2">
<path id="Vector_3" d="M65.5922 162.224C62.4039 162.224 60.3916 161.303 59.6141 159.486C59.4312 159.049 59.3397 158.526 59.3397 157.945C59.3397 157.324 59.6403 156.671 60.2348 155.998C61.1429 154.985 62.417 154.475 64.0046 154.475C65.0238 154.475 65.9646 154.626 66.7943 154.92C67.6045 155.207 68.6171 155.678 69.8062 156.318C70.832 156.873 71.6356 157.298 72.1974 157.585C73.1578 156.612 74.164 155.272 75.1963 153.593C76.2873 151.81 77.2673 150.039 78.0906 148.327C78.9268 146.603 80.0048 144.649 81.2984 142.532C82.5921 140.409 83.9379 138.58 85.2838 137.084L86.9041 135.235C85.225 134.973 83.3761 134.843 81.3964 134.843C79.1947 134.843 76.7381 135.137 74.0921 135.718C70.5118 136.476 67.7221 138.031 65.8078 140.337C64.6644 141.703 64.083 143.009 64.083 144.218C64.083 145.793 64.8278 146.786 66.3566 147.256C66.9054 147.413 67.3954 147.491 67.8135 147.491C68.2317 147.491 68.7217 147.413 69.277 147.256C69.8062 147.106 70.3354 146.786 70.8516 146.296C71.3742 145.793 71.7597 145.309 71.9884 144.852C72.2824 144.264 72.3216 143.996 72.3216 143.885C72.3216 143.454 72.5829 143.186 73.001 143.186C73.2232 143.205 73.6675 143.323 73.7132 143.983V144.022V144.094C73.4388 145.91 72.4588 147.302 70.7993 148.243C69.7866 148.785 68.7609 149.059 67.7417 149.059L65.8535 148.739C63.1748 147.811 61.842 146.067 61.842 143.545C61.842 141.846 62.5934 140.154 64.083 138.527C66.4285 135.894 69.9108 134.235 74.4384 133.588C76.6075 133.281 78.8942 133.124 81.2396 133.124C83.5851 133.124 85.911 133.379 88.2957 133.876C88.9294 133.346 89.4978 132.987 89.9944 132.798C90.7327 132.517 90.8764 132.497 90.9744 132.497C91.0463 132.497 91.1377 132.497 91.2292 132.543C91.4056 132.569 91.4971 132.673 91.5363 132.739C91.6212 132.883 91.6147 133.052 91.5101 133.248C91.4383 133.386 91.2684 133.601 90.6281 134.019C90.4452 134.137 90.308 134.241 90.21 134.333C93.2153 135.163 95.4367 136.339 96.8087 137.828C97.6188 138.736 98.0239 139.684 98.0239 140.644C98.0239 141.605 97.7495 142.532 97.2007 143.473C96.482 144.708 95.3126 145.649 93.7184 146.276C92.6404 146.701 91.5493 146.995 90.4517 147.158C91.4709 147.576 92.4444 148.086 93.3525 148.68C95.2734 149.935 96.2534 151.646 96.2534 153.75C96.2534 155.161 95.7438 156.494 94.7311 157.696C93.3329 159.382 91.4448 160.617 89.1124 161.362C87.3941 161.91 85.7019 162.185 84.0751 162.185C83.4741 162.185 82.8795 162.146 82.3046 162.074C78.6786 161.61 75.5491 160.813 73.001 159.689C70.6686 161.368 68.1794 162.217 65.5857 162.217L65.5922 162.224ZM74.3339 158.572C76.8231 159.552 79.5148 160.192 82.3438 160.48C82.7815 160.525 83.1931 160.551 83.5786 160.551C86.1266 160.551 88.3088 159.82 90.0728 158.369C91.9871 156.84 92.954 155.181 92.954 153.437C92.954 151.692 92.0132 150.294 90.0662 149.353C89.328 149.007 88.4133 148.667 87.3418 148.327C86.2573 147.988 85.3622 147.7 84.6827 147.459C83.8922 147.184 83.4806 146.923 83.3434 146.609L83.3173 146.544V146.472C83.3173 146.106 83.4937 145.479 84.6566 145.44C85.1205 145.44 85.7999 145.472 86.7342 145.544C87.5052 145.603 88.1912 145.636 88.7661 145.636H89.0666C89.6742 145.623 90.4256 145.394 91.3076 144.963C92.1961 144.525 92.9605 143.95 93.5943 143.258C94.5939 142.147 95.097 141.108 95.097 140.161C95.097 138.168 93.1631 136.692 89.3541 135.764C88.0932 137.534 85.8914 141.121 82.7946 146.446C79.5802 151.98 77.0583 155.743 75.3073 157.638L74.3208 158.572H74.3339ZM64.0895 156.226C63.4688 156.226 62.9919 156.435 62.626 156.867C62.2536 157.311 62.0707 157.703 62.0707 158.036C62.0707 158.395 62.1556 158.742 62.319 159.068C62.7828 160.016 63.7498 160.473 65.2721 160.473C67.2517 160.473 69.1267 159.878 70.845 158.702C68.4081 157.54 66.827 156.827 66.1541 156.586C65.4615 156.344 64.769 156.22 64.096 156.22L64.0895 156.226Z" fill="#6699CC"/>
<path id="Vector_4" d="M90.9744 132.824C91.0528 132.824 91.1116 132.837 91.1312 132.856C91.2749 132.856 91.3011 132.935 91.2161 133.085C91.1312 133.235 90.8764 133.458 90.4386 133.738C90.0009 134.019 89.7396 134.281 89.6481 134.516C92.8495 135.339 95.1492 136.515 96.5604 138.044C97.3118 138.893 97.6907 139.756 97.6907 140.638C97.6907 141.52 97.4294 142.408 96.9132 143.303C96.2338 144.479 95.1231 145.368 93.5943 145.969C92.0655 146.57 90.5236 146.903 88.9752 146.975C90.4779 147.446 91.8825 148.105 93.1761 148.948C95.012 150.15 95.9267 151.745 95.9267 153.744C95.9267 155.083 95.4432 156.331 94.4828 157.481C93.1173 159.127 91.2945 160.316 89.0144 161.048C87.3222 161.59 85.6758 161.858 84.0751 161.858C83.4871 161.858 82.9122 161.826 82.3438 161.754C78.6524 161.283 75.5229 160.473 72.9618 159.317C70.636 161.035 68.1729 161.891 65.5857 161.891C62.528 161.891 60.6333 161.048 59.9081 159.349C59.7448 158.951 59.6599 158.48 59.6599 157.938C59.6599 157.396 59.9277 156.821 60.47 156.207C61.3194 155.266 62.4954 154.796 63.998 154.796C64.9846 154.796 65.8797 154.939 66.6767 155.22C67.4738 155.501 68.4669 155.959 69.6429 156.599C70.8189 157.233 71.6878 157.69 72.2562 157.977C73.2885 156.965 74.36 155.56 75.4641 153.763C76.5683 151.967 77.5417 150.203 78.378 148.471C79.2143 146.74 80.2792 144.819 81.5728 142.702C82.8665 140.585 84.1862 138.789 85.5255 137.306L87.5378 135.012C85.6823 134.686 83.6309 134.516 81.3964 134.516C79.162 134.516 76.7055 134.81 74.0203 135.398C70.3485 136.175 67.5261 137.75 65.553 140.128C64.3508 141.565 63.7563 142.924 63.7563 144.218C63.7563 145.936 64.5926 147.054 66.2586 147.57C66.8466 147.733 67.3627 147.818 67.8135 147.818C68.2643 147.818 68.7805 147.733 69.3685 147.57C69.9565 147.406 70.5249 147.06 71.0802 146.531C71.6356 146.002 72.0341 145.492 72.2824 144.996C72.5306 144.499 72.6548 144.133 72.6548 143.885C72.6548 143.637 72.7724 143.512 73.0076 143.512C73.2428 143.539 73.3734 143.702 73.393 144.009V144.042C73.1317 145.76 72.217 147.067 70.6425 147.955C69.6755 148.471 68.7151 148.733 67.7482 148.733L65.9123 148.412C63.4166 147.544 62.1752 145.917 62.1752 143.545C62.1752 141.925 62.8939 140.324 64.3247 138.75C66.631 136.162 70.0153 134.549 74.4841 133.915C76.6467 133.608 78.9007 133.458 81.2396 133.458C83.5786 133.458 85.9633 133.719 88.3872 134.235C89.047 133.673 89.622 133.294 90.1185 133.105C90.6151 132.915 90.9025 132.824 90.9809 132.824M83.5851 160.872C86.2181 160.872 88.4525 160.12 90.2884 158.611C92.2876 157.01 93.2872 155.286 93.2872 153.424C93.2872 151.562 92.2615 150.039 90.2165 149.046C89.4652 148.693 88.5374 148.347 87.4464 148.007C86.3553 147.668 85.4733 147.38 84.8003 147.145C84.1274 146.91 83.7485 146.688 83.657 146.472C83.657 146.028 83.9967 145.793 84.6827 145.766C85.127 145.766 85.813 145.799 86.7277 145.871C87.5052 145.93 88.1912 145.962 88.7857 145.962C88.8902 145.962 88.9948 145.962 89.0928 145.962C89.7526 145.949 90.5432 145.714 91.4709 145.257C92.3987 144.8 93.1957 144.205 93.8491 143.473C94.9075 142.297 95.4367 141.193 95.4367 140.154C95.4367 137.946 93.3656 136.358 89.23 135.391C87.9821 137.11 85.7477 140.736 82.5267 146.276C79.3058 151.816 76.8231 155.527 75.0852 157.409L73.7458 158.676C76.4049 159.781 79.26 160.486 82.3177 160.793C82.7619 160.839 83.1866 160.865 83.5851 160.865M65.2721 160.806C67.5065 160.806 69.5776 160.088 71.4788 158.657C68.7282 157.337 66.9838 156.553 66.2586 156.292C65.5269 156.037 64.8082 155.906 64.0895 155.906C63.3708 155.906 62.8024 156.161 62.3778 156.664C61.9531 157.167 61.744 157.631 61.744 158.043C61.744 158.454 61.8355 158.846 62.025 159.225C62.5411 160.284 63.6256 160.813 65.2721 160.813M90.9744 132.17C90.8307 132.17 90.6738 132.19 89.8768 132.497C89.3737 132.693 88.8249 133.033 88.2042 133.529C85.8522 133.046 83.5067 132.804 81.2331 132.804C78.9595 132.804 76.5683 132.961 74.3861 133.268C69.7801 133.921 66.2259 135.62 63.8282 138.312C62.2928 139.997 61.5088 141.761 61.5088 143.545C61.5088 146.217 62.9135 148.066 65.6902 149.033L65.7424 149.053H65.7947L67.6306 149.379H67.6829L67.7417 149.386C68.8131 149.386 69.8912 149.098 70.943 148.53C72.707 147.53 73.7393 146.054 74.0333 144.14V144.094L74.0399 144.042V143.957C73.9811 143.212 73.4976 142.905 73.0598 142.859H73.0272H72.9945C72.4 142.859 71.9884 143.277 71.9884 143.885C71.9884 143.924 71.9753 144.127 71.6878 144.702C71.4788 145.126 71.1194 145.584 70.6229 146.054C70.1525 146.505 69.669 146.805 69.1855 146.936C68.6563 147.086 68.1925 147.158 67.807 147.158C67.4215 147.158 66.9577 147.08 66.4285 146.936C65.0499 146.511 64.4031 145.642 64.4031 144.212C64.4031 143.081 64.9584 141.846 66.0495 140.54C67.9181 138.292 70.649 136.777 74.1509 136.032C76.7773 135.457 79.2143 135.163 81.3899 135.163C83.1213 135.163 84.7481 135.267 86.2507 135.463L85.0225 136.861C83.6635 138.364 82.3111 140.213 81.0044 142.349C79.7043 144.479 78.6198 146.439 77.7835 148.171C76.9603 149.869 75.9933 151.633 74.9023 153.404C73.9484 154.959 73.0141 156.22 72.119 157.161C71.5768 156.88 70.845 156.494 69.95 156.011C68.7478 155.364 67.7221 154.887 66.8923 154.593C66.0299 154.286 65.0499 154.129 63.9915 154.129C62.2994 154.129 60.9535 154.678 59.98 155.756C59.3267 156.494 59 157.219 59 157.925C59 158.552 59.098 159.108 59.294 159.585C60.1368 161.538 62.2471 162.531 65.5791 162.531C68.1794 162.531 70.6882 161.695 73.0337 160.048C75.5817 161.14 78.6786 161.93 82.2589 162.381C82.8469 162.453 83.461 162.492 84.0686 162.492C85.7281 162.492 87.4529 162.211 89.2038 161.649C91.5951 160.885 93.542 159.617 94.9793 157.879C96.0378 156.612 96.5735 155.214 96.5735 153.724C96.5735 151.503 95.5478 149.7 93.5289 148.38C92.8952 147.962 92.2288 147.589 91.5428 147.263C92.3137 147.086 93.0781 146.851 93.836 146.557C95.502 145.904 96.7238 144.917 97.4816 143.61C98.0566 142.617 98.344 141.611 98.344 140.618C98.344 139.625 97.9063 138.56 97.0504 137.593C95.7242 136.156 93.6727 135.019 90.9352 134.183C91.4056 133.869 91.6669 133.621 91.7976 133.379C92.0132 132.987 91.9021 132.693 91.8172 132.549C91.7649 132.458 91.6147 132.262 91.3207 132.203C91.1704 132.151 91.0332 132.151 90.9744 132.151V132.17ZM83.8791 145.263C86.4598 140.86 88.348 137.796 89.5044 136.143C93.0063 137.031 94.7834 138.384 94.7834 140.167C94.7834 141.03 94.3064 142.003 93.3656 143.049C92.7645 143.715 92.0328 144.264 91.1835 144.682C90.3472 145.094 89.635 145.309 89.0797 145.322C88.9817 145.322 88.8837 145.322 88.7857 145.322C88.2173 145.322 87.5378 145.29 86.7734 145.231C85.8261 145.159 85.1401 145.12 84.6762 145.12C84.3495 145.133 84.0882 145.185 83.8791 145.263ZM74.9349 158.454L75.5295 157.892L75.5425 157.879L75.5556 157.866C77.3131 155.965 79.8284 152.215 83.0363 146.707L83.0559 146.746C83.2323 147.152 83.6897 147.459 84.5847 147.772C85.2642 148.014 86.1658 148.301 87.2504 148.641C88.3088 148.968 89.2104 149.308 89.9356 149.647C91.7453 150.523 92.6273 151.758 92.6273 153.43C92.6273 155.103 91.6996 156.645 89.8768 158.108C88.165 159.513 86.0482 160.225 83.5786 160.225C83.2062 160.225 82.8011 160.205 82.3765 160.16C79.75 159.898 77.2543 159.33 74.9284 158.461L74.9349 158.454ZM65.2721 160.153C63.887 160.153 63.018 159.754 62.613 158.931C62.4692 158.637 62.3974 158.35 62.3974 158.036C62.3974 157.86 62.4823 157.553 62.8808 157.082C63.1814 156.723 63.5668 156.56 64.0895 156.56C64.7298 156.56 65.3831 156.677 66.043 156.912C66.6571 157.128 68.0422 157.749 70.1721 158.761C68.6433 159.689 66.9969 160.16 65.2721 160.16V160.153Z" fill="#F2F2EA"/>
</g>
<g id="Group_3">
<path id="Vector_5" d="M100.52 160.989C99.5005 160.989 98.6184 160.65 97.8998 159.983C97.1746 159.31 96.8087 158.389 96.8087 157.239C96.8087 156.089 97.07 154.965 97.5927 153.744C98.1088 152.529 98.821 151.385 99.7095 150.346C100.611 149.288 101.656 148.504 102.832 148.014C103.407 147.766 103.976 147.635 104.512 147.635C105.047 147.635 105.59 147.798 106.067 148.112C106.57 148.524 106.811 148.981 106.811 149.477C106.811 150.987 105.916 152.444 104.146 153.796C103.603 154.214 102.832 154.593 101.866 154.92C101.016 155.207 100.35 155.364 99.8337 155.403C99.5723 156.109 99.4417 156.906 99.4417 157.768C99.4417 158.35 99.5658 158.814 99.8141 159.14C100.043 159.447 100.369 159.591 100.807 159.591C102.793 159.591 104.655 157.625 106.328 153.757C106.53 153.293 106.805 153.058 107.151 153.058C107.197 153.058 107.243 153.058 107.288 153.071C107.543 153.136 107.693 153.326 107.693 153.567C107.693 153.672 107.693 153.783 106.87 155.56C106.334 156.716 105.779 157.67 105.23 158.389C103.976 160.107 102.395 160.989 100.526 160.989H100.52ZM104.962 149.066C104.649 149.066 103.878 149.366 102.218 151.379C101.558 152.189 100.957 153.097 100.428 154.083C100.722 154.018 101.075 153.907 101.487 153.757C102.212 153.489 102.852 153.13 103.388 152.685C104.597 151.653 105.211 150.562 105.211 149.445C105.211 149.066 105.087 149.066 104.975 149.066H104.962Z" fill="#6699CC"/>
<path id="Vector_6" d="M104.505 147.962C105.002 147.962 105.459 148.105 105.884 148.386C106.282 148.713 106.485 149.079 106.485 149.477C106.485 150.889 105.635 152.241 103.943 153.535C103.427 153.933 102.695 154.293 101.754 154.613C100.814 154.933 100.095 155.09 99.605 155.09C99.2783 155.887 99.1084 156.782 99.1084 157.768C99.1084 158.428 99.2522 158.951 99.5462 159.336C99.8402 159.722 100.258 159.918 100.801 159.918C102.944 159.918 104.884 157.905 106.622 153.887C106.766 153.554 106.942 153.384 107.145 153.384C107.171 153.384 107.197 153.384 107.223 153.391C107.314 153.417 107.367 153.476 107.367 153.567C107.367 153.659 107.105 154.279 106.576 155.423C106.047 156.566 105.511 157.487 104.969 158.193C103.767 159.839 102.29 160.663 100.526 160.663C99.5854 160.663 98.7883 160.356 98.1284 159.748C97.4686 159.14 97.1419 158.304 97.1419 157.246C97.1419 156.187 97.3967 155.063 97.8998 153.874C98.4028 152.685 99.0954 151.581 99.9643 150.555C100.833 149.53 101.833 148.785 102.963 148.314C103.505 148.079 104.022 147.962 104.518 147.962M99.8467 154.489C100.245 154.489 100.827 154.345 101.591 154.064C102.356 153.783 103.022 153.404 103.584 152.934C104.877 151.829 105.524 150.667 105.524 149.438C105.524 148.968 105.335 148.733 104.962 148.733C104.302 148.733 103.303 149.543 101.964 151.17C101.166 152.156 100.461 153.267 99.8467 154.489ZM104.505 147.308C103.924 147.308 103.316 147.446 102.695 147.713C101.48 148.216 100.389 149.033 99.4612 150.131C98.5531 151.196 97.8214 152.372 97.2922 153.613C96.7564 154.874 96.482 156.096 96.482 157.239C96.482 158.48 96.8871 159.487 97.6776 160.225C98.4551 160.95 99.4155 161.316 100.52 161.316C102.499 161.316 104.172 160.395 105.492 158.578C106.047 157.853 106.615 156.88 107.164 155.697C108.02 153.855 108.02 153.744 108.02 153.567C108.02 153.175 107.772 152.855 107.386 152.757H107.367L107.347 152.751C107.275 152.738 107.21 152.731 107.145 152.731C106.811 152.731 106.347 152.888 106.021 153.626C104.4 157.37 102.643 159.264 100.801 159.264C100.369 159.264 100.18 159.095 100.069 158.944C99.8663 158.676 99.7618 158.278 99.7618 157.768C99.7618 157.023 99.8663 156.331 100.069 155.71C100.572 155.645 101.199 155.488 101.964 155.233C102.983 154.887 103.76 154.502 104.342 154.057C106.197 152.64 107.138 151.104 107.138 149.484C107.138 148.883 106.857 148.347 106.302 147.89L106.276 147.87L106.249 147.851C105.72 147.498 105.132 147.315 104.512 147.315L104.505 147.308ZM101.108 153.548C101.526 152.849 101.983 152.189 102.473 151.588C103.937 149.817 104.629 149.471 104.871 149.412C104.871 149.425 104.871 149.438 104.871 149.451C104.871 150.471 104.296 151.477 103.159 152.45C102.663 152.862 102.055 153.208 101.362 153.463C101.271 153.495 101.186 153.528 101.101 153.554L101.108 153.548Z" fill="#F2F2EA"/>
</g>
<g id="Group_4">
<path id="Vector_7" d="M114.103 160.917C113.305 160.917 112.659 160.532 112.169 159.78C111.92 159.369 111.796 158.84 111.796 158.193C111.796 158.01 111.809 157.82 111.829 157.611C110.254 159.833 108.869 160.917 107.608 160.917C107.158 160.917 106.753 160.774 106.387 160.499C105.603 159.95 105.204 159.003 105.204 157.696C105.204 155.325 106.236 152.888 108.281 150.464C109.451 149.098 110.914 148.197 112.619 147.779C113.083 147.655 113.541 147.596 113.965 147.596C115.128 147.596 116.134 148.007 116.945 148.817C117.363 149.275 117.33 149.667 117.226 149.909C117.095 150.229 116.827 150.405 116.468 150.405C116.409 150.405 116.344 150.405 116.272 150.392L116.069 150.359L116.01 150.163C115.795 149.458 115.357 149.125 114.632 149.125C113.717 149.125 112.541 149.895 111.13 151.418C110.307 152.332 109.523 153.43 108.811 154.678C107.929 156.154 107.478 157.33 107.478 158.186C107.478 159.238 107.87 159.238 108.033 159.238C108.909 159.238 110.529 158.141 113.286 152.92C113.75 152.019 114.135 151.411 114.468 151.065C114.834 150.686 115.305 150.49 115.867 150.49C115.945 150.49 116.108 150.503 116.651 150.601C116.866 150.64 117.043 150.66 117.18 150.66C117.278 150.66 117.343 150.653 117.376 150.64L118.519 150.353L117.683 151.189C117.284 151.588 116.703 152.528 115.945 153.985C115.187 155.442 114.73 156.546 114.58 157.252C114.429 157.971 114.357 158.552 114.357 158.983C114.357 159.343 114.468 159.343 114.56 159.343C114.749 159.343 115.187 159.199 115.965 158.232C116.905 157.063 117.859 155.501 118.787 153.6C118.918 153.299 119.107 153.116 119.329 153.071C119.368 153.051 119.44 153.038 119.519 153.038C119.76 153.038 120.002 153.214 120.002 153.6C120.002 153.763 119.956 153.946 119.872 154.149C117.618 158.702 115.736 160.911 114.103 160.911V160.917Z" fill="#6699CC"/>
<path id="Vector_8" d="M113.959 147.929C115.037 147.929 115.958 148.308 116.709 149.059C116.945 149.321 117.016 149.562 116.918 149.798C116.84 149.994 116.69 150.092 116.461 150.092C116.415 150.092 116.37 150.092 116.317 150.078C116.056 149.236 115.494 148.811 114.625 148.811C113.613 148.811 112.365 149.608 110.888 151.209C110.039 152.15 109.255 153.254 108.523 154.528C107.608 156.057 107.145 157.278 107.145 158.199C107.145 159.121 107.439 159.578 108.027 159.578C109.438 159.578 111.287 157.415 113.567 153.084C114.011 152.215 114.39 151.62 114.697 151.3C115.004 150.98 115.39 150.823 115.86 150.823C115.952 150.823 116.193 150.856 116.585 150.928C116.82 150.967 117.016 150.993 117.173 150.993C117.278 150.993 117.369 150.987 117.448 150.967C117.023 151.392 116.422 152.352 115.651 153.842C114.874 155.338 114.41 156.455 114.259 157.193C114.109 157.932 114.031 158.533 114.031 158.99C114.031 159.447 114.207 159.676 114.56 159.676C115.004 159.676 115.56 159.264 116.219 158.441C117.186 157.239 118.134 155.678 119.081 153.75C119.172 153.541 119.277 153.424 119.401 153.397C119.447 153.378 119.486 153.371 119.525 153.371C119.63 153.371 119.682 153.45 119.682 153.606C119.682 153.724 119.649 153.868 119.578 154.031C117.415 158.409 115.592 160.591 114.109 160.591C113.43 160.591 112.874 160.264 112.45 159.604C112.241 159.251 112.129 158.781 112.129 158.193C112.129 157.605 112.247 156.886 112.482 156.043C110.601 159.075 108.98 160.591 107.615 160.591C107.236 160.591 106.896 160.473 106.589 160.238C105.884 159.741 105.531 158.899 105.531 157.696C105.531 155.39 106.53 153.051 108.53 150.673C109.66 149.353 111.045 148.497 112.691 148.099C113.136 147.981 113.56 147.922 113.959 147.922M113.959 147.276C113.502 147.276 113.018 147.341 112.521 147.472C110.757 147.903 109.242 148.837 108.027 150.255C105.929 152.744 104.871 155.246 104.871 157.703C104.871 159.121 105.322 160.159 106.21 160.78C106.609 161.087 107.086 161.251 107.608 161.251C108.804 161.251 110.085 160.388 111.489 158.618C111.535 159.14 111.666 159.585 111.881 159.944C112.574 161.022 113.469 161.251 114.096 161.251C115.886 161.251 117.814 159.049 120.152 154.325V154.306L120.166 154.286C120.27 154.038 120.322 153.816 120.322 153.606C120.322 153.018 119.911 152.718 119.512 152.718C119.414 152.718 119.31 152.738 119.205 152.77C118.892 152.855 118.65 153.097 118.473 153.489C117.565 155.344 116.631 156.88 115.703 158.036C115.174 158.696 114.841 158.918 114.678 158.99C114.678 158.578 114.749 158.017 114.893 157.324C115.03 156.645 115.481 155.573 116.226 154.142C117.147 152.365 117.65 151.686 117.905 151.431L119.578 149.765L117.376 150.314C117.435 150.235 117.48 150.144 117.52 150.046C117.631 149.771 117.729 149.223 117.186 148.622C116.285 147.72 115.207 147.276 113.952 147.276H113.959ZM108.033 158.918C107.844 158.918 107.804 158.526 107.804 158.193C107.804 157.402 108.236 156.279 109.085 154.861C109.791 153.626 110.561 152.548 111.372 151.646C113.044 149.843 114.063 149.464 114.625 149.464C115.187 149.464 115.481 149.673 115.664 150.176C115.096 150.216 114.612 150.444 114.227 150.843C113.874 151.209 113.469 151.842 112.985 152.777C110.065 158.317 108.543 158.912 108.027 158.912L108.033 158.918Z" fill="#F2F2EA"/>
</g>
<g id="Group_5">
<path id="Vector_9" d="M121.969 160.989C120.558 160.989 119.519 160.623 118.885 159.911C118.258 159.206 117.938 158.382 117.938 157.455C117.938 156.383 118.199 155.201 118.722 153.94C119.231 152.698 119.832 151.607 120.505 150.693C121.93 148.759 123.609 147.772 125.497 147.772C126.457 147.772 127.169 148.014 127.62 148.491C128.064 148.961 128.293 149.517 128.293 150.144C128.293 151.039 127.921 151.81 127.189 152.437C126.803 152.796 126.457 152.973 126.15 152.973C125.843 152.973 125.562 152.855 125.333 152.627L125.124 152.417L125.314 152.189C126.085 151.268 126.47 150.497 126.47 149.896C126.47 149.255 126.202 149.197 125.954 149.197C124.968 149.197 123.785 150.17 122.446 152.091C122.015 152.705 121.59 153.522 121.172 154.534C120.767 155.527 120.564 156.429 120.564 157.213C120.564 157.997 120.721 158.605 121.021 159.062C121.302 159.487 121.734 159.689 122.335 159.689C122.995 159.689 123.609 159.532 124.171 159.219C124.739 158.905 125.288 158.389 125.817 157.683C126.359 156.952 126.777 156.344 127.045 155.867C127.326 155.377 127.712 154.632 128.202 153.659C128.339 153.378 128.541 153.058 128.861 153.058H128.94L129.064 153.103C129.293 153.215 129.423 153.411 129.423 153.646C129.423 153.77 129.384 153.959 128.914 154.952C128.594 155.625 128.273 156.266 127.953 156.854C127.627 157.455 127.156 158.141 126.562 158.879C125.445 160.271 123.903 160.976 121.969 160.976V160.989Z" fill="#6699CC"/>
<path id="Vector_10" d="M125.497 148.105C126.366 148.105 126.999 148.315 127.385 148.726C127.77 149.138 127.966 149.615 127.966 150.157C127.966 150.954 127.64 151.64 126.98 152.202C126.653 152.509 126.372 152.659 126.15 152.659C125.928 152.659 125.732 152.574 125.569 152.411C126.392 151.424 126.803 150.588 126.803 149.909C126.803 149.229 126.523 148.883 125.961 148.883C124.857 148.883 123.596 149.896 122.184 151.914C121.74 152.548 121.302 153.384 120.878 154.417C120.453 155.449 120.244 156.39 120.244 157.22C120.244 158.049 120.414 158.729 120.754 159.251C121.093 159.768 121.622 160.029 122.341 160.029C123.06 160.029 123.72 159.859 124.334 159.519C124.948 159.18 125.529 158.637 126.078 157.899C126.634 157.161 127.052 156.54 127.333 156.05C127.614 155.56 128.006 154.815 128.496 153.829C128.633 153.548 128.757 153.411 128.861 153.411C128.881 153.411 128.901 153.411 128.914 153.424C129.031 153.482 129.09 153.567 129.09 153.672C129.09 153.776 128.933 154.168 128.613 154.835C128.293 155.508 127.979 156.135 127.659 156.723C127.339 157.311 126.888 157.971 126.3 158.696C125.242 160.016 123.798 160.669 121.962 160.669C120.642 160.669 119.695 160.349 119.12 159.696C118.545 159.049 118.258 158.304 118.258 157.455C118.258 156.422 118.513 155.292 119.016 154.07C119.519 152.849 120.1 151.79 120.76 150.895C122.126 149.04 123.7 148.105 125.49 148.105M125.497 147.452C123.498 147.452 121.727 148.478 120.244 150.503C119.558 151.438 118.944 152.548 118.421 153.816C117.885 155.109 117.611 156.338 117.611 157.455C117.611 158.461 117.957 159.363 118.643 160.127C119.342 160.917 120.466 161.316 121.969 161.316C124.001 161.316 125.634 160.571 126.817 159.095C127.424 158.337 127.908 157.644 128.241 157.024C128.561 156.429 128.888 155.782 129.208 155.103C129.711 154.044 129.75 153.842 129.75 153.659C129.75 153.3 129.554 152.999 129.214 152.829C129.103 152.777 128.986 152.744 128.868 152.744C128.306 152.744 128.019 153.313 127.914 153.528C127.431 154.495 127.045 155.233 126.764 155.717C126.496 156.181 126.091 156.782 125.556 157.5C125.059 158.167 124.543 158.65 124.014 158.944C123.498 159.232 122.949 159.376 122.341 159.376C121.694 159.376 121.433 159.101 121.302 158.892C121.034 158.487 120.897 157.925 120.897 157.22C120.897 156.475 121.093 155.612 121.485 154.665C121.89 153.678 122.302 152.881 122.72 152.287C124.308 150.007 125.36 149.53 125.961 149.53C126.059 149.53 126.091 149.549 126.091 149.549C126.104 149.562 126.15 149.667 126.15 149.902C126.15 150.262 125.961 150.915 125.066 151.986L124.687 152.444L125.105 152.868C125.392 153.156 125.752 153.306 126.15 153.306C126.549 153.306 126.96 153.104 127.424 152.672C128.215 151.999 128.62 151.144 128.62 150.15C128.62 149.438 128.365 148.811 127.862 148.275C127.346 147.727 126.555 147.452 125.497 147.452Z" fill="#F2F2EA"/>
</g>
<g id="Group_6">
<path id="Vector_11" d="M124.53 160.63C128.979 151.379 132.246 144.839 134.238 141.173C134.702 140.318 135.114 139.723 135.48 139.364C135.885 138.978 136.368 138.776 136.924 138.776C137.009 138.776 137.185 138.782 137.714 138.867C137.962 138.906 138.172 138.926 138.322 138.926C138.374 138.926 138.426 138.926 138.466 138.919L139.393 138.802L138.746 139.475C138.06 140.18 136.806 142.193 135.003 145.459C133.611 147.981 132.252 150.562 130.939 153.162C131.396 152.672 131.834 152.241 132.239 151.882C133.134 151.091 134.238 150.34 135.526 149.634C136.858 148.909 137.819 148.55 138.472 148.55C138.648 148.55 138.825 148.582 138.982 148.641L139.334 148.778L139.145 149.105C136.296 154.109 134.846 157.415 134.846 158.931C134.846 159.591 135.094 159.591 135.225 159.591C135.767 159.591 137.061 158.807 139.622 153.567C139.753 153.312 139.955 152.979 140.288 152.979C140.367 152.979 140.445 152.999 140.517 153.038C140.837 153.208 140.883 153.469 140.883 153.606C140.883 153.731 140.85 153.927 140.445 154.756C140.171 155.312 139.903 155.847 139.629 156.357C139.361 156.867 138.969 157.52 138.433 158.369C137.29 160.114 136.035 160.989 134.696 160.989C133.788 160.989 133.056 160.61 132.527 159.865C132.278 159.5 132.148 159.016 132.148 158.422C132.148 157.86 132.272 157.18 132.514 156.403C132.762 155.619 133.402 154.39 134.487 152.659C134.781 152.176 134.826 151.927 134.826 151.829C134.826 151.829 134.768 151.784 134.552 151.784C134.441 151.784 133.964 151.895 132.481 153.28C130.822 154.802 129.182 157.121 127.607 160.179C127.391 160.643 126.849 160.885 126.013 160.885C125.203 160.943 125.007 161.035 124.974 161.054L124.066 161.571L124.523 160.623L124.53 160.63Z" fill="#6699CC"/>
<path id="Vector_12" d="M136.924 139.109C137.041 139.109 137.29 139.135 137.662 139.194C137.93 139.233 138.145 139.259 138.322 139.259C138.394 139.259 138.453 139.259 138.511 139.246C137.806 139.978 136.538 141.99 134.722 145.296C132.899 148.602 131.155 151.96 129.482 155.37C130.586 153.985 131.579 152.901 132.461 152.123C133.343 151.346 134.421 150.614 135.689 149.915C136.956 149.216 137.891 148.876 138.479 148.876C138.622 148.876 138.746 148.902 138.864 148.948C135.97 154.031 134.526 157.357 134.526 158.931C134.526 159.591 134.761 159.918 135.232 159.918C136.336 159.918 137.904 157.847 139.922 153.711C140.06 153.443 140.184 153.306 140.295 153.306C140.321 153.306 140.341 153.306 140.367 153.325C140.497 153.397 140.563 153.489 140.563 153.606C140.563 153.724 140.426 154.057 140.158 154.613C139.89 155.168 139.615 155.697 139.348 156.2C139.08 156.71 138.681 157.37 138.165 158.193C137.08 159.839 135.931 160.662 134.709 160.662C133.912 160.662 133.272 160.336 132.801 159.676C132.592 159.369 132.481 158.951 132.481 158.422C132.481 157.892 132.599 157.252 132.834 156.501C133.069 155.749 133.716 154.528 134.774 152.829C135.036 152.404 135.16 152.071 135.16 151.823C135.16 151.575 134.957 151.45 134.559 151.45C134.16 151.45 133.396 151.98 132.265 153.038C130.573 154.593 128.927 156.919 127.326 160.022C127.163 160.375 126.725 160.551 126.019 160.551C125.386 160.597 124.987 160.669 124.817 160.76C129.286 151.47 132.52 144.989 134.519 141.324C134.964 140.5 135.362 139.925 135.702 139.592C136.042 139.259 136.447 139.096 136.917 139.096M140.282 138.364L138.433 138.599C138.433 138.599 138.368 138.599 138.328 138.599C138.191 138.599 138.002 138.58 137.773 138.547C137.231 138.462 137.035 138.449 136.93 138.449C136.283 138.449 135.722 138.678 135.258 139.128C134.866 139.507 134.441 140.128 133.958 141.017C131.958 144.682 128.692 151.228 124.242 160.486L123.334 162.374L125.157 161.335C125.157 161.335 125.34 161.264 126.059 161.211C127.026 161.211 127.653 160.904 127.934 160.303C129.476 157.304 131.096 155.018 132.723 153.521C133.657 152.646 134.154 152.313 134.395 152.182C134.356 152.267 134.297 152.365 134.225 152.489C133.128 154.24 132.474 155.488 132.22 156.305C131.965 157.128 131.834 157.82 131.834 158.422C131.834 159.081 131.978 159.63 132.265 160.048C132.86 160.885 133.703 161.316 134.709 161.316C136.159 161.316 137.505 160.388 138.714 158.552C139.256 157.69 139.648 157.023 139.922 156.507C140.19 156.004 140.471 155.462 140.746 154.9C141.144 154.09 141.216 153.815 141.216 153.606C141.216 153.247 141.02 152.933 140.68 152.751C140.563 152.685 140.432 152.653 140.295 152.653C139.727 152.653 139.433 153.227 139.341 153.423C136.623 158.99 135.441 159.271 135.232 159.271C135.232 159.271 135.225 159.271 135.218 159.271C135.205 159.225 135.179 159.127 135.179 158.938C135.179 157.938 135.918 155.449 139.432 149.275L139.805 148.621L139.099 148.347C138.903 148.269 138.694 148.229 138.472 148.229C137.76 148.229 136.773 148.589 135.369 149.353C134.108 150.039 133.017 150.784 132.122 151.555C133.147 149.556 134.206 147.57 135.284 145.623C137.505 141.592 138.518 140.18 138.975 139.71L140.269 138.371L140.282 138.364Z" fill="#F2F2EA"/>
</g>
</g>
<g id="Group_7">
<path id="Vector_13" d="M79.0674 78.7571L57.1701 74.6192V71.4402H58.1735V68.3501H63.4036V71.4402H65.4904V68.3856H70.7116V70.3836H76.9807V68.3235H84.2887V69.3535H86.3754V67.3201H90.5311V69.3535H110.404V67.3201H114.577V69.3535H116.673V68.3057H123.981V70.4013H130.25V68.3057H135.471V71.4402H137.567V68.3501H142.779V71.4402H143.827V74.5748L121.894 78.7571H79.0674Z" fill="#FDFDFB"/>
<path id="Vector_14" d="M61.752 45.334H59.6653V69.3536H61.752V45.334Z" fill="#FDFDFB"/>
<path id="Vector_15" d="M141.296 45.334H139.21V69.3536H141.296V45.334Z" fill="#FDFDFB"/>
<path id="Vector_16" d="M68.6247 47.4207H67.577V71.4402H68.6247V47.4207Z" fill="#FDFDFB"/>
<path id="Vector_17" d="M133.385 46.373H132.337V70.3926H133.385V46.373Z" fill="#FDFDFB"/>
<path id="Vector_18" d="M81.7578 46.373H79.1827V70.3926H81.7578V46.373Z" fill="#FDFDFB"/>
<path id="Vector_19" d="M121.699 46.373H119.204V70.3926H121.699V46.373Z" fill="#FDFDFB"/>
<path id="Vector_20" d="M89.3679 46.373H87.8672V70.3926H89.3679V46.373Z" fill="#FDFDFB"/>
<path id="Vector_21" d="M113.094 45.929H111.505V69.9485H113.094V45.929Z" fill="#FDFDFB"/>
<path id="Vector_22" d="M101 52.6421C102.731 52.6421 104.135 51.2387 104.135 49.5076C104.135 47.7764 102.731 46.373 101 46.373C99.269 46.373 97.8656 47.7764 97.8656 49.5076C97.8656 51.2387 99.269 52.6421 101 52.6421Z" fill="#FDFDFB"/>
<path id="Vector_23" d="M75.5687 52.6421C77.0105 52.6421 78.1793 51.2387 78.1793 49.5076C78.1793 47.7764 77.0105 46.373 75.5687 46.373C74.1269 46.373 72.9581 47.7764 72.9581 49.5076C72.9581 51.2387 74.1269 52.6421 75.5687 52.6421Z" fill="#FDFDFB"/>
<path id="Vector_24" d="M125.393 52.6421C126.835 52.6421 128.004 51.2387 128.004 49.5076C128.004 47.7764 126.835 46.373 125.393 46.373C123.951 46.373 122.782 47.7764 122.782 49.5076C122.782 51.2387 123.951 52.6421 125.393 52.6421Z" fill="#FDFDFB"/>
<g id="Group_8">
<path id="Vector_25" d="M108.317 27.5747L116.673 30.283L84.2886 30.3452L92.6444 27.5747H108.317Z" fill="#FDFDFB"/>
<path id="Vector_26" d="M108.317 27.5747H92.6445L54 40.397V43.2385L63.4036 47.4208H137.558L146.962 43.2385V40.1128L108.317 27.5747Z" fill="#FDFDFB"/>
</g>
<path id="Vector_27" d="M101.027 50.5554H65.819L58.1736 46.3731L75.7554 43.2385H125.198L142.779 46.3731L135.187 50.5554H101.027Z" fill="#FDFDFB"/>
<path id="Vector_28" d="M58.1736 46.3731V42.1996L76.9808 37.9995H123.981L142.779 42.1996V46.3731L123.457 43.7624H77.5047L58.1736 46.3731Z" fill="#FDFDFB" stroke="#6699CC" stroke-width="0.525783" stroke-miterlimit="10"/>
<g id="Group_9">
<path id="Vector_29" d="M84.6263 23.1081L83.5785 23.0726V21.6163L101 14.3616L117.383 21.5275V23.1347H116.336V29.83L108.371 27.246H92.5914L84.6263 29.8833V23.1081Z" fill="#FDFDFB"/>
<path id="Vector_30" d="M100.991 14.7168L117.046 21.7407V22.7973H115.998V29.3683L108.513 26.9442L108.415 26.9086H92.538L92.4314 26.9442L84.9547 29.4305V22.7885L84.3065 22.7707H83.9069V21.8472L100.991 14.7257M101 13.9976L83.241 21.3943V23.3923L84.2887 23.4278V30.3451L92.6446 27.5746H108.308L116.664 30.2829V23.4633H117.712V21.3056L101 13.9976Z" fill="#698CB4"/>
</g>
<path id="Vector_31" d="M101 25.4878C102.731 25.4878 104.135 24.0844 104.135 22.3533C104.135 20.6221 102.731 19.2188 101 19.2188C99.269 19.2188 97.8656 20.6221 97.8656 22.3533C97.8656 24.0844 99.269 25.4878 101 25.4878Z" fill="#698CB4"/>
<path id="Vector_32" d="M107.269 43.2385H93.6923V44.2863H107.269V43.2385Z" fill="#FDFDFB"/>
<path id="Vector_33" d="M95.1752 41.4358C95.1752 44.7479 97.7503 47.4385 100.92 47.4385C104.09 47.4385 106.666 44.7479 106.666 41.4358" stroke="#6699CC" stroke-width="0.701045" stroke-miterlimit="10"/>
<path id="Vector_34" d="M98.3098 41.8708C98.3098 43.3804 99.4819 44.5969 100.92 44.5969C102.359 44.5969 103.531 43.3715 103.531 41.8708" stroke="#6699CC" stroke-width="0.701045" stroke-miterlimit="10"/>
<path id="Vector_35" d="M137.123 44.2658L128.462 43.2515L128.219 45.324L136.88 46.3384L137.123 44.2658Z" fill="#FDFDFB"/>
<g id="Group_10">
<path id="Vector_36" d="M136.253 43.9577C136.102 45.6893 134.761 47.0834 133.038 47.0656C131.023 47.0478 129.273 45.1476 129.469 42.8389" stroke="#6699CC" stroke-width="0.525783" stroke-miterlimit="10"/>
<path id="Vector_37" d="M134.743 43.9577C134.672 44.8013 133.997 45.4317 133.18 45.3696C132.31 45.2985 131.626 44.4549 131.706 43.4871" stroke="#6699CC" stroke-width="0.525783" stroke-miterlimit="10"/>
</g>
<path id="Vector_38" d="M72.8597 43.8762L63.5895 45.0276L63.7537 46.3494L73.0239 45.198L72.8597 43.8762Z" fill="#FDFDFB"/>
<g id="Group_11">
<path id="Vector_39" d="M64.7001 43.9577C64.851 45.6893 66.1919 47.0834 67.9145 47.0656C69.9302 47.0478 71.6795 45.1476 71.4842 42.8389" stroke="#6699CC" stroke-width="0.525783" stroke-miterlimit="10"/>
<path id="Vector_40" d="M66.2094 43.9577C66.2804 44.8013 66.9553 45.4317 67.7722 45.3696C68.6424 45.2985 69.3261 44.4549 69.2462 43.4871" stroke="#6699CC" stroke-width="0.525783" stroke-miterlimit="10"/>
</g>
</g>
<g id="Group_12">
<path id="Vector_41" d="M76.1994 98.8437C75.7225 100.438 74.5465 101.647 72.4166 101.647C69.5288 101.647 68 99.3468 68 96.5178C68 93.6889 69.4961 91.3303 72.4296 91.3303C74.5987 91.3303 75.8793 92.539 76.2125 94.2181H75.435C74.9777 92.9114 74.1283 92.049 72.3904 92.049C69.8881 92.049 68.8363 94.3357 68.8363 96.5048C68.8363 98.6739 69.8686 100.934 72.4427 100.934C74.0826 100.934 74.9123 100.085 75.4154 98.8503H76.1929L76.1994 98.8437Z" fill="#6699CC"/>
<path id="Vector_42" d="M81.1256 91.4675V101.529H80.3481V91.4675H81.1256Z" fill="#6699CC"/>
<path id="Vector_43" d="M88.0836 92.1862H84.7059V91.4675H92.265V92.1862H88.8742V101.529H88.0836V92.1862Z" fill="#6699CC"/>
<path id="Vector_44" d="M98.8768 101.529V97.7461C98.8768 97.6612 98.8507 97.5566 98.818 97.5174L95.2246 91.4675H96.1328C97.1389 93.1793 98.8898 96.152 99.3211 96.9033C99.7523 96.1585 101.523 93.2119 102.601 91.4675H103.463L99.7131 97.5762C99.6869 97.635 99.6673 97.6938 99.6673 97.7918V101.529H98.8768Z" fill="#6699CC"/>
<path id="Vector_45" d="M121.012 96.4263C121.012 99.1703 119.542 101.673 116.439 101.673C113.61 101.673 111.95 99.3859 111.95 96.4982C111.95 93.6104 113.544 91.3237 116.537 91.3237C119.294 91.3237 121.005 93.4928 121.005 96.4263H121.012ZM112.793 96.459C112.793 98.7718 114.073 100.96 116.484 100.96C119.085 100.96 120.182 98.8306 120.182 96.4459C120.182 94.0612 118.947 92.0489 116.517 92.0489C113.93 92.0489 112.793 94.1919 112.793 96.459Z" fill="#6699CC"/>
<path id="Vector_46" d="M125.206 91.4675H131.302V92.1862H125.984V95.9821H130.975V96.7008H125.984V101.529H125.206V91.4675Z" fill="#6699CC"/>
</g>
<g id="Group_13">
<g id="Group_14">
<path id="Vector_47" d="M52.2707 57.7604C52.2707 57.7604 52.2634 57.7096 52.2562 57.6807C50.858 51.5227 43.0121 48.0598 34.7315 49.9434C26.4726 51.8198 20.9015 58.3109 22.2635 64.4544C22.2635 64.4689 22.2635 64.4834 22.2707 64.4978C22.278 64.5341 22.2925 64.5775 22.2997 64.6138C22.2852 64.5558 22.2852 64.5051 22.278 64.4471C22.2345 63.7661 22.7634 63.1141 23.5458 62.9403C24.2847 62.7736 24.9947 63.0779 25.2917 63.643C25.5018 62.962 26.7334 62.2158 28.3272 61.8536C29.9862 61.4768 31.4786 61.6507 31.8916 62.223C32.1814 61.4841 34.304 60.4916 36.9845 59.883C39.665 59.2745 41.9978 59.2527 42.5846 59.7888C42.7005 59.0934 43.9176 58.3037 45.5114 57.9415C47.0473 57.5937 48.431 57.7459 48.8947 58.2747C48.9309 57.6372 49.496 57.0359 50.2929 56.8548C51.1912 56.6519 52.0461 57.0504 52.2562 57.7604C52.2562 57.7748 52.2634 57.7893 52.2707 57.7966C52.2707 57.7821 52.2707 57.7676 52.2634 57.7531L52.2707 57.7604Z" fill="#FDFDFB"/>
<path id="Vector_48" d="M52.2707 57.7603C52.2707 57.7603 52.2634 57.7096 52.2562 57.6807C50.858 51.5227 43.0121 48.0598 34.7315 49.9434C26.4726 51.8198 20.9015 58.3109 22.2635 64.4544C22.2635 64.4689 22.2635 64.4834 22.2707 64.4978C22.278 64.5341 22.2925 64.5775 22.2997 64.6138C22.2852 64.5558 22.2852 64.5051 22.278 64.4471C22.2345 63.7661 22.7634 63.1141 23.5458 62.9403C24.2847 62.7736 24.9947 63.0779 25.2917 63.643C25.5018 62.962 26.7334 62.2158 28.3272 61.8536C29.9862 61.4768 31.4786 61.6507 31.8916 62.223C32.1814 61.4841 34.304 60.4916 36.9845 59.883C39.665 59.2745 41.9978 59.2527 42.5846 59.7888C42.7005 59.0934 43.9176 58.3037 45.5114 57.9415C47.0473 57.5937 48.431 57.7459 48.8947 58.2747C48.9309 57.6372 49.496 57.0359 50.2929 56.8548C51.1912 56.6519 52.0461 57.0504 52.2562 57.7603C52.2562 57.7748 52.2634 57.7893 52.2707 57.7966C52.2707 57.7821 52.2707 57.7676 52.2634 57.7531L52.2707 57.7603Z" stroke="#FDFDFB" stroke-width="0.701045" stroke-miterlimit="10"/>
</g>
<path id="Vector_49" d="M42.8528 84.1451L42.3312 84.2683L34.2607 49.9723L34.775 49.8491L42.8528 84.1451Z" fill="#FDFDFB" stroke="#FDFDFB" stroke-width="0.701045" stroke-miterlimit="10"/>
</g>
</g>
</svg>
