<svg width="48" height="49" viewBox="0 0 48 49" fill="none" xmlns="http://www.w3.org/2000/svg">
<g id="category">
<path id="Vector" fill-rule="evenodd" clip-rule="evenodd" d="M11.8372 4.9082H13.8956C14.9639 4.90818 15.8556 4.90816 16.5841 4.96768C17.3439 5.02976 18.0572 5.16398 18.7317 5.50766C19.7666 6.03496 20.608 6.87636 21.1352 7.91126C21.479 8.58578 21.6132 9.2991 21.6752 10.0589C21.7348 10.7873 21.7348 11.679 21.7348 12.7473V14.8058C21.7348 15.8741 21.7348 16.7658 21.6752 17.4942C21.6132 18.254 21.479 18.9673 21.1352 19.6419C20.608 20.6767 19.7666 21.5182 18.7317 22.0454C18.0572 22.3892 17.3439 22.5234 16.5841 22.5854C15.8556 22.645 14.9639 22.645 13.8957 22.645H11.8371C10.7688 22.645 9.87717 22.645 9.14871 22.5854C8.38895 22.5234 7.67563 22.3892 7.00111 22.0454C5.96621 21.5182 5.12481 20.6767 4.59751 19.6419C4.25383 18.9673 4.11961 18.254 4.05753 17.4942C3.99801 16.7658 3.99803 15.8741 3.99805 14.8058V12.7473C3.99803 11.679 3.99801 10.7873 4.05753 10.0589C4.11961 9.2991 4.25383 8.58578 4.59751 7.91126C5.12481 6.87636 5.96621 6.03496 7.00111 5.50766C7.67563 5.16398 8.38895 5.02976 9.14871 4.96768C9.87717 4.90816 10.7689 4.90818 11.8372 4.9082ZM9.39301 7.95772C8.81877 8.00464 8.54419 8.0884 8.36307 8.18068C7.89267 8.42036 7.51021 8.80282 7.27053 9.27322C7.17825 9.45434 7.09449 9.72892 7.04757 10.3032C6.99921 10.8949 6.99805 11.6633 6.99805 12.8082V14.7449C6.99805 15.8898 6.99921 16.6582 7.04757 17.2499C7.09449 17.8242 7.17825 18.0988 7.27053 18.2799C7.51021 18.7503 7.89267 19.1327 8.36307 19.3724C8.54419 19.4647 8.81877 19.5485 9.39301 19.5954C9.98477 19.6437 10.7532 19.6449 11.898 19.6449H13.8347C14.9796 19.6449 15.748 19.6437 16.3398 19.5954C16.914 19.5485 17.1886 19.4647 17.3697 19.3724C17.8401 19.1327 18.2226 18.7503 18.4623 18.2799C18.5545 18.0988 18.6383 17.8242 18.6852 17.2499C18.7336 16.6582 18.7347 15.8898 18.7347 14.7449V12.8082C18.7347 11.6633 18.7336 10.8949 18.6852 10.3032C18.6383 9.72892 18.5545 9.45434 18.4623 9.27322C18.2226 8.80282 17.8401 8.42036 17.3697 8.18068C17.1886 8.0884 16.914 8.00464 16.3398 7.95772C15.748 7.90936 14.9796 7.9082 13.8347 7.9082H11.898C10.7532 7.9082 9.98477 7.90936 9.39301 7.95772ZM34.1004 4.9082H36.1588C37.2272 4.90818 38.1188 4.90816 38.8472 4.96768C39.607 5.02976 40.3204 5.16398 40.9948 5.50766C42.0298 6.03496 42.8712 6.87636 43.3984 7.91126C43.7422 8.58578 43.8764 9.2991 43.9384 10.0589C43.998 10.7873 43.998 11.679 43.998 12.7473V14.8058C43.998 15.8741 43.998 16.7658 43.9384 17.4942C43.8764 18.254 43.7422 18.9673 43.3984 19.6419C42.8712 20.6767 42.0298 21.5182 40.9948 22.0454C40.3204 22.3892 39.607 22.5234 38.8472 22.5854C38.1188 22.645 37.2272 22.645 36.1588 22.645H34.1004C33.032 22.645 32.1404 22.645 31.412 22.5854C30.6522 22.5234 29.9388 22.3892 29.2642 22.0454C28.2294 21.5182 27.388 20.6767 26.8608 19.6419C26.517 18.9673 26.3828 18.254 26.3208 17.4942C26.2612 16.7658 26.2612 15.8741 26.2612 14.8058V12.7473C26.2612 11.679 26.2612 10.7873 26.3208 10.0589C26.3828 9.2991 26.517 8.58578 26.8608 7.91126C27.388 6.87636 28.2294 6.03496 29.2642 5.50766C29.9388 5.16398 30.6522 5.02976 31.412 4.96768C32.1404 4.90816 33.032 4.90818 34.1004 4.9082ZM31.6562 7.95772C31.082 8.00464 30.8074 8.0884 30.6262 8.18068C30.1558 8.42036 29.7734 8.80282 29.5338 9.27322C29.4414 9.45434 29.3576 9.72892 29.3108 10.3032C29.2624 10.8949 29.2612 11.6633 29.2612 12.8082V14.7449C29.2612 15.8898 29.2624 16.6582 29.3108 17.2499C29.3576 17.8242 29.4414 18.0988 29.5338 18.2799C29.7734 18.7503 30.1558 19.1327 30.6262 19.3724C30.8074 19.4647 31.082 19.5485 31.6562 19.5954C32.248 19.6437 33.0164 19.6449 34.1612 19.6449H36.098C37.2428 19.6449 38.0112 19.6437 38.603 19.5954C39.1772 19.5485 39.4518 19.4647 39.633 19.3724C40.1034 19.1327 40.4858 18.7503 40.7254 18.2799C40.8178 18.0988 40.9016 17.8242 40.9484 17.2499C40.9968 16.6582 40.998 15.8898 40.998 14.7449V12.8082C40.998 11.6633 40.9968 10.8949 40.9484 10.3032C40.9016 9.72892 40.8178 9.45434 40.7254 9.27322C40.4858 8.80282 40.1034 8.42036 39.633 8.18068C39.4518 8.0884 39.1772 8.00464 38.603 7.95772C38.0112 7.90936 37.2428 7.9082 36.098 7.9082H34.1612C33.0164 7.9082 32.248 7.90936 31.6562 7.95772ZM11.8371 27.1714H13.8956C14.9639 27.1714 15.8556 27.1714 16.5841 27.231C17.3439 27.293 18.0572 27.4272 18.7317 27.771C19.7666 28.2982 20.608 29.1396 21.1352 30.1746C21.479 30.849 21.6132 31.5624 21.6752 32.3222C21.7348 33.0506 21.7348 33.9422 21.7348 35.0106V37.0692C21.7348 38.1374 21.7348 39.029 21.6752 39.7576C21.6132 40.5174 21.479 41.2306 21.1352 41.9052C20.608 42.94 19.7666 43.7814 18.7317 44.3088C18.0572 44.6524 17.3439 44.7866 16.5841 44.8488C15.8556 44.9082 14.9639 44.9082 13.8957 44.9082H11.8371C10.7688 44.9082 9.87717 44.9082 9.14871 44.8488C8.38895 44.7866 7.67563 44.6524 7.00111 44.3088C5.96621 43.7814 5.12481 42.94 4.59751 41.9052C4.25383 41.2306 4.11961 40.5174 4.05753 39.7576C3.99801 39.029 3.99803 38.1374 3.99805 37.069V35.0106C3.99803 33.9424 3.99801 33.0506 4.05753 32.3222C4.11961 31.5624 4.25383 30.849 4.59751 30.1746C5.12481 29.1396 5.96621 28.2982 7.00111 27.771C7.67563 27.4272 8.38895 27.293 9.14871 27.231C9.87717 27.1714 10.7688 27.1714 11.8371 27.1714ZM9.39301 30.221C8.81877 30.268 8.54419 30.3516 8.36307 30.444C7.89267 30.6836 7.51021 31.0662 7.27053 31.5366C7.17825 31.7176 7.09449 31.9922 7.04757 32.5664C6.99921 33.1582 6.99805 33.9266 6.99805 35.0716V37.0082C6.99805 38.153 6.99921 38.9214 7.04757 39.5132C7.09449 40.0874 7.17825 40.362 7.27053 40.5432C7.51021 41.0136 7.89267 41.396 8.36307 41.6358C8.54419 41.728 8.81877 41.8118 9.39301 41.8586C9.98477 41.907 10.7532 41.9082 11.898 41.9082H13.8347C14.9796 41.9082 15.748 41.907 16.3398 41.8586C16.914 41.8118 17.1886 41.728 17.3697 41.6358C17.8401 41.396 18.2226 41.0136 18.4623 40.5432C18.5545 40.362 18.6383 40.0874 18.6852 39.5132C18.7336 38.9214 18.7347 38.153 18.7347 37.0082V35.0714C18.7347 33.9266 18.7336 33.1582 18.6852 32.5664C18.6383 31.9922 18.5545 31.7176 18.4623 31.5366C18.2226 31.0662 17.8401 30.6836 17.3697 30.444C17.1886 30.3516 16.914 30.268 16.3398 30.221C15.748 30.1726 14.9796 30.1714 13.8347 30.1714H11.898C10.7532 30.1714 9.98477 30.1726 9.39301 30.221ZM34.1004 27.1714H36.1588C37.2272 27.1714 38.1188 27.1714 38.8472 27.231C39.607 27.293 40.3204 27.4272 40.9948 27.771C42.0298 28.2982 42.8712 29.1396 43.3984 30.1746C43.7422 30.849 43.8764 31.5624 43.9384 32.3222C43.998 33.0506 43.998 33.9424 43.998 35.0106V37.0692C43.998 38.1374 43.998 39.029 43.9384 39.7576C43.8764 40.5174 43.7422 41.2306 43.3984 41.9052C42.8712 42.94 42.0298 43.7814 40.9948 44.3088C40.3204 44.6524 39.607 44.7866 38.8472 44.8488C38.1188 44.9082 37.2272 44.9082 36.1588 44.9082H34.1004C33.032 44.9082 32.1404 44.9082 31.412 44.8488C30.6522 44.7866 29.9388 44.6524 29.2642 44.3088C28.2294 43.7814 27.388 42.94 26.8608 41.9052C26.517 41.2306 26.3828 40.5174 26.3208 39.7576C26.2612 39.029 26.2612 38.1374 26.2612 37.0692V35.0106C26.2612 33.9424 26.2612 33.0506 26.3208 32.3222C26.3828 31.5624 26.517 30.849 26.8608 30.1746C27.388 29.1396 28.2294 28.2982 29.2642 27.771C29.9388 27.4272 30.6522 27.293 31.412 27.231C32.1404 27.1714 33.032 27.1714 34.1004 27.1714ZM31.6562 30.221C31.082 30.268 30.8074 30.3516 30.6262 30.444C30.1558 30.6836 29.7734 31.0662 29.5338 31.5366C29.4414 31.7176 29.3576 31.9922 29.3108 32.5664C29.2624 33.1582 29.2612 33.9266 29.2612 35.0716V37.0082C29.2612 38.153 29.2624 38.9214 29.3108 39.5132C29.3576 40.0874 29.4414 40.362 29.5338 40.5432C29.7734 41.0136 30.1558 41.396 30.6262 41.6358C30.8074 41.728 31.082 41.8118 31.6562 41.8586C32.248 41.907 33.0164 41.9082 34.1612 41.9082H36.098C37.2428 41.9082 38.0112 41.907 38.603 41.8586C39.1772 41.8118 39.4518 41.728 39.633 41.6358C40.1034 41.396 40.4858 41.0136 40.7254 40.5432C40.8178 40.362 40.9016 40.0874 40.9484 39.5132C40.9968 38.9214 40.998 38.153 40.998 37.0082V35.0714C40.998 33.9266 40.9968 33.1582 40.9484 32.5664C40.9016 31.9922 40.8178 31.7176 40.7254 31.5366C40.4858 31.0662 40.1034 30.6836 39.633 30.444C39.4518 30.3516 39.1772 30.268 38.603 30.221C38.0112 30.1726 37.2428 30.1714 36.098 30.1714H34.1612C33.0164 30.1714 32.248 30.1726 31.6562 30.221Z" fill="#A8A8A8"/>
</g>
</svg>
