<svg width="56" height="56" viewBox="0 0 56 56" fill="none" xmlns="http://www.w3.org/2000/svg">
<g id="HandCoins" clip-path="url(#clip0_2616_471)">
<path id="Vector" opacity="0.2" d="M10.5 45.5H3.5C3.03587 45.5 2.59075 45.3156 2.26256 44.9874C1.93437 44.6592 1.75 44.2141 1.75 43.75V35C1.75 34.5359 1.93437 34.0908 2.26256 33.7626C2.59075 33.4344 3.03587 33.25 3.5 33.25H10.5V45.5Z" fill="#0F627D"/>
<path id="Vector_2" opacity="0.2" d="M44.625 12.25C43.7169 12.2505 42.8202 12.453 42 12.8428C41.9404 11.5291 41.4597 10.2695 40.6288 9.25024C39.7979 8.23097 38.6611 7.50616 37.3864 7.18302C36.1117 6.85988 34.7669 6.95556 33.5508 7.45592C32.3347 7.95627 31.3119 8.83474 30.6337 9.96138C29.9555 11.088 29.6579 12.403 29.7849 13.7119C29.912 15.0207 30.4569 16.254 31.339 17.2292C32.2212 18.2044 33.3938 18.8698 34.6835 19.1269C35.9731 19.3841 37.3112 19.2194 38.5 18.6572C38.5553 19.855 38.9609 21.0103 39.6666 21.9797C40.3723 22.9492 41.3471 23.6902 42.47 24.1108C43.5929 24.5314 44.8146 24.6132 45.9836 24.3459C47.1525 24.0787 48.2173 23.4742 49.0459 22.6074C49.8745 21.7406 50.4305 20.6497 50.6448 19.4699C50.8592 18.2901 50.7225 17.0733 50.2518 15.9705C49.7811 14.8676 48.997 13.9272 47.9967 13.2658C46.9965 12.6045 45.8241 12.2513 44.625 12.25Z" fill="#0F627D"/>
<path id="Vector_3" d="M44.625 24.5C48.0077 24.5 50.75 21.7577 50.75 18.375C50.75 14.9923 48.0077 12.25 44.625 12.25C41.2423 12.25 38.5 14.9923 38.5 18.375C38.5 21.7577 41.2423 24.5 44.625 24.5Z" stroke="#0F627D" stroke-width="2" stroke-linecap="round" stroke-linejoin="round"/>
<path id="Vector_4" d="M10.5 45.5H3.5C3.03587 45.5 2.59075 45.3156 2.26256 44.9874C1.93437 44.6592 1.75 44.2141 1.75 43.75V35C1.75 34.5359 1.93437 34.0908 2.26256 33.7626C2.59075 33.4344 3.03587 33.25 3.5 33.25H10.5" stroke="#0F627D" stroke-width="2" stroke-linecap="round" stroke-linejoin="round"/>
<path id="Vector_5" d="M24.5 35H31.5L46.1562 31.6291C46.6951 31.4814 47.2607 31.46 47.8092 31.5665C48.3577 31.673 48.8742 31.9046 49.3186 32.2432C49.763 32.5818 50.1233 33.0183 50.3716 33.5188C50.6199 34.0193 50.7493 34.5704 50.75 35.1291C50.7503 35.8037 50.5625 36.465 50.2078 37.0388C49.8531 37.6126 49.3454 38.0762 48.7419 38.3775L40.25 42L26.25 45.5H10.5V33.25L15.9688 27.7813C16.4576 27.2942 17.0376 26.9082 17.6757 26.6454C18.3138 26.3827 18.9974 26.2483 19.6875 26.25H30.625C31.7853 26.25 32.8981 26.711 33.7186 27.5314C34.5391 28.3519 35 29.4647 35 30.625C35 31.7853 34.5391 32.8981 33.7186 33.7186C32.8981 34.5391 31.7853 35 30.625 35H24.5Z" stroke="#0F627D" stroke-width="2" stroke-linecap="round" stroke-linejoin="round"/>
<path id="Vector_6" d="M38.5 18.6572C37.3112 19.2194 35.9731 19.3841 34.6835 19.1269C33.3938 18.8698 32.2212 18.2044 31.339 17.2292C30.4569 16.254 29.912 15.0207 29.7849 13.7119C29.6579 12.403 29.9555 11.088 30.6337 9.96138C31.3119 8.83474 32.3347 7.95627 33.5508 7.45592C34.7669 6.95556 36.1117 6.85988 37.3864 7.18302C38.6611 7.50616 39.7979 8.23097 40.6288 9.25024C41.4597 10.2695 41.9404 11.5291 42 12.8428" stroke="#0F627D" stroke-width="2" stroke-linecap="round" stroke-linejoin="round"/>
</g>
<defs>
<clipPath id="clip0_2616_471">
<rect width="56" height="56" fill="white"/>
</clipPath>
</defs>
</svg>
