<svg width="55" height="56" viewBox="0 0 55 56" fill="none" xmlns="http://www.w3.org/2000/svg">
<g id="handshake">
<mask id="mask0_5682_4813" style="mask-type:alpha" maskUnits="userSpaceOnUse" x="0" y="0" width="55" height="56">
<rect id="Bounding box" y="0.908203" width="55" height="55" fill="#D9D9D9"/>
</mask>
<g mask="url(#mask0_5682_4813)">
<path id="handshake_2" d="M27.2143 46.7412C27.3671 46.7412 27.5199 46.703 27.6727 46.6266C27.8254 46.5502 27.94 46.4739 28.0164 46.3975L46.8081 27.6058C47.2664 27.1475 47.6006 26.6318 47.8107 26.0589C48.0208 25.486 48.1258 24.9131 48.1258 24.3402C48.1258 23.7291 48.0208 23.1466 47.8107 22.5928C47.6006 22.039 47.2664 21.552 46.8081 21.1318L37.0685 11.3923C36.6484 10.9339 36.1614 10.5997 35.6076 10.3896C35.0537 10.1796 34.4713 10.0745 33.8602 10.0745C33.2872 10.0745 32.7143 10.1796 32.1414 10.3896C31.5685 10.5997 31.0529 10.9339 30.5945 11.3923L29.9643 12.0225L34.2039 16.3193C34.7768 16.8541 35.197 17.4652 35.4643 18.1527C35.7317 18.8402 35.8654 19.5659 35.8654 20.3298C35.8654 21.9339 35.3211 23.2803 34.2326 24.3688C33.144 25.4574 31.7977 26.0016 30.1935 26.0016C29.4296 26.0016 28.6944 25.8679 27.9878 25.6006C27.2812 25.3332 26.6605 24.9322 26.1258 24.3975L21.8289 20.1579L11.8029 30.1839C11.6883 30.2985 11.6023 30.4226 11.5451 30.5563C11.4878 30.69 11.4591 30.8332 11.4591 30.986C11.4591 31.2916 11.5737 31.5685 11.8029 31.8167C12.032 32.065 12.2994 32.1891 12.6049 32.1891C12.7577 32.1891 12.9105 32.1509 13.0633 32.0745C13.2161 31.9982 13.3306 31.9218 13.407 31.8454L21.1987 24.0537L24.407 27.262L16.6727 35.0537C16.5581 35.1683 16.4721 35.2924 16.4148 35.4261C16.3576 35.5598 16.3289 35.703 16.3289 35.8558C16.3289 36.1614 16.4435 36.4287 16.6727 36.6579C16.9018 36.887 17.1692 37.0016 17.4747 37.0016C17.6275 37.0016 17.7803 36.9634 17.9331 36.887C18.0859 36.8107 18.2004 36.7343 18.2768 36.6579L26.0685 28.9235L29.2768 32.1318L21.5424 39.9235C21.4279 39.9999 21.3419 40.1145 21.2846 40.2673C21.2273 40.42 21.1987 40.5728 21.1987 40.7256C21.1987 41.0311 21.3133 41.2985 21.5424 41.5277C21.7716 41.7568 22.039 41.8714 22.3445 41.8714C22.4973 41.8714 22.6405 41.8428 22.7742 41.7855C22.9079 41.7282 23.032 41.6423 23.1466 41.5277L30.9383 33.7933L34.1466 37.0016L26.3549 44.7933C26.2404 44.9079 26.1544 45.032 26.0971 45.1657C26.0398 45.2994 26.0112 45.4426 26.0112 45.5954C26.0112 45.9009 26.1353 46.1683 26.3836 46.3975C26.6319 46.6266 26.9088 46.7412 27.2143 46.7412ZM27.157 51.3245C25.7438 51.3245 24.493 50.8567 23.4044 49.9209C22.3159 48.9851 21.6761 47.8107 21.4852 46.3975C20.1865 46.2065 19.098 45.6718 18.2195 44.7933C17.3411 43.9148 16.8063 42.8263 16.6154 41.5277C15.3168 41.3367 14.2378 40.7924 13.3784 39.8949C12.519 38.9973 11.9938 37.9183 11.8029 36.6579C10.3515 36.4669 9.16745 35.8367 8.25078 34.7673C7.33412 33.6978 6.87578 32.4374 6.87578 30.986C6.87578 30.2221 7.01901 29.4869 7.30547 28.7803C7.59193 28.0737 8.00252 27.453 8.53724 26.9183L21.8289 13.6839L29.3341 21.1891C29.4105 21.3037 29.5251 21.3896 29.6779 21.4469C29.8306 21.5042 29.9834 21.5329 30.1362 21.5329C30.4799 21.5329 30.7664 21.4278 30.9956 21.2178C31.2247 21.0077 31.3393 20.7308 31.3393 20.387C31.3393 20.2343 31.3107 20.0815 31.2534 19.9287C31.1961 19.7759 31.1102 19.6614 30.9956 19.585L22.8029 11.3923C22.3827 10.9339 21.8957 10.5997 21.3419 10.3896C20.7881 10.1796 20.2056 10.0745 19.5945 10.0745C19.0216 10.0745 18.4487 10.1796 17.8758 10.3896C17.3029 10.5997 16.7872 10.9339 16.3289 11.3923L8.25078 19.5277C7.90703 19.8714 7.62057 20.2725 7.39141 20.7308C7.16224 21.1891 7.00946 21.6475 6.93307 22.1058C6.85668 22.5641 6.85668 23.032 6.93307 23.5094C7.00946 23.9869 7.16224 24.4357 7.39141 24.8558L4.06849 28.1787C3.41918 27.3002 2.94175 26.3358 2.6362 25.2855C2.33064 24.2351 2.21606 23.1752 2.29245 22.1058C2.36884 21.0364 2.6362 19.9956 3.09453 18.9834C3.55286 17.9712 4.18307 17.0641 4.98516 16.262L13.0633 8.18392C13.9799 7.30545 15.0016 6.63704 16.1284 6.17871C17.2551 5.72038 18.4105 5.49121 19.5945 5.49121C20.7786 5.49121 21.9339 5.72038 23.0607 6.17871C24.1874 6.63704 25.19 7.30545 26.0685 8.18392L26.6987 8.81413L27.3289 8.18392C28.2456 7.30545 29.2673 6.63704 30.394 6.17871C31.5207 5.72038 32.6761 5.49121 33.8602 5.49121C35.0442 5.49121 36.1996 5.72038 37.3263 6.17871C38.453 6.63704 39.4556 7.30545 40.3341 8.18392L50.0164 17.8662C50.8949 18.7447 51.5633 19.7568 52.0216 20.9027C52.48 22.0485 52.7091 23.2134 52.7091 24.3975C52.7091 25.5815 52.48 26.7369 52.0216 27.8636C51.5633 28.9903 50.8949 29.9929 50.0164 30.8714L31.2247 49.6058C30.69 50.1405 30.0694 50.5607 29.3628 50.8662C28.6562 51.1718 27.9209 51.3245 27.157 51.3245Z" fill="white"/>
</g>
</g>
</svg>
