<svg width="18" height="17" viewBox="0 0 18 17" fill="none" xmlns="http://www.w3.org/2000/svg">
<g id="house" clip-path="url(#clip0_5682_1494)">
<path id="Primary" d="M17.9937 8.39258C17.9937 8.95508 17.525 9.3957 16.9937 9.3957H15.9937L16.0156 14.402C16.0156 14.4863 16.0094 14.5707 16 14.6551V15.1582C16 15.8488 15.4406 16.4082 14.75 16.4082H14.25C14.2156 16.4082 14.1813 16.4082 14.1469 16.4051C14.1031 16.4082 14.0594 16.4082 14.0156 16.4082H13H12.25C11.5594 16.4082 11 15.8488 11 15.1582V14.4082V12.4082C11 11.8551 10.5531 11.4082 10 11.4082H8C7.44688 11.4082 7 11.8551 7 12.4082V14.4082V15.1582C7 15.8488 6.44063 16.4082 5.75 16.4082H5H4.00313C3.95625 16.4082 3.90937 16.4051 3.8625 16.402C3.825 16.4051 3.7875 16.4082 3.75 16.4082H3.25C2.55938 16.4082 2 15.8488 2 15.1582V11.6582C2 11.6301 2 11.5988 2.00312 11.5707V9.3957H1C0.4375 9.3957 0 8.9582 0 8.39258C0 8.11133 0.09375 7.86133 0.3125 7.64258L8.325 0.658203C8.54375 0.439453 8.79375 0.408203 9.0125 0.408203C9.23125 0.408203 9.48125 0.470703 9.66875 0.626953L17.65 7.64258C17.9 7.86133 18.025 8.11133 17.9937 8.39258Z" fill="#007854"/>
</g>
<defs>
<clipPath id="clip0_5682_1494">
<rect width="18" height="16" fill="white" transform="translate(0 0.408203)"/>
</clipPath>
</defs>
</svg>
