<svg width="57" height="56" viewBox="0 0 57 56" fill="none" xmlns="http://www.w3.org/2000/svg">
<g id="Gavel" clip-path="url(#clip0_531_8494)">
<path id="Vector" opacity="0.2" d="M27.3647 4.01141L13.3646 18.0115C12.6812 18.6949 12.6812 19.8029 13.3646 20.4863L16.865 23.9867C17.5485 24.6702 18.6565 24.6702 19.3399 23.9867L33.34 9.98669C34.0234 9.30327 34.0234 8.19523 33.34 7.51181L29.8396 4.01141C29.1561 3.328 28.0481 3.328 27.3647 4.01141Z" fill="#4B6E9A"/>
<path id="Vector_2" opacity="0.2" d="M46.6149 23.2614L32.6149 37.2615C31.9315 37.9449 31.9315 39.0529 32.6149 39.7363L36.1153 43.2367C36.7987 43.9202 37.9067 43.9202 38.5902 43.2367L52.5902 29.2367C53.2736 28.5533 53.2736 27.4452 52.5902 26.7618L49.0898 23.2614C48.4064 22.578 47.2983 22.578 46.6149 23.2614Z" fill="#4B6E9A"/>
<path id="Vector_3" d="M27.3647 4.01141L13.3646 18.0115C12.6812 18.6949 12.6812 19.8029 13.3646 20.4863L16.865 23.9867C17.5485 24.6702 18.6565 24.6702 19.3399 23.9867L33.34 9.98669C34.0234 9.30327 34.0234 8.19523 33.34 7.51181L29.8396 4.01141C29.1561 3.328 28.0481 3.328 27.3647 4.01141Z" stroke="#4B6E9A" stroke-width="2" stroke-linecap="round" stroke-linejoin="round"/>
<path id="Vector_4" d="M46.6149 23.2614L32.6149 37.2615C31.9315 37.9449 31.9315 39.0529 32.6149 39.7363L36.1153 43.2367C36.7987 43.9202 37.9067 43.9202 38.5902 43.2367L52.5902 29.2367C53.2736 28.5533 53.2736 27.4452 52.5902 26.7618L49.0898 23.2614C48.4064 22.578 47.2983 22.578 46.6149 23.2614Z" stroke="#4B6E9A" stroke-width="2" stroke-linecap="round" stroke-linejoin="round"/>
<path id="Vector_5" d="M32.4629 10.8631L45.7366 24.1369" stroke="#4B6E9A" stroke-width="2" stroke-linecap="round" stroke-linejoin="round"/>
<path id="Vector_6" d="M20.2129 23.1131L33.4866 36.3869" stroke="#4B6E9A" stroke-width="2" stroke-linecap="round" stroke-linejoin="round"/>
<path id="Vector_7" d="M29.4748 32.375L13.9435 47.9063C13.2465 48.6009 12.3026 48.9909 11.3185 48.9909C10.3345 48.9909 9.39057 48.6009 8.69354 47.9063C7.99892 47.2092 7.60889 46.2653 7.60889 45.2813C7.60889 44.2972 7.99892 43.3533 8.69354 42.6563L24.2248 27.125" stroke="#4B6E9A" stroke-width="2" stroke-linecap="round" stroke-linejoin="round"/>
</g>
<defs>
<clipPath id="clip0_531_8494">
<rect width="56" height="56" fill="white" transform="translate(0.599854)"/>
</clipPath>
</defs>
</svg>
