<svg width="57" height="56" viewBox="0 0 57 56" fill="none" xmlns="http://www.w3.org/2000/svg">
<g id="ReadCvLogo" clip-path="url(#clip0_531_8447)">
<path id="Vector" opacity="0.2" d="M46.2163 10.3156L17.7236 5.2813C16.7718 5.11314 15.8639 5.74836 15.6958 6.70012L9.16492 43.6629C8.99676 44.6147 9.63198 45.5225 10.5837 45.6907L39.0765 50.725C40.0282 50.8931 40.9361 50.2579 41.1043 49.3062L47.6351 12.3434C47.8033 11.3916 47.168 10.4838 46.2163 10.3156Z" fill="#D14619"/>
<path id="Vector_2" d="M46.2163 10.3156L17.7236 5.2813C16.7718 5.11314 15.8639 5.74836 15.6958 6.70012L9.16492 43.6629C8.99676 44.6147 9.63198 45.5225 10.5837 45.6907L39.0765 50.725C40.0282 50.8931 40.9361 50.2579 41.1043 49.3062L47.6351 12.3434C47.8033 11.3916 47.168 10.4838 46.2163 10.3156Z" stroke="#D14619" stroke-width="2" stroke-linecap="round" stroke-linejoin="round"/>
<path id="Vector_3" d="M21.6667 13.0834L39.8186 16.2903" stroke="#D14619" stroke-width="2" stroke-linecap="round" stroke-linejoin="round"/>
<path id="Vector_4" d="M38.6067 23.1831L20.4526 19.9784" stroke="#D14619" stroke-width="2" stroke-linecap="round" stroke-linejoin="round"/>
<path id="Vector_5" d="M28.3167 28.4747L19.2407 26.8712" stroke="#D14619" stroke-width="2" stroke-linecap="round" stroke-linejoin="round"/>
</g>
<defs>
<clipPath id="clip0_531_8447">
<rect width="56" height="56" fill="white" transform="translate(0.399902)"/>
</clipPath>
</defs>
</svg>
