<svg width="24" height="24" viewBox="0 0 24 24" fill="none" xmlns="http://www.w3.org/2000/svg">
<g id="IceCream" clip-path="url(#clip0_531_8726)">
<path id="Vector" opacity="0.2" d="M5.25 9C5.25 7.20979 5.96116 5.4929 7.22703 4.22703C8.4929 2.96116 10.2098 2.25 12 2.25C13.7902 2.25 15.5071 2.96116 16.773 4.22703C18.0388 5.4929 18.75 7.20979 18.75 9V9.75C19.1478 9.75 19.5294 9.90804 19.8107 10.1893C20.092 10.4706 20.25 10.8522 20.25 11.25C20.25 11.6478 20.092 12.0294 19.8107 12.3107C19.5294 12.592 19.1478 12.75 18.75 12.75H5.25C4.85218 12.75 4.47064 12.592 4.18934 12.3107C3.90804 12.0294 3.75 11.6478 3.75 11.25C3.75 10.8522 3.90804 10.4706 4.18934 10.1893C4.47064 9.90804 4.85218 9.75 5.25 9.75V9Z" fill="#261C02"/>
<path id="Vector_2" d="M5.25 9C5.25 7.20979 5.96116 5.4929 7.22703 4.22703C8.4929 2.96116 10.2098 2.25 12 2.25C13.7902 2.25 15.5071 2.96116 16.773 4.22703C18.0388 5.4929 18.75 7.20979 18.75 9V9.75C19.1478 9.75 19.5294 9.90804 19.8107 10.1893C20.092 10.4706 20.25 10.8522 20.25 11.25C20.25 11.6478 20.092 12.0294 19.8107 12.3107C19.5294 12.592 19.1478 12.75 18.75 12.75H5.25C4.85218 12.75 4.47064 12.592 4.18934 12.3107C3.90804 12.0294 3.75 11.6478 3.75 11.25C3.75 10.8522 3.90804 10.4706 4.18934 10.1893C4.47064 9.90804 4.85218 9.75 5.25 9.75V9Z" stroke="#261C02" stroke-linecap="round" stroke-linejoin="round"/>
<path id="Vector_3" d="M13.768 20.1562L9.53516 12.75" stroke="#261C02" stroke-linecap="round" stroke-linejoin="round"/>
<path id="Vector_4" d="M15.535 17.0625L13.0713 12.75" stroke="#261C02" stroke-linecap="round" stroke-linejoin="round"/>
<path id="Vector_5" d="M18.0063 12.75L12.656 22.125C12.5904 22.24 12.4956 22.3356 12.3812 22.402C12.2668 22.4685 12.1368 22.5036 12.0044 22.5036C11.8721 22.5036 11.7421 22.4685 11.6276 22.402C11.5132 22.3356 11.4184 22.24 11.3529 22.125L5.99316 12.75" stroke="#261C02" stroke-linecap="round" stroke-linejoin="round"/>
</g>
<defs>
<clipPath id="clip0_531_8726">
<rect width="24" height="24" fill="white"/>
</clipPath>
</defs>
</svg>
