<svg width="56" height="56" viewBox="0 0 56 56" fill="none" xmlns="http://www.w3.org/2000/svg">
<g id="Island" clip-path="url(#clip0_2616_499)">
<path id="Vector" opacity="0.2" d="M11.375 35C13.7912 35 15.75 33.0412 15.75 30.625C15.75 28.2088 13.7912 26.25 11.375 26.25C8.95875 26.25 7 28.2088 7 30.625C7 33.0412 8.95875 35 11.375 35Z" fill="#D14619"/>
<path id="Vector_2" opacity="0.2" d="M5.25 49C5.25 49 14 42 28 42C42 42 50.75 49 50.75 49" fill="#D14619"/>
<path id="Vector_3" d="M5.25 49C5.25 49 14 42 28 42C42 42 50.75 49 50.75 49" stroke="#D14619" stroke-width="2" stroke-linecap="round" stroke-linejoin="round"/>
<path id="Vector_4" d="M38.5 15.75C21 24.5 28 42 28 42" stroke="#D14619" stroke-width="2" stroke-linecap="round" stroke-linejoin="round"/>
<path id="Vector_5" d="M38.5 15.75C38.5 15.75 34.7375 13.8731 30.625 14C26.8056 14.1247 22.6844 16.0103 21 22.75" stroke="#D14619" stroke-width="2" stroke-linecap="round" stroke-linejoin="round"/>
<path id="Vector_6" d="M38.5 15.75C38.5 15.75 35 2.07812 22.75 8.91406" stroke="#D14619" stroke-width="2" stroke-linecap="round" stroke-linejoin="round"/>
<path id="Vector_7" d="M50.75 29.75C50.75 15.75 38.5 15.75 38.5 15.75" stroke="#D14619" stroke-width="2" stroke-linecap="round" stroke-linejoin="round"/>
<path id="Vector_8" d="M38.5 15.75C38.5 15.75 42 4.17812 50.75 10.7909" stroke="#D14619" stroke-width="2" stroke-linecap="round" stroke-linejoin="round"/>
<path id="Vector_9" d="M40.2499 29.75C40.2499 29.75 45.1959 22.75 38.5109 15.75" stroke="#D14619" stroke-width="2" stroke-linecap="round" stroke-linejoin="round"/>
<path id="Vector_10" d="M11.375 35C13.7912 35 15.75 33.0412 15.75 30.625C15.75 28.2088 13.7912 26.25 11.375 26.25C8.95875 26.25 7 28.2088 7 30.625C7 33.0412 8.95875 35 11.375 35Z" stroke="#D14619" stroke-width="2" stroke-linecap="round" stroke-linejoin="round"/>
</g>
<defs>
<clipPath id="clip0_2616_499">
<rect width="56" height="56" fill="white"/>
</clipPath>
</defs>
</svg>
