<svg width="25" height="24" viewBox="0 0 25 24" fill="none" xmlns="http://www.w3.org/2000/svg">
<g id="Linked_page" clip-path="url(#clip0_531_8230)">
<g id="XMLID_801_">
<path id="XMLID_802_" d="M6.05865 7.72095H1.24061C1.02678 7.72095 0.853516 7.89429 0.853516 8.10804V23.5863C0.853516 23.8002 1.02678 23.9734 1.24061 23.9734H6.05865C6.27248 23.9734 6.44575 23.8002 6.44575 23.5863V8.10804C6.44575 7.89429 6.27248 7.72095 6.05865 7.72095Z" fill="#261C02"/>
<path id="XMLID_803_" d="M3.65196 0.0263672C1.89888 0.0263672 0.472656 1.45104 0.472656 3.20219C0.472656 4.95411 1.89888 6.37932 3.65196 6.37932C5.40365 6.37932 6.82871 4.95403 6.82871 3.20219C6.82879 1.45104 5.40365 0.0263672 3.65196 0.0263672Z" fill="#261C02"/>
<path id="XMLID_804_" d="M18.3149 7.3363C16.3798 7.3363 14.9493 8.16817 14.0817 9.11339V8.1081C14.0817 7.89434 13.9084 7.721 13.6946 7.721H9.08046C8.86662 7.721 8.69336 7.89434 8.69336 8.1081V23.5864C8.69336 23.8002 8.86662 23.9735 9.08046 23.9735H13.888C14.1018 23.9735 14.2751 23.8002 14.2751 23.5864V15.9282C14.2751 13.3476 14.976 12.3422 16.7749 12.3422C18.7341 12.3422 18.8898 13.954 18.8898 16.061V23.5865C18.8898 23.8003 19.0631 23.9736 19.2769 23.9736H24.0862C24.3 23.9736 24.4733 23.8003 24.4733 23.5865V15.0964C24.4733 11.2591 23.7416 7.3363 18.3149 7.3363Z" fill="#261C02"/>
</g>
</g>
<defs>
<clipPath id="clip0_531_8230">
<rect width="24" height="24" fill="white" transform="translate(0.472656)"/>
</clipPath>
</defs>
</svg>
