<svg width="41" height="40" viewBox="0 0 41 40" fill="none" xmlns="http://www.w3.org/2000/svg">
<g id="Linked_page" clip-path="url(#clip0_2522_5678)">
<g id="XMLID_801_">
<path id="XMLID_802_" d="M9.43078 12.8684H1.40072C1.04433 12.8684 0.755554 13.1573 0.755554 13.5136V39.3107C0.755554 39.6671 1.04433 39.9559 1.40072 39.9559H9.43078C9.78717 39.9559 10.0759 39.6671 10.0759 39.3107V13.5136C10.0759 13.1573 9.78717 12.8684 9.43078 12.8684Z" fill="#FDFDFB"/>
<path id="XMLID_803_" d="M5.41865 0.0439453C2.49684 0.0439453 0.119812 2.4184 0.119812 5.33698C0.119812 8.25685 2.49684 10.6322 5.41865 10.6322C8.33813 10.6322 10.7132 8.25672 10.7132 5.33698C10.7134 2.4184 8.33813 0.0439453 5.41865 0.0439453Z" fill="#FDFDFB"/>
<path id="XMLID_804_" d="M29.8558 12.2271C26.6307 12.2271 24.2465 13.6135 22.8005 15.1889V13.5134C22.8005 13.1571 22.5117 12.8682 22.1553 12.8682H14.4651C14.1087 12.8682 13.8199 13.1571 13.8199 13.5134V39.3105C13.8199 39.6669 14.1087 39.9557 14.4651 39.9557H22.4776C22.834 39.9557 23.1228 39.6669 23.1228 39.3105V26.5469C23.1228 22.2459 24.291 20.5703 27.2892 20.5703C30.5545 20.5703 30.814 23.2565 30.814 26.7682V39.3107C30.814 39.6671 31.1028 39.9558 31.4592 39.9558H39.4747C39.8311 39.9558 40.1198 39.6671 40.1198 39.3107V25.1605C40.1198 18.765 38.9003 12.2271 29.8558 12.2271Z" fill="#FDFDFB"/>
</g>
</g>
<defs>
<clipPath id="clip0_2522_5678">
<rect width="40" height="40" fill="white" transform="translate(0.119812)"/>
</clipPath>
</defs>
</svg>
