<svg width="20" height="21" viewBox="0 0 20 21" fill="none" xmlns="http://www.w3.org/2000/svg">
<g id="location_on">
<mask id="mask0_7674_575" style="mask-type:alpha" maskUnits="userSpaceOnUse" x="0" y="0" width="20" height="21">
<rect id="Bounding box" y="0.907715" width="20" height="20" fill="#003636"/>
</mask>
<g mask="url(#mask0_7674_575)">
<path id="location_on_2" d="M9.99967 10.9076C10.458 10.9076 10.8504 10.7444 11.1768 10.418C11.5031 10.0916 11.6663 9.69922 11.6663 9.24089C11.6663 8.78255 11.5031 8.39019 11.1768 8.0638C10.8504 7.73741 10.458 7.57422 9.99967 7.57422C9.54134 7.57422 9.14898 7.73741 8.82259 8.0638C8.4962 8.39019 8.33301 8.78255 8.33301 9.24089C8.33301 9.69922 8.4962 10.0916 8.82259 10.418C9.14898 10.7444 9.54134 10.9076 9.99967 10.9076ZM9.99967 17.0326C11.6941 15.477 12.9511 14.0638 13.7705 12.793C14.59 11.5221 14.9997 10.3937 14.9997 9.40755C14.9997 7.89366 14.517 6.65408 13.5518 5.6888C12.5865 4.72352 11.4025 4.24089 9.99967 4.24089C8.5969 4.24089 7.41287 4.72352 6.44759 5.6888C5.48231 6.65408 4.99967 7.89366 4.99967 9.40755C4.99967 10.3937 5.4094 11.5221 6.22884 12.793C7.04829 14.0638 8.30523 15.477 9.99967 17.0326ZM9.99967 19.2409C7.76356 17.3381 6.09342 15.5707 4.98926 13.9388C3.88509 12.3069 3.33301 10.7964 3.33301 9.40755C3.33301 7.32422 4.00315 5.6645 5.34342 4.42839C6.6837 3.19227 8.23579 2.57422 9.99967 2.57422C11.7636 2.57422 13.3156 3.19227 14.6559 4.42839C15.9962 5.6645 16.6663 7.32422 16.6663 9.40755C16.6663 10.7964 16.1143 12.3069 15.0101 13.9388C13.9059 15.5707 12.2358 17.3381 9.99967 19.2409Z" fill="#003636"/>
</g>
</g>
</svg>
