<svg width="110" height="48" viewBox="0 0 110 48" fill="none" xmlns="http://www.w3.org/2000/svg">
<g id="Group 2240">
<g id="REHOBOTH">
<path d="M8.63364 31.8744C8.4473 31.8744 8.32307 31.7865 8.26096 31.6108L5.40379 21.7913C5.38308 21.7254 5.34167 21.6925 5.27956 21.6925H3.10562C3.02281 21.6925 2.9814 21.7364 2.9814 21.8243V31.5449C2.9814 31.7645 2.87788 31.8744 2.67084 31.8744H0.310563C0.103521 31.8744 0 31.7645 0 31.5449V9.13804C0 8.91837 0.103521 8.80853 0.310563 8.80853H5.86963C6.92554 8.80853 7.85723 9.08312 8.66469 9.63231C9.47216 10.1815 10.0933 10.9613 10.5281 11.9718C10.9836 12.9604 11.2113 14.0917 11.2113 15.3658C11.2113 16.7498 10.9422 17.958 10.4038 18.9905C9.86553 20.001 9.13054 20.7369 8.19885 21.1982C8.13674 21.2641 8.11603 21.33 8.13674 21.3959L11.3045 31.5119L11.3355 31.6437C11.3355 31.7975 11.2424 31.8744 11.056 31.8744H8.63364ZM3.10562 11.5435C3.02281 11.5435 2.9814 11.5874 2.9814 11.6753V19.0564C2.9814 19.1442 3.02281 19.1882 3.10562 19.1882H5.40379C6.25266 19.1882 6.9359 18.8477 7.4535 18.1667C7.9711 17.4637 8.22991 16.5411 8.22991 15.3988C8.22991 14.2125 7.9711 13.2789 7.4535 12.5979C6.9359 11.895 6.25266 11.5435 5.40379 11.5435H3.10562Z" fill="#F26522"/>
<path d="M24.4762 11.214C24.4762 11.4336 24.3727 11.5435 24.1656 11.5435H17.178C17.0952 11.5435 17.0538 11.5874 17.0538 11.6753V18.8257C17.0538 18.9136 17.0952 18.9575 17.178 18.9575H21.4637C21.6708 18.9575 21.7743 19.0673 21.7743 19.287V21.3629C21.7743 21.5826 21.6708 21.6925 21.4637 21.6925H17.178C17.0952 21.6925 17.0538 21.7364 17.0538 21.8243V29.0076C17.0538 29.0955 17.0952 29.1394 17.178 29.1394H24.1656C24.3727 29.1394 24.4762 29.2493 24.4762 29.4689V31.5449C24.4762 31.7645 24.3727 31.8744 24.1656 31.8744H14.3829C14.1759 31.8744 14.0724 31.7645 14.0724 31.5449V9.13804C14.0724 8.91837 14.1759 8.80853 14.3829 8.80853H24.1656C24.3727 8.80853 24.4762 8.91837 24.4762 9.13804V11.214Z" fill="#F26522"/>
<path d="M35.3968 9.13804C35.3968 8.91837 35.5004 8.80853 35.7074 8.80853H38.0677C38.2747 8.80853 38.3782 8.91837 38.3782 9.13804V31.5449C38.3782 31.7645 38.2747 31.8744 38.0677 31.8744H35.7074C35.5004 31.8744 35.3968 31.7645 35.3968 31.5449V21.8243C35.3968 21.7364 35.3554 21.6925 35.2726 21.6925H30.5831C30.5003 21.6925 30.4589 21.7364 30.4589 21.8243V31.5449C30.4589 31.7645 30.3554 31.8744 30.1483 31.8744H27.7881C27.581 31.8744 27.4775 31.7645 27.4775 31.5449V9.13804C27.4775 8.91837 27.581 8.80853 27.7881 8.80853H30.1483C30.3554 8.80853 30.4589 8.91837 30.4589 9.13804V18.8257C30.4589 18.9136 30.5003 18.9575 30.5831 18.9575H35.2726C35.3554 18.9575 35.3968 18.9136 35.3968 18.8257V9.13804Z" fill="#F26522"/>
<path d="M47.4345 32.138C45.7368 32.138 44.3703 31.5888 43.3351 30.4904C42.2999 29.392 41.7823 27.9312 41.7823 26.1079V14.6079C41.7823 12.7846 42.2999 11.3238 43.3351 10.2254C44.3703 9.10509 45.7368 8.54492 47.4345 8.54492C49.153 8.54492 50.5298 9.10509 51.565 10.2254C52.6209 11.3238 53.1489 12.7846 53.1489 14.6079V26.1079C53.1489 27.9312 52.6209 29.392 51.565 30.4904C50.5298 31.5888 49.153 32.138 47.4345 32.138ZM47.4345 29.403C48.2627 29.403 48.9252 29.1175 49.4221 28.5463C49.919 27.9532 50.1675 27.1843 50.1675 26.2397V14.4432C50.1675 13.4986 49.919 12.7407 49.4221 12.1696C48.9252 11.5764 48.2627 11.2799 47.4345 11.2799C46.6271 11.2799 45.9749 11.5764 45.478 12.1696C45.0018 12.7407 44.7637 13.4986 44.7637 14.4432V26.2397C44.7637 27.1843 45.0018 27.9532 45.478 28.5463C45.9749 29.1175 46.6271 29.403 47.4345 29.403Z" fill="#F26522"/>
<path d="M67.8669 25.5807C67.8669 27.5797 67.3286 29.1284 66.2519 30.2268C65.196 31.3252 63.7985 31.8744 62.0594 31.8744H56.873C56.6659 31.8744 56.5624 31.7645 56.5624 31.5449V9.13804C56.5624 8.91837 56.6659 8.80853 56.873 8.80853H61.6246C63.5087 8.80853 64.9786 9.33575 66.0346 10.3902C67.1112 11.4227 67.6495 12.9384 67.6495 14.9375C67.6495 17.3099 66.8524 18.9465 65.2581 19.8472C65.1546 19.9131 65.1443 19.968 65.2271 20.0119C66.0553 20.5392 66.6971 21.2751 67.1526 22.2197C67.6288 23.1643 67.8669 24.2846 67.8669 25.5807ZM59.668 11.5435C59.5852 11.5435 59.5438 11.5874 59.5438 11.6753V18.6609C59.5438 18.7488 59.5852 18.7927 59.668 18.7927H61.6556C62.6287 18.7927 63.3844 18.4852 63.9227 17.8701C64.461 17.2331 64.7302 16.3544 64.7302 15.234C64.7302 14.0697 64.461 13.1691 63.9227 12.532C63.3844 11.873 62.6287 11.5435 61.6556 11.5435H59.668ZM61.8109 29.1065C62.7633 29.1065 63.5086 28.766 64.047 28.085C64.606 27.404 64.8855 26.4374 64.8855 25.1853C64.8855 23.9112 64.6163 22.9226 64.078 22.2197C63.5397 21.4947 62.7944 21.1323 61.842 21.1323H59.668C59.5852 21.1323 59.5438 21.1762 59.5438 21.2641V28.9747C59.5438 29.0625 59.5852 29.1065 59.668 29.1065H61.8109Z" fill="#F26522"/>
<path d="M75.9432 32.138C74.2455 32.138 72.879 31.5888 71.8438 30.4904C70.8086 29.392 70.291 27.9312 70.291 26.1079V14.6079C70.291 12.7846 70.8086 11.3238 71.8438 10.2254C72.879 9.10509 74.2455 8.54492 75.9432 8.54492C77.6616 8.54492 79.0385 9.10509 80.0737 10.2254C81.1296 11.3238 81.6575 12.7846 81.6575 14.6079V26.1079C81.6575 27.9312 81.1296 29.392 80.0737 30.4904C79.0385 31.5888 77.6616 32.138 75.9432 32.138ZM75.9432 29.403C76.7714 29.403 77.4339 29.1175 77.9308 28.5463C78.4277 27.9532 78.6761 27.1843 78.6761 26.2397V14.4432C78.6761 13.4986 78.4277 12.7407 77.9308 12.1696C77.4339 11.5764 76.7714 11.2799 75.9432 11.2799C75.1357 11.2799 74.4836 11.5764 73.9867 12.1696C73.5105 12.7407 73.2724 13.4986 73.2724 14.4432V26.2397C73.2724 27.1843 73.5105 27.9532 73.9867 28.5463C74.4836 29.1175 75.1357 29.403 75.9432 29.403Z" fill="#F26522"/>
<path d="M95.537 8.80853C95.7441 8.80853 95.8476 8.91837 95.8476 9.13804V11.214C95.8476 11.4336 95.7441 11.5435 95.537 11.5435H91.4687C91.3858 11.5435 91.3444 11.5874 91.3444 11.6753V31.5449C91.3444 31.7645 91.2409 31.8744 91.0339 31.8744H88.6736C88.4665 31.8744 88.363 31.7645 88.363 31.5449V11.6753C88.363 11.5874 88.3216 11.5435 88.2388 11.5435H84.3878C84.1808 11.5435 84.0773 11.4336 84.0773 11.214V9.13804C84.0773 8.91837 84.1808 8.80853 84.3878 8.80853H95.537Z" fill="#F26522"/>
<path d="M106.638 9.13804C106.638 8.91837 106.742 8.80853 106.949 8.80853H109.309C109.516 8.80853 109.62 8.91837 109.62 9.13804V31.5449C109.62 31.7645 109.516 31.8744 109.309 31.8744H106.949C106.742 31.8744 106.638 31.7645 106.638 31.5449V21.8243C106.638 21.7364 106.597 21.6925 106.514 21.6925H101.824C101.742 21.6925 101.7 21.7364 101.7 21.8243V31.5449C101.7 31.7645 101.597 31.8744 101.39 31.8744H99.0294C98.8224 31.8744 98.7188 31.7645 98.7188 31.5449V9.13804C98.7188 8.91837 98.8224 8.80853 99.0294 8.80853H101.39C101.597 8.80853 101.7 8.91837 101.7 9.13804V18.8257C101.7 18.9136 101.742 18.9575 101.824 18.9575H106.514C106.597 18.9575 106.638 18.9136 106.638 18.8257V9.13804Z" fill="#F26522"/>
</g>
<g id="Group">
<g id="Group_2">
<path id="Vector" d="M29.9896 47.7942C27.6903 47.7942 26.2391 47.1732 25.6784 45.9489C25.5464 45.6538 25.4805 45.3015 25.4805 44.9095C25.4805 44.4911 25.6972 44.0507 26.126 43.5971C26.7809 42.9145 27.6997 42.5709 28.8447 42.5709C29.5797 42.5709 30.2582 42.6722 30.8566 42.8704C31.4408 43.0642 32.1712 43.3813 33.0287 43.8129C33.7684 44.1872 34.348 44.4735 34.7532 44.6673C35.4458 44.0111 36.1714 43.1082 36.9159 41.9764C37.7028 40.7741 38.4095 39.5806 39.0032 38.4267C39.6063 37.264 40.3837 35.9472 41.3167 34.5203C42.2496 33.089 43.2202 31.8558 44.1908 30.8473L45.3593 29.6009C44.1484 29.4248 42.815 29.3367 41.3873 29.3367C39.7995 29.3367 38.0279 29.5349 36.1196 29.9268C33.5376 30.4377 31.5256 31.4859 30.1451 33.0405C29.3205 33.961 28.9012 34.8418 28.9012 35.6565C28.9012 36.7179 29.4383 37.3873 30.5409 37.7044C30.9367 37.8101 31.2901 37.863 31.5916 37.863C31.8932 37.863 32.2465 37.8101 32.647 37.7044C33.0287 37.6031 33.4103 37.3873 33.7826 37.057C34.1595 36.7179 34.4375 36.392 34.6024 36.0837C34.8145 35.6874 34.8427 35.5068 34.8427 35.4319C34.8427 35.1413 35.0312 34.9607 35.3327 34.9607C35.4929 34.9739 35.8133 35.0532 35.8463 35.498V35.5244V35.5729C35.6484 36.7972 34.9417 37.7353 33.7449 38.3694C33.0146 38.735 32.2748 38.92 31.5398 38.92L30.1781 38.7042C28.2463 38.0788 27.2851 36.9029 27.2851 35.2029C27.2851 34.0579 27.8269 32.9172 28.9012 31.8206C30.5927 30.0457 33.1041 28.9271 36.3693 28.4911C37.9336 28.2841 39.5827 28.1784 41.2743 28.1784C42.9658 28.1784 44.6432 28.3502 46.363 28.6849C46.82 28.3281 47.2299 28.0859 47.588 27.9582C48.1204 27.7688 48.2241 27.7556 48.2948 27.7556C48.3466 27.7556 48.4126 27.7556 48.4785 27.7864C48.6058 27.8041 48.6717 27.8745 48.7 27.9186C48.7612 28.0155 48.7565 28.13 48.6811 28.2621C48.6293 28.3546 48.5068 28.4999 48.0451 28.7818C47.9131 28.861 47.8142 28.9315 47.7435 28.9932C49.9109 29.5525 51.5129 30.3452 52.5024 31.3493C53.0866 31.9615 53.3788 32.6001 53.3788 33.2475C53.3788 33.8949 53.1809 34.5203 52.7851 35.1545C52.2668 35.9868 51.4234 36.621 50.2737 37.0438C49.4963 37.3301 48.7094 37.5283 47.9178 37.6384C48.6529 37.9202 49.3549 38.2638 50.0099 38.6645C51.3951 39.5101 52.1019 40.664 52.1019 42.0821C52.1019 43.0334 51.7344 43.9318 51.004 44.7421C49.9957 45.8784 48.634 46.7108 46.9519 47.2128C45.7127 47.5828 44.4924 47.7678 43.3192 47.7678C42.8857 47.7678 42.4569 47.7413 42.0423 47.6929C39.4273 47.3802 37.1703 46.8429 35.3327 46.0854C33.6506 47.2172 31.8555 47.7898 29.9849 47.7898L29.9896 47.7942ZM36.2939 45.3323C38.0891 45.9929 40.0304 46.4245 42.0705 46.6183C42.3862 46.6491 42.6831 46.6667 42.9611 46.6667C44.7987 46.6667 46.3724 46.1735 47.6446 45.1958C49.0251 44.1652 49.7224 43.0466 49.7224 41.8707C49.7224 40.6948 49.0439 39.7523 47.6398 39.1181C47.1074 38.8847 46.4478 38.6557 45.675 38.4267C44.8929 38.1977 44.2474 38.0039 43.7574 37.841C43.1872 37.656 42.8904 37.4798 42.7914 37.2684L42.7726 37.2244V37.1759C42.7726 36.9293 42.8998 36.5065 43.7385 36.4801C44.073 36.4801 44.5631 36.5021 45.2368 36.5506C45.7928 36.5902 46.2876 36.6122 46.7022 36.6122H46.9189C47.3571 36.6034 47.899 36.4493 48.5351 36.1586C49.1759 35.8635 49.7271 35.476 50.1842 35.0091C50.9051 34.2604 51.2679 33.5602 51.2679 32.9216C51.2679 31.5784 49.8732 30.583 47.1263 29.9577C46.2169 31.1512 44.629 33.569 42.3957 37.1583C40.0775 40.8886 38.2587 43.4253 36.996 44.7025L36.2845 45.3323H36.2939ZM28.9059 43.7512C28.4583 43.7512 28.1143 43.8922 27.8505 44.1828C27.5819 44.4823 27.45 44.7465 27.45 44.9712C27.45 45.2134 27.5112 45.4468 27.629 45.667C27.9636 46.3056 28.6609 46.6139 29.7587 46.6139C31.1864 46.6139 32.5387 46.2131 33.7779 45.4204C32.0204 44.6364 30.8801 44.1564 30.3948 43.9935C29.8954 43.8305 29.3959 43.7468 28.9106 43.7468L28.9059 43.7512Z" fill="#6699CC"/>
<path id="Vector_2" d="M48.3054 27.9747C48.3619 27.9747 48.4043 27.9835 48.4185 27.9967C48.5221 27.9967 48.541 28.0495 48.4797 28.1508C48.4185 28.2521 48.2347 28.4019 47.919 28.5912C47.6033 28.7806 47.4149 28.9568 47.3489 29.1153C49.6577 29.6702 51.3162 30.463 52.3339 31.4935C52.8758 32.0661 53.1491 32.6474 53.1491 33.2419C53.1491 33.8365 52.9606 34.4354 52.5884 35.0388C52.0984 35.8315 51.2974 36.4305 50.1948 36.8357C49.0923 37.2408 47.9803 37.4655 46.8636 37.5139C47.9473 37.831 48.9603 38.2758 49.8933 38.8439C51.2173 39.6543 51.8769 40.7289 51.8769 42.0765C51.8769 42.9794 51.5282 43.8205 50.8356 44.5956C49.8509 45.7055 48.5363 46.507 46.8919 47.0003C45.6715 47.3658 44.4842 47.5464 43.3298 47.5464C42.9057 47.5464 42.4911 47.5244 42.0812 47.4759C39.419 47.1588 37.1621 46.6127 35.3151 45.8332C33.6377 46.9915 31.8614 47.5684 29.9955 47.5684C27.7904 47.5684 26.424 47.0003 25.901 45.8552C25.7832 45.5866 25.722 45.2695 25.722 44.9039C25.722 44.5384 25.9152 44.1508 26.3062 43.7368C26.9188 43.1027 27.7669 42.7856 28.8506 42.7856C29.5621 42.7856 30.2076 42.8825 30.7824 43.0718C31.3572 43.2612 32.0734 43.5695 32.9215 44.0011C33.7696 44.4283 34.3963 44.7366 34.8062 44.9304C35.5507 44.2477 36.3234 43.3008 37.1197 42.0897C37.916 40.8786 38.618 39.6895 39.2211 38.5224C39.8243 37.3553 40.5923 36.0606 41.5252 34.6336C42.4581 33.2067 43.4099 31.9956 44.3758 30.9959L45.827 29.45C44.4889 29.2298 43.0094 29.1153 41.398 29.1153C39.7866 29.1153 38.0149 29.3135 36.0784 29.7099C33.4304 30.234 31.3949 31.2953 29.972 32.8984C29.105 33.8673 28.6762 34.7834 28.6762 35.6554C28.6762 36.8137 29.2794 37.5667 30.4808 37.9147C30.9049 38.0248 31.2771 38.082 31.6022 38.082C31.9274 38.082 32.2996 38.0248 32.7236 37.9147C33.1477 37.8046 33.5576 37.5711 33.9581 37.2144C34.3586 36.8577 34.646 36.5142 34.8251 36.1795C35.0041 35.8447 35.0936 35.5981 35.0936 35.4308C35.0936 35.2634 35.1785 35.1797 35.3481 35.1797C35.5177 35.1974 35.6119 35.3075 35.6261 35.5144V35.5365C35.4376 36.6947 34.778 37.5756 33.6424 38.1745C32.9451 38.5224 32.2525 38.6986 31.5551 38.6986L30.2311 38.4828C28.4312 37.8971 27.536 36.8004 27.536 35.2018C27.536 34.1095 28.0543 33.0305 29.0862 31.9692C30.7494 30.2252 33.1901 29.1374 36.4129 28.7102C37.9725 28.5032 39.5981 28.4019 41.2849 28.4019C42.9717 28.4019 44.6915 28.578 46.4395 28.926C46.9154 28.5472 47.3301 28.2918 47.6882 28.164C48.0463 28.0363 48.2536 27.9747 48.3101 27.9747M42.9764 46.8814C44.8752 46.8814 46.4867 46.3749 47.8107 45.3575C49.2525 44.2786 49.9734 43.1159 49.9734 41.8607C49.9734 40.6056 49.2336 39.5794 47.7588 38.91C47.217 38.6722 46.5479 38.4387 45.7611 38.2097C44.9742 37.9807 44.3381 37.7869 43.8528 37.6284C43.3675 37.4699 43.0942 37.3201 43.0282 37.1748C43.0282 36.8753 43.2732 36.7168 43.768 36.6991C44.0884 36.6991 44.5831 36.7212 45.2428 36.7696C45.8035 36.8092 46.2982 36.8313 46.727 36.8313C46.8023 36.8313 46.8777 36.8313 46.9484 36.8313C47.4243 36.8225 47.9944 36.6639 48.6635 36.3556C49.3326 36.0473 49.9074 35.6466 50.3786 35.1533C51.1419 34.3606 51.5235 33.6163 51.5235 32.916C51.5235 31.4275 50.0299 30.3573 47.0474 29.7055C46.1474 30.8637 44.536 33.308 42.2131 37.0427C39.8902 40.7773 38.0997 43.2788 36.8464 44.5472L35.8805 45.4016C37.7982 46.1459 39.8572 46.6215 42.0623 46.8285C42.3827 46.8593 42.689 46.877 42.9764 46.877M29.7694 46.8373C31.3808 46.8373 32.8744 46.3529 34.2455 45.3884C32.2619 44.4988 31.0039 43.9703 30.4808 43.7941C29.9531 43.6223 29.4348 43.5343 28.9165 43.5343C28.3983 43.5343 27.9883 43.706 27.6821 44.0451C27.3758 44.3842 27.225 44.6969 27.225 44.9744C27.225 45.2518 27.291 45.5161 27.4276 45.7715C27.7999 46.485 28.582 46.8417 29.7694 46.8417M48.3054 27.5343C48.2017 27.5343 48.0887 27.5475 47.5138 27.7545C47.151 27.8866 46.7552 28.1156 46.3076 28.4503C44.6114 28.1244 42.9199 27.9615 41.2802 27.9615C39.6405 27.9615 37.916 28.0672 36.3423 28.2741C33.0205 28.7146 30.4573 29.8596 28.7281 31.6741C27.6208 32.8103 27.0554 33.9994 27.0554 35.2018C27.0554 37.003 28.0684 38.2494 30.0709 38.9012L30.1086 38.9144H30.1463L31.4703 39.1346H31.508L31.5504 39.139C32.3231 39.139 33.1006 38.9452 33.8592 38.5621C35.1313 37.8882 35.8758 36.8929 36.0878 35.6025V35.5717L36.0925 35.5365V35.4792C36.0501 34.9771 35.7015 34.7702 35.3858 34.7393H35.3622H35.3387C34.9099 34.7393 34.6131 35.0212 34.6131 35.4308C34.6131 35.4572 34.6036 35.5937 34.3963 35.9813C34.2455 36.2675 33.9864 36.5758 33.6283 36.8929C33.289 37.1968 32.9404 37.3994 32.5917 37.4875C32.2101 37.5888 31.8755 37.6372 31.5975 37.6372C31.3195 37.6372 30.985 37.5844 30.6034 37.4875C29.6092 37.2012 29.1427 36.6155 29.1427 35.651C29.1427 34.8891 29.5432 34.0567 30.3301 33.1759C31.6776 31.6609 33.6471 30.6391 36.1726 30.1371C38.0668 29.7495 39.8243 29.5513 41.3933 29.5513C42.6419 29.5513 43.8151 29.6218 44.8988 29.7539L44.013 30.6964C43.033 31.7093 42.0576 32.9557 41.1153 34.3958C40.1776 35.8315 39.3955 37.1528 38.7924 38.3198C38.1987 39.4649 37.5014 40.654 36.7145 41.8475C36.0266 42.8957 35.3528 43.7457 34.7073 44.3798C34.3162 44.1905 33.7885 43.9306 33.143 43.6047C32.276 43.1687 31.5363 42.8472 30.9379 42.649C30.3159 42.442 29.6092 42.3364 28.8459 42.3364C27.6255 42.3364 26.6549 42.7063 25.9529 43.433C25.4817 43.9306 25.2461 44.4195 25.2461 44.8951C25.2461 45.3179 25.3168 45.6923 25.4581 46.0138C26.0659 47.3306 27.5878 48 29.9908 48C31.8661 48 33.6754 47.4363 35.3669 46.3264C37.2045 47.0619 39.4379 47.5948 42.0199 47.8987C42.444 47.9471 42.8869 47.9736 43.3251 47.9736C44.5219 47.9736 45.7658 47.7842 47.0285 47.4054C48.753 46.8902 50.1571 46.0358 51.1937 44.8643C51.957 44.0099 52.3434 43.0674 52.3434 42.0633C52.3434 40.5659 51.6036 39.3504 50.1477 38.4608C49.6907 38.1789 49.2101 37.9279 48.7153 37.7077C49.2713 37.5888 49.8226 37.4302 50.3691 37.232C51.5706 36.7916 52.4517 36.1266 52.9983 35.2458C53.4129 34.5764 53.6203 33.8981 53.6203 33.2287C53.6203 32.5593 53.3046 31.8415 52.6873 31.1897C51.7308 30.2208 50.2514 29.4544 48.2771 28.8907C48.6164 28.6793 48.8048 28.512 48.8991 28.349C49.0546 28.0848 48.9745 27.8866 48.9132 27.7897C48.8755 27.728 48.7672 27.5959 48.5551 27.5563C48.4468 27.5211 48.3478 27.5211 48.3054 27.5211V27.5343ZM43.1884 36.36C45.0496 33.3917 46.4113 31.3262 47.2453 30.2119C49.7708 30.8109 51.0524 31.7225 51.0524 32.9248C51.0524 33.5062 50.7084 34.1624 50.0299 34.867C49.5964 35.3163 49.0687 35.6862 48.4562 35.9681C47.8531 36.2455 47.3395 36.3909 46.939 36.3997C46.8683 36.3997 46.7976 36.3997 46.727 36.3997C46.317 36.3997 45.827 36.3776 45.2757 36.338C44.5925 36.2896 44.0978 36.2631 43.7633 36.2631C43.5277 36.2719 43.3392 36.3072 43.1884 36.36ZM36.7381 45.2519L37.1668 44.8731L37.1762 44.8643L37.1857 44.8555C38.4531 43.5739 40.2671 41.046 42.5806 37.3333L42.5948 37.3598C42.722 37.6328 43.0518 37.8398 43.6973 38.0512C44.1873 38.2141 44.8376 38.4079 45.6197 38.6369C46.383 38.8571 47.0332 39.0862 47.5562 39.3152C48.8614 39.9053 49.4975 40.7377 49.4975 41.8651C49.4975 42.9926 48.8284 44.0319 47.5138 45.0184C46.2793 45.9653 44.7527 46.4454 42.9717 46.4454C42.7031 46.4454 42.411 46.4321 42.1047 46.4013C40.2106 46.2251 38.4107 45.842 36.7333 45.2563L36.7381 45.2519ZM29.7694 46.3969C28.7705 46.3969 28.1438 46.1283 27.8517 45.5733C27.748 45.3752 27.6962 45.1814 27.6962 44.97C27.6962 44.8511 27.7575 44.6441 28.0449 44.327C28.2616 44.0848 28.5396 43.9747 28.9165 43.9747C29.3783 43.9747 29.8495 44.0539 30.3254 44.2125C30.7683 44.3578 31.7672 44.7762 33.3032 45.4588C32.2006 46.0842 31.0133 46.4013 29.7694 46.4013V46.3969Z" fill="#F2F2EA"/>
</g>
<g id="Group_3">
<path id="Vector_3" d="M55.1821 46.9619C54.4471 46.9619 53.811 46.7329 53.2927 46.2837C52.7697 45.8301 52.5059 45.2091 52.5059 44.434C52.5059 43.6588 52.6943 42.9013 53.0713 42.0778C53.4435 41.2586 53.9571 40.4879 54.5979 39.7877C55.2481 39.0742 56.002 38.5457 56.8501 38.2154C57.2647 38.048 57.6746 37.96 58.061 37.96C58.4474 37.96 58.8384 38.0701 59.1824 38.2815C59.5452 38.5589 59.7195 38.8672 59.7195 39.2019C59.7195 40.2193 59.074 41.2014 57.7972 42.113C57.4061 42.3949 56.8501 42.6503 56.1528 42.8705C55.5402 43.0643 55.0596 43.17 54.6874 43.1964C54.4989 43.6721 54.4047 44.2094 54.4047 44.7907C54.4047 45.1827 54.4942 45.4953 54.6733 45.7155C54.8382 45.9225 55.0738 46.0194 55.3895 46.0194C56.8218 46.0194 58.1647 44.6938 59.3709 42.0866C59.5169 41.7739 59.7148 41.6153 59.9646 41.6153C59.9975 41.6153 60.0305 41.6153 60.0635 41.6242C60.2473 41.6682 60.3556 41.7959 60.3556 41.9589C60.3556 42.0293 60.3556 42.1042 59.762 43.3021C59.3756 44.0816 58.9751 44.7246 58.5793 45.2091C57.6746 46.3673 56.5344 46.9619 55.1868 46.9619H55.1821ZM58.3861 38.9245C58.16 38.9245 57.604 39.127 56.4072 40.4835C55.9313 41.0296 55.4978 41.6418 55.1162 42.3068C55.3282 42.2627 55.5826 42.1879 55.8795 42.0866C56.4025 41.906 56.8642 41.6638 57.2506 41.3643C58.1223 40.6685 58.5652 39.933 58.5652 39.1799C58.5652 38.9245 58.4756 38.9245 58.3955 38.9245H58.3861Z" fill="#6699CC"/>
<path id="Vector_4" d="M58.0575 38.179C58.4156 38.179 58.7454 38.2759 59.0517 38.4653C59.3391 38.6855 59.4852 38.9321 59.4852 39.2007C59.4852 40.152 58.8727 41.0637 57.6523 41.9357C57.2801 42.2043 56.7524 42.4465 56.0739 42.6623C55.3954 42.8781 54.8771 42.9838 54.5237 42.9838C54.2881 43.5211 54.1656 44.1245 54.1656 44.7895C54.1656 45.2343 54.2693 45.5867 54.4813 45.8465C54.6933 46.1063 54.9949 46.2385 55.386 46.2385C56.9314 46.2385 58.3308 44.882 59.5841 42.1735C59.6878 41.9489 59.815 41.8344 59.9611 41.8344C59.9799 41.8344 59.9988 41.8344 60.0176 41.8388C60.0836 41.8564 60.1213 41.896 60.1213 41.9577C60.1213 42.0194 59.9328 42.4377 59.5511 43.2084C59.1695 43.9792 58.7831 44.6001 58.3921 45.0758C57.5251 46.1856 56.4602 46.7405 55.1881 46.7405C54.5096 46.7405 53.9347 46.5335 53.4588 46.1239C52.983 45.7144 52.7474 45.1506 52.7474 44.4372C52.7474 43.7237 52.9311 42.9662 53.2939 42.1647C53.6567 41.3631 54.1562 40.6189 54.7829 39.9274C55.4095 39.236 56.1304 38.7339 56.9455 38.4168C57.3366 38.2583 57.7088 38.179 58.0669 38.179M54.698 42.5787C54.9855 42.5787 55.4048 42.4818 55.9561 42.2924C56.5074 42.103 56.988 41.8476 57.3932 41.5305C58.3261 40.7862 58.7926 40.0023 58.7926 39.1743C58.7926 38.8572 58.6559 38.6987 58.3873 38.6987C57.9115 38.6987 57.1906 39.2448 56.2246 40.3414C55.6498 41.0064 55.1409 41.7551 54.698 42.5787ZM58.0575 37.7386C57.6382 37.7386 57.2 37.8311 56.7524 38.0116C55.876 38.3508 55.0891 38.9013 54.42 39.6411C53.7651 40.359 53.2374 41.1517 52.8557 41.9885C52.4694 42.8385 52.2715 43.6621 52.2715 44.4328C52.2715 45.2696 52.5636 45.9478 53.1337 46.4454C53.6944 46.9343 54.3871 47.1809 55.1834 47.1809C56.611 47.1809 57.8172 46.56 58.769 45.3356C59.1695 44.8468 59.5794 44.1906 59.9752 43.3934C60.5924 42.1515 60.5924 42.0766 60.5924 41.9577C60.5924 41.6934 60.4134 41.4776 60.1354 41.4116H60.1213L60.1071 41.4072C60.0553 41.3984 60.0082 41.394 59.9611 41.394C59.7208 41.394 59.3862 41.4997 59.1506 41.9973C57.9821 44.5209 56.7147 45.798 55.386 45.798C55.075 45.798 54.9383 45.6835 54.8582 45.5822C54.7122 45.4017 54.6368 45.133 54.6368 44.7895C54.6368 44.2874 54.7122 43.8206 54.8582 43.4022C55.221 43.3582 55.6734 43.2525 56.2246 43.0807C56.9597 42.8473 57.5204 42.5875 57.9397 42.288C59.2779 41.3323 59.9564 40.2974 59.9564 39.2051C59.9564 38.8 59.7537 38.4388 59.3533 38.1305L59.3344 38.1173L59.3156 38.1041C58.9339 37.8663 58.5099 37.743 58.0622 37.743L58.0575 37.7386ZM55.6074 41.9445C55.909 41.4732 56.2388 41.0284 56.5922 40.6233C57.6476 39.4298 58.147 39.1963 58.3214 39.1567C58.3214 39.1655 58.3214 39.1743 58.3214 39.1831C58.3214 39.8702 57.9067 40.5484 57.0869 41.2046C56.7288 41.482 56.2906 41.7155 55.7912 41.8872C55.7252 41.9092 55.664 41.9313 55.6027 41.9489L55.6074 41.9445Z" fill="#F2F2EA"/>
</g>
<g id="Group_4">
<path id="Vector_5" d="M64.9623 46.9133C64.3875 46.9133 63.921 46.6535 63.5676 46.147C63.3886 45.8696 63.2991 45.5128 63.2991 45.0768C63.2991 44.9535 63.3085 44.8258 63.3226 44.6849C62.1871 46.1823 61.1882 46.9133 60.2788 46.9133C59.9537 46.9133 59.6616 46.8164 59.3977 46.6315C58.8323 46.2615 58.5449 45.6229 58.5449 44.7421C58.5449 43.1434 59.2894 41.5007 60.7642 39.8668C61.6076 38.9463 62.663 38.3386 63.8927 38.0567C64.2273 37.973 64.5571 37.9334 64.8634 37.9334C65.7021 37.9334 66.4277 38.2109 67.0119 38.757C67.3135 39.0653 67.2899 39.3295 67.2145 39.4925C67.1203 39.7083 66.9271 39.8272 66.668 39.8272C66.6256 39.8272 66.5785 39.8272 66.5266 39.8184L66.3806 39.7963L66.3381 39.6642C66.1827 39.1886 65.867 38.964 65.344 38.964C64.6843 38.964 63.8362 39.4836 62.8185 40.5098C62.2248 41.1264 61.6594 41.8663 61.1458 42.7074C60.5097 43.7028 60.1846 44.4955 60.1846 45.0724C60.1846 45.7815 60.4673 45.7815 60.5851 45.7815C61.2165 45.7815 62.385 45.0416 64.3733 41.5227C64.7079 40.915 64.9859 40.5054 65.2262 40.272C65.49 40.0165 65.8293 39.8844 66.2345 39.8844C66.291 39.8844 66.4088 39.8932 66.7999 39.9593C66.9554 39.9857 67.0826 39.9989 67.1816 39.9989C67.2522 39.9989 67.2993 39.9945 67.3229 39.9857L68.1475 39.7919L67.5444 40.3557C67.2569 40.6243 66.8376 41.2585 66.291 42.2406C65.7445 43.2227 65.4146 43.967 65.3063 44.4426C65.1979 44.9271 65.1461 45.319 65.1461 45.6097C65.1461 45.8519 65.2262 45.8519 65.2921 45.8519C65.4288 45.8519 65.7445 45.7551 66.3052 45.1032C66.9837 44.3149 67.6716 43.2623 68.3406 41.9808C68.4349 41.7782 68.5715 41.6549 68.7317 41.624C68.76 41.6108 68.8118 41.602 68.8684 41.602C69.0427 41.602 69.217 41.7209 69.217 41.9808C69.217 42.0909 69.184 42.2142 69.1228 42.3507C67.4972 45.4203 66.1403 46.9089 64.9623 46.9089V46.9133Z" fill="#6699CC"/>
<path id="Vector_6" d="M64.8626 38.1569C65.6401 38.1569 66.3044 38.4123 66.8463 38.9188C67.0159 39.0949 67.0677 39.2579 66.9971 39.4164C66.9405 39.5486 66.8322 39.6146 66.6672 39.6146C66.6343 39.6146 66.6013 39.6146 66.5636 39.6058C66.3751 39.0377 65.9699 38.7514 65.3432 38.7514C64.6129 38.7514 63.713 39.2887 62.6481 40.3677C62.0356 41.0019 61.4702 41.7462 60.9425 42.605C60.2828 43.6355 59.9483 44.4591 59.9483 45.0801C59.9483 45.701 60.1603 46.0093 60.5844 46.0093C61.6021 46.0093 62.9355 44.5516 64.5799 41.6317C64.9003 41.0459 65.1736 40.6452 65.3951 40.4294C65.6165 40.2136 65.8945 40.1079 66.2338 40.1079C66.2997 40.1079 66.4741 40.1299 66.7568 40.1783C66.9264 40.2048 67.0677 40.2224 67.1808 40.2224C67.2562 40.2224 67.3222 40.218 67.3787 40.2048C67.0725 40.491 66.639 41.1384 66.083 42.1426C65.5223 43.1511 65.1878 43.9042 65.0794 44.4019C64.971 44.8995 64.9145 45.3047 64.9145 45.613C64.9145 45.9213 65.0417 46.0754 65.2961 46.0754C65.6165 46.0754 66.017 45.7979 66.4929 45.243C67.1903 44.4327 67.8735 43.3801 68.5567 42.0809C68.6226 41.94 68.698 41.8607 68.7875 41.8431C68.8205 41.8299 68.8488 41.8255 68.8771 41.8255C68.9524 41.8255 68.9901 41.8783 68.9901 41.984C68.9901 42.0633 68.9666 42.1602 68.9148 42.2703C67.3552 45.221 66.0406 46.692 64.971 46.692C64.481 46.692 64.0805 46.4718 63.7742 46.0269C63.6235 45.7891 63.5434 45.472 63.5434 45.0757C63.5434 44.6793 63.6282 44.1949 63.7978 43.6267C62.4408 45.6702 61.2723 46.692 60.2875 46.692C60.0143 46.692 59.7692 46.6127 59.5478 46.4541C59.0389 46.1194 58.7845 45.5513 58.7845 44.741C58.7845 43.1863 59.5054 41.6097 60.9472 40.0066C61.7623 39.117 62.7612 38.54 63.9486 38.2714C64.269 38.1921 64.5752 38.1525 64.8626 38.1525M64.8626 37.7165C64.5328 37.7165 64.1842 37.7605 63.8261 37.8486C62.5539 38.1393 61.4608 38.769 60.5844 39.7247C59.0719 41.4027 58.3086 43.0894 58.3086 44.7454C58.3086 45.7011 58.6337 46.4013 59.2745 46.8197C59.5619 47.0267 59.9059 47.1368 60.2828 47.1368C61.1451 47.1368 62.0686 46.5554 63.0816 45.3619C63.1146 45.7143 63.2088 46.0137 63.3643 46.256C63.8638 46.9826 64.5093 47.1368 64.9616 47.1368C66.2526 47.1368 67.6426 45.6526 69.3294 42.4685V42.4552L69.3388 42.442C69.4142 42.2747 69.4519 42.1249 69.4519 41.984C69.4519 41.5876 69.1551 41.3851 68.8676 41.3851C68.797 41.3851 68.7216 41.3983 68.6462 41.4203C68.42 41.4775 68.2457 41.6405 68.1185 41.9047C67.4635 43.1555 66.7897 44.1905 66.1207 44.97C65.739 45.4148 65.4987 45.5645 65.3809 45.613C65.3809 45.3355 65.4328 44.9568 65.5364 44.4899C65.6354 44.0319 65.9605 43.3096 66.4976 42.3451C67.162 41.1472 67.5248 40.6892 67.7085 40.5175L68.9148 39.3944L67.3269 39.7644C67.3693 39.7115 67.4023 39.6499 67.4305 39.5838C67.5106 39.3988 67.5813 39.0289 67.1903 38.6237C66.54 38.0159 65.7626 37.7165 64.8579 37.7165H64.8626ZM60.5891 45.5645C60.4524 45.5645 60.4242 45.3003 60.4242 45.0757C60.4242 44.5428 60.7352 43.7853 61.3477 42.8296C61.8565 41.9972 62.4125 41.2706 62.9968 40.6628C64.203 39.4473 64.938 39.1918 65.3432 39.1918C65.7485 39.1918 65.9605 39.3328 66.0924 39.6719C65.6825 39.6983 65.3338 39.8524 65.0558 40.1211C64.8014 40.3677 64.5093 40.7949 64.1606 41.4247C62.0544 45.1593 60.9566 45.5601 60.5844 45.5601L60.5891 45.5645Z" fill="#F2F2EA"/>
</g>
<g id="Group_5">
<path id="Vector_7" d="M70.6474 46.9616C69.6297 46.9616 68.8805 46.7149 68.4234 46.2349C67.9711 45.7593 67.7402 45.2043 67.7402 44.579C67.7402 43.8567 67.9287 43.0596 68.3057 42.2096C68.6732 41.3728 69.1066 40.6373 69.592 40.0207C70.6191 38.7171 71.83 38.0521 73.1917 38.0521C73.8844 38.0521 74.3979 38.2151 74.7231 38.5366C75.0435 38.8537 75.2084 39.228 75.2084 39.6508C75.2084 40.2542 74.9398 40.7738 74.4121 41.1966C74.1341 41.4389 73.8844 41.5578 73.6629 41.5578C73.4415 41.5578 73.2389 41.4785 73.0739 41.3244L72.9232 41.1834L73.0598 41.0293C73.6158 40.4083 73.8938 39.8886 73.8938 39.4834C73.8938 39.0518 73.7006 39.0122 73.5216 39.0122C72.8101 39.0122 71.9573 39.6684 70.9913 40.9632C70.6804 41.3772 70.3741 41.9277 70.0726 42.6103C69.7804 43.2798 69.6344 43.8875 69.6344 44.416C69.6344 44.9445 69.7474 45.3541 69.9642 45.6624C70.1668 45.9486 70.4778 46.0852 70.9112 46.0852C71.3871 46.0852 71.83 45.9795 72.2352 45.7681C72.6452 45.5567 73.041 45.2088 73.4226 44.7331C73.8137 44.2399 74.1152 43.8303 74.3084 43.5088C74.511 43.1785 74.789 42.6764 75.1424 42.0202C75.2413 41.8308 75.3874 41.615 75.6183 41.615H75.6748L75.7644 41.6459C75.9293 41.7207 76.0235 41.8528 76.0235 42.0114C76.0235 42.0951 75.9952 42.2228 75.656 42.8922C75.4251 43.3458 75.1942 43.7774 74.9633 44.1738C74.7278 44.579 74.3885 45.0414 73.9598 45.5391C73.154 46.4771 72.0421 46.9528 70.6474 46.9528V46.9616Z" fill="#6699CC"/>
<path id="Vector_8" d="M73.1949 38.2758C73.8216 38.2758 74.2786 38.4168 74.5566 38.6942C74.8346 38.9717 74.9759 39.2932 74.9759 39.6587C74.9759 40.196 74.7404 40.6584 74.2645 41.0372C74.0289 41.2442 73.8263 41.3455 73.6661 41.3455C73.5059 41.3455 73.3645 41.2882 73.2467 41.1781C73.8404 40.5131 74.1372 39.9494 74.1372 39.4913C74.1372 39.0333 73.9346 38.7999 73.5294 38.7999C72.7332 38.7999 71.8238 39.4825 70.806 40.8434C70.4856 41.2706 70.17 41.8343 69.8637 42.5302C69.5574 43.226 69.4067 43.8602 69.4067 44.4195C69.4067 44.9788 69.5292 45.4369 69.7742 45.7892C70.0192 46.1371 70.4008 46.3133 70.9191 46.3133C71.4374 46.3133 71.9133 46.1988 72.3562 45.9697C72.7991 45.7407 73.2185 45.3752 73.6142 44.8775C74.0147 44.3799 74.3163 43.9615 74.5189 43.6312C74.7215 43.3009 75.0042 42.7988 75.3576 42.1338C75.4565 41.9444 75.5461 41.8519 75.6214 41.8519C75.6356 41.8519 75.6497 41.8519 75.6591 41.8607C75.744 41.9004 75.7864 41.9576 75.7864 42.0281C75.7864 42.0986 75.6733 42.3628 75.4424 42.812C75.2115 43.2656 74.9854 43.6884 74.7545 44.0848C74.5236 44.4812 74.1985 44.926 73.7744 45.4148C73.0111 46.3045 71.9698 46.7449 70.6458 46.7449C69.6941 46.7449 69.0109 46.5291 68.5962 46.0887C68.1816 45.6527 67.9743 45.1506 67.9743 44.5781C67.9743 43.8822 68.158 43.1203 68.5208 42.2968C68.8836 41.4732 69.303 40.7597 69.7789 40.1564C70.7636 38.9056 71.8992 38.2758 73.1902 38.2758M73.1949 37.8354C71.7531 37.8354 70.4762 38.5269 69.4067 39.8921C68.9119 40.5219 68.469 41.2706 68.0921 42.125C67.7057 42.997 67.5078 43.825 67.5078 44.5781C67.5078 45.2563 67.7575 45.864 68.2523 46.3793C68.7564 46.9122 69.5669 47.1809 70.6506 47.1809C72.1159 47.1809 73.2938 46.6788 74.1467 45.6835C74.5849 45.1726 74.9335 44.7058 75.1738 44.2874C75.4047 43.8866 75.6403 43.4506 75.8712 42.9926C76.234 42.2791 76.2622 42.1426 76.2622 42.0193C76.2622 41.7771 76.1209 41.5745 75.8759 41.46C75.7958 41.4247 75.711 41.4027 75.6262 41.4027C75.221 41.4027 75.0136 41.7859 74.9382 41.9312C74.5896 42.583 74.3116 43.0807 74.109 43.4066C73.9158 43.7193 73.6237 44.1244 73.2373 44.6089C72.8792 45.0581 72.507 45.384 72.1253 45.5822C71.7531 45.776 71.3573 45.8729 70.9191 45.8729C70.4527 45.8729 70.2642 45.6879 70.17 45.547C69.9768 45.2739 69.8778 44.8952 69.8778 44.4195C69.8778 43.9174 70.0192 43.3361 70.3019 42.6975C70.594 42.0325 70.8909 41.4952 71.1924 41.0944C72.3374 39.5574 73.096 39.2359 73.5294 39.2359C73.6001 39.2359 73.6237 39.2491 73.6237 39.2491C73.6331 39.2579 73.6661 39.3284 73.6661 39.4869C73.6661 39.7292 73.5294 40.1696 72.8839 40.8918L72.6106 41.2001L72.9122 41.4864C73.1195 41.6802 73.3787 41.7815 73.6661 41.7815C73.9535 41.7815 74.2503 41.6449 74.5849 41.3543C75.155 40.9007 75.4471 40.3237 75.4471 39.6543C75.4471 39.1743 75.2634 38.7515 74.9005 38.3903C74.5283 38.0204 73.9582 37.8354 73.1949 37.8354Z" fill="#F2F2EA"/>
</g>
<g id="Group_6">
<path id="Vector_9" d="M72.4927 46.7196C75.7014 40.4834 78.0573 36.075 79.4944 33.6043C79.8289 33.0273 80.1258 32.6266 80.3896 32.3843C80.6818 32.1245 81.0304 31.988 81.4309 31.988C81.4922 31.988 81.6194 31.9924 82.0011 32.0496C82.1801 32.0761 82.3309 32.0893 82.4392 32.0893C82.4769 32.0893 82.5146 32.0893 82.5429 32.0849L83.212 32.0056L82.7455 32.4592C82.2508 32.9348 81.3461 34.2913 80.0457 36.4933C79.0421 38.1933 78.062 39.9329 77.115 41.6857C77.4448 41.3554 77.7605 41.0648 78.0526 40.8225C78.6981 40.2896 79.4944 39.7832 80.4226 39.3075C81.3838 38.8187 82.0764 38.5765 82.5476 38.5765C82.6748 38.5765 82.8021 38.5985 82.9151 38.6381L83.1696 38.7306L83.0329 38.9508C80.9786 42.3243 79.9326 44.5528 79.9326 45.5745C79.9326 46.0193 80.1116 46.0193 80.2059 46.0193C80.5969 46.0193 81.5299 45.4909 83.3769 41.9588C83.4711 41.787 83.6172 41.5624 83.8575 41.5624C83.914 41.5624 83.9706 41.5756 84.0224 41.6021C84.2533 41.7166 84.2862 41.8927 84.2862 41.9852C84.2862 42.0689 84.2627 42.201 83.9706 42.7603C83.7727 43.1347 83.5795 43.4958 83.3816 43.8393C83.1884 44.1828 82.9057 44.6233 82.5193 45.1958C81.6948 46.3717 80.7901 46.9618 79.8242 46.9618C79.1693 46.9618 78.6416 46.7064 78.2599 46.2043C78.0809 45.9577 77.9866 45.6318 77.9866 45.231C77.9866 44.8523 78.0762 44.3942 78.2505 43.8702C78.4295 43.3417 78.8913 42.5137 79.6734 41.3466C79.8855 41.0207 79.9185 40.8534 79.9185 40.7873C79.9185 40.7873 79.8761 40.7565 79.7206 40.7565C79.6405 40.7565 79.2965 40.8313 78.2269 41.765C77.0302 42.7912 75.8475 44.3546 74.712 46.4157C74.5565 46.7284 74.1654 46.8913 73.5623 46.8913C72.978 46.931 72.8367 46.9926 72.8131 47.0059L72.1582 47.3538L72.488 46.7152L72.4927 46.7196Z" fill="#6699CC"/>
<path id="Vector_10" d="M81.443 32.2114C81.5278 32.2114 81.7069 32.229 81.9754 32.2686C82.1686 32.295 82.3241 32.3126 82.4513 32.3126C82.5032 32.3126 82.5456 32.3127 82.588 32.3038C82.0791 32.7971 81.165 34.1536 79.8552 36.382C78.5406 38.6105 77.2825 40.8742 76.0763 43.1731C76.8726 42.2394 77.5888 41.5084 78.2249 40.9843C78.861 40.4602 79.6384 39.9669 80.5525 39.4957C81.4666 39.0245 82.1404 38.7955 82.5644 38.7955C82.6681 38.7955 82.7576 38.8131 82.8424 38.8439C80.7551 42.2703 79.7138 44.5119 79.7138 45.5733C79.7138 46.0181 79.8834 46.2384 80.2227 46.2384C81.019 46.2384 82.1498 44.8423 83.6057 42.0545C83.7047 41.8739 83.7942 41.7814 83.8743 41.7814C83.8931 41.7814 83.9073 41.7814 83.9261 41.7946C84.0204 41.8431 84.0675 41.9047 84.0675 41.984C84.0675 42.0633 83.9685 42.2879 83.7753 42.6622C83.5822 43.0366 83.3843 43.3933 83.1911 43.7324C82.9979 44.0759 82.7105 44.5208 82.3383 45.0757C81.5561 46.1855 80.7268 46.7404 79.8457 46.7404C79.2709 46.7404 78.8091 46.5202 78.4699 46.0754C78.3191 45.8684 78.239 45.5865 78.239 45.2298C78.239 44.8731 78.3238 44.4415 78.4935 43.935C78.6631 43.4285 79.1295 42.605 79.8929 41.4599C80.0813 41.1737 80.1708 40.9491 80.1708 40.7817C80.1708 40.6143 80.0248 40.5307 79.7374 40.5307C79.4499 40.5307 78.8987 40.8874 78.0835 41.6009C76.8632 42.649 75.6758 44.2169 74.5215 46.3088C74.4037 46.5466 74.088 46.6656 73.5791 46.6656C73.1221 46.6964 72.8347 46.7448 72.7121 46.8065C75.935 40.5439 78.2673 36.175 79.7091 33.7043C80.0295 33.1494 80.3169 32.7619 80.5619 32.5373C80.8069 32.3127 81.0991 32.2025 81.4383 32.2025M83.8649 31.7093L82.5314 31.8678C82.5314 31.8678 82.4843 31.8678 82.4561 31.8678C82.3571 31.8678 82.2205 31.8546 82.0555 31.8326C81.6645 31.7754 81.5231 31.7665 81.4477 31.7665C80.9813 31.7665 80.5761 31.9207 80.2415 32.2246C79.9588 32.48 79.6526 32.8984 79.3039 33.4973C77.8621 35.968 75.5062 40.3809 72.2975 46.6215L71.6426 47.8943L72.9572 47.194C72.9572 47.194 73.0891 47.1456 73.6074 47.1104C74.3047 47.1104 74.757 46.9034 74.9596 46.4982C76.0716 44.4767 77.2401 42.9353 78.4134 41.9268C79.0871 41.3366 79.4452 41.112 79.6196 41.0239C79.5913 41.0812 79.5489 41.1472 79.4971 41.2309C78.7055 42.4112 78.2343 43.2524 78.0506 43.8029C77.8668 44.3578 77.7726 44.8246 77.7726 45.2298C77.7726 45.6746 77.8762 46.0446 78.0835 46.3264C78.5123 46.8902 79.1201 47.1808 79.8457 47.1808C80.8917 47.1808 81.8624 46.5554 82.734 45.3179C83.1251 44.7366 83.4078 44.2873 83.6057 43.9394C83.7989 43.6003 84.0015 43.2348 84.1994 42.856C84.4868 42.3099 84.5386 42.1249 84.5386 41.984C84.5386 41.7418 84.3973 41.5304 84.1523 41.4071C84.0675 41.363 83.9732 41.341 83.8743 41.341C83.4644 41.341 83.2523 41.7286 83.1864 41.8607C81.2263 45.613 80.3734 45.8023 80.2227 45.8023C80.2227 45.8023 80.218 45.8023 80.2133 45.8023C80.2038 45.7715 80.185 45.7055 80.185 45.5777C80.185 44.9039 80.7174 43.226 83.2523 39.0641L83.5209 38.6237L83.012 38.4387C82.8707 38.3859 82.7199 38.3595 82.5597 38.3595C82.0461 38.3595 81.3346 38.6017 80.3216 39.117C79.4123 39.5794 78.6254 40.0814 77.9799 40.6011C78.7196 39.2535 79.4829 37.9146 80.2604 36.6022C81.8624 33.8849 82.5927 32.9336 82.9225 32.6165L83.8554 31.7137L83.8649 31.7093Z" fill="#F2F2EA"/>
</g>
</g>
<g id="Group_7">
<path id="Vector_11" d="M37.6359 5.07122C37.2919 6.14581 36.4438 6.96057 34.9078 6.96057C32.8252 6.96057 31.7227 5.41033 31.7227 3.50337C31.7227 1.5964 32.8016 0.00653076 34.9172 0.00653076C36.4815 0.00653076 37.405 0.821291 37.6453 1.95314H37.0846C36.7548 1.07232 36.1423 0.490982 34.889 0.490982C33.0844 0.490982 32.3258 2.03241 32.3258 3.49456C32.3258 4.95672 33.0702 6.48053 34.9266 6.48053C36.1093 6.48053 36.7077 5.908 37.0705 5.07563H37.6312L37.6359 5.07122Z" fill="#6699CC"/>
<path id="Vector_12" d="M41.1427 0.0973511V6.87963H40.582V0.0973511H41.1427Z" fill="#6699CC"/>
<path id="Vector_13" d="M46.2036 0.581803H43.7676V0.0973511H49.2191V0.581803H46.7737V6.87963H46.2036V0.581803Z" fill="#6699CC"/>
<path id="Vector_14" d="M53.9854 6.87963V4.32967C53.9854 4.27242 53.9666 4.20195 53.943 4.17553L51.3516 0.0973511H52.0065C52.7321 1.25122 53.9948 3.25508 54.3058 3.76155C54.6168 3.25948 55.8937 1.27324 56.6711 0.0973511H57.2931L54.5885 4.21517C54.5697 4.25481 54.5555 4.29444 54.5555 4.3605V6.87963H53.9854Z" fill="#6699CC"/>
<path id="Vector_15" d="M69.9532 3.43958C69.9532 5.28929 68.893 6.97605 66.6549 6.97605C64.6148 6.97605 63.418 5.43463 63.418 3.48803C63.418 1.54143 64.5676 0 66.7256 0C68.714 0 69.9485 1.46215 69.9485 3.43958H69.9532ZM64.0258 3.4616C64.0258 5.02065 64.9493 6.49601 66.6879 6.49601C68.5632 6.49601 69.3548 5.06028 69.3548 3.45279C69.3548 1.84531 68.4643 0.488853 66.7115 0.488853C64.8456 0.488853 64.0258 1.93339 64.0258 3.4616Z" fill="#6699CC"/>
<path id="Vector_16" d="M73.0078 0.0973511H77.4039V0.581803H73.5685V3.14057H77.1683V3.62502H73.5685V6.87963H73.0078V0.0973511Z" fill="#6699CC"/>
</g>
</g>
</svg>
