<svg width="25" height="25" viewBox="0 0 25 25" fill="none" xmlns="http://www.w3.org/2000/svg">
<g id="mail">
<mask id="mask0_5682_1528" style="mask-type:alpha" maskUnits="userSpaceOnUse" x="0" y="0" width="25" height="25">
<rect id="Bounding box" x="0.75" y="0.908203" width="24" height="24" fill="#283660"/>
</mask>
<g mask="url(#mask0_5682_1528)">
<path id="mail_2" d="M4.75 20.9082C4.2 20.9082 3.72917 20.7124 3.3375 20.3207C2.94583 19.929 2.75 19.4582 2.75 18.9082V6.9082C2.75 6.3582 2.94583 5.88737 3.3375 5.4957C3.72917 5.10404 4.2 4.9082 4.75 4.9082H20.75C21.3 4.9082 21.7708 5.10404 22.1625 5.4957C22.5542 5.88737 22.75 6.3582 22.75 6.9082V18.9082C22.75 19.4582 22.5542 19.929 22.1625 20.3207C21.7708 20.7124 21.3 20.9082 20.75 20.9082H4.75ZM12.75 13.9082L20.75 8.9082V6.9082L12.75 11.9082L4.75 6.9082V8.9082L12.75 13.9082Z" fill="#003636"/>
</g>
</g>
</svg>
