<svg width="56" height="56" viewBox="0 0 56 56" fill="none" xmlns="http://www.w3.org/2000/svg">
<g id="MapPin" clip-path="url(#clip0_2616_875)">
<path id="Vector" opacity="0.2" d="M28 5.25C23.3587 5.25 18.9075 7.09374 15.6256 10.3756C12.3437 13.6575 10.5 18.1087 10.5 22.75C10.5 38.5 28 50.75 28 50.75C28 50.75 45.5 38.5 45.5 22.75C45.5 18.1087 43.6563 13.6575 40.3744 10.3756C37.0925 7.09374 32.6413 5.25 28 5.25ZM28 29.75C26.6155 29.75 25.2622 29.3395 24.111 28.5703C22.9599 27.8011 22.0627 26.7079 21.5328 25.4288C21.003 24.1497 20.8644 22.7422 21.1345 21.3844C21.4046 20.0265 22.0713 18.7792 23.0503 17.8003C24.0292 16.8213 25.2765 16.1546 26.6344 15.8845C27.9922 15.6144 29.3997 15.753 30.6788 16.2828C31.9579 16.8127 33.0511 17.7099 33.8203 18.861C34.5895 20.0122 35 21.3655 35 22.75C35 24.6065 34.2625 26.387 32.9497 27.6997C31.637 29.0125 29.8565 29.75 28 29.75Z" fill="#0F627D"/>
<path id="Vector_2" d="M28 29.75C31.866 29.75 35 26.616 35 22.75C35 18.884 31.866 15.75 28 15.75C24.134 15.75 21 18.884 21 22.75C21 26.616 24.134 29.75 28 29.75Z" stroke="#0F627D" stroke-width="2" stroke-linecap="round" stroke-linejoin="round"/>
<path id="Vector_3" d="M45.5 22.75C45.5 38.5 28 50.75 28 50.75C28 50.75 10.5 38.5 10.5 22.75C10.5 18.1087 12.3437 13.6575 15.6256 10.3756C18.9075 7.09374 23.3587 5.25 28 5.25C32.6413 5.25 37.0925 7.09374 40.3744 10.3756C43.6563 13.6575 45.5 18.1087 45.5 22.75Z" stroke="#0F627D" stroke-width="2" stroke-linecap="round" stroke-linejoin="round"/>
</g>
<defs>
<clipPath id="clip0_2616_875">
<rect width="56" height="56" fill="white"/>
</clipPath>
</defs>
</svg>
