<svg width="57" height="56" viewBox="0 0 57 56" fill="none" xmlns="http://www.w3.org/2000/svg">
<g id="PawPrint" clip-path="url(#clip0_531_8506)">
<path id="Vector" opacity="0.2" d="M46.7749 28C49.1911 28 51.1499 26.0412 51.1499 23.625C51.1499 21.2088 49.1911 19.25 46.7749 19.25C44.3587 19.25 42.3999 21.2088 42.3999 23.625C42.3999 26.0412 44.3587 28 46.7749 28Z" fill="#0F627D"/>
<path id="Vector_2" opacity="0.2" d="M10.0249 28C12.4411 28 14.3999 26.0412 14.3999 23.625C14.3999 21.2088 12.4411 19.25 10.0249 19.25C7.60866 19.25 5.6499 21.2088 5.6499 23.625C5.6499 26.0412 7.60866 28 10.0249 28Z" fill="#0F627D"/>
<path id="Vector_3" opacity="0.2" d="M20.5249 17.5C22.9411 17.5 24.8999 15.5412 24.8999 13.125C24.8999 10.7088 22.9411 8.75 20.5249 8.75C18.1087 8.75 16.1499 10.7088 16.1499 13.125C16.1499 15.5412 18.1087 17.5 20.5249 17.5Z" fill="#0F627D"/>
<path id="Vector_4" opacity="0.2" d="M36.2749 17.5C38.6911 17.5 40.6499 15.5412 40.6499 13.125C40.6499 10.7088 38.6911 8.75 36.2749 8.75C33.8587 8.75 31.8999 10.7088 31.8999 13.125C31.8999 15.5412 33.8587 17.5 36.2749 17.5Z" fill="#0F627D"/>
<path id="Vector_5" opacity="0.2" d="M28.4 22.75C26.6934 22.7506 25.0333 23.3056 23.6694 24.3313C22.3056 25.3571 21.3118 26.7981 20.8378 28.4375C20.1373 30.8487 18.512 32.8853 16.3162 34.1031C14.7222 34.953 13.5184 36.3863 12.9567 38.1032C12.3949 39.8201 12.5187 41.6878 13.3021 43.3155C14.0854 44.9433 15.4678 46.2052 17.16 46.8374C18.8523 47.4695 20.7234 47.423 22.3822 46.7075C26.2369 45.127 30.5587 45.127 34.4134 46.7075C36.0722 47.423 37.9433 47.4695 39.6355 46.8374C41.3278 46.2052 42.7101 44.9433 43.4935 43.3155C44.2769 41.6878 44.4006 39.8201 43.8389 38.1032C43.2771 36.3863 42.0734 34.953 40.4793 34.1031C38.2847 32.885 36.6609 30.8483 35.9622 28.4375C35.4881 26.7981 34.4944 25.3571 33.1305 24.3313C31.7667 23.3056 30.1065 22.7506 28.4 22.75Z" fill="#0F627D"/>
<path id="Vector_6" d="M46.7749 28C49.1911 28 51.1499 26.0412 51.1499 23.625C51.1499 21.2088 49.1911 19.25 46.7749 19.25C44.3587 19.25 42.3999 21.2088 42.3999 23.625C42.3999 26.0412 44.3587 28 46.7749 28Z" stroke="#0F627D" stroke-width="2" stroke-linecap="round" stroke-linejoin="round"/>
<path id="Vector_7" d="M10.0249 28C12.4411 28 14.3999 26.0412 14.3999 23.625C14.3999 21.2088 12.4411 19.25 10.0249 19.25C7.60866 19.25 5.6499 21.2088 5.6499 23.625C5.6499 26.0412 7.60866 28 10.0249 28Z" stroke="#0F627D" stroke-width="2" stroke-linecap="round" stroke-linejoin="round"/>
<path id="Vector_8" d="M20.5249 17.5C22.9411 17.5 24.8999 15.5412 24.8999 13.125C24.8999 10.7088 22.9411 8.75 20.5249 8.75C18.1087 8.75 16.1499 10.7088 16.1499 13.125C16.1499 15.5412 18.1087 17.5 20.5249 17.5Z" stroke="#0F627D" stroke-width="2" stroke-linecap="round" stroke-linejoin="round"/>
<path id="Vector_9" d="M36.2749 17.5C38.6911 17.5 40.6499 15.5412 40.6499 13.125C40.6499 10.7088 38.6911 8.75 36.2749 8.75C33.8587 8.75 31.8999 10.7088 31.8999 13.125C31.8999 15.5412 33.8587 17.5 36.2749 17.5Z" stroke="#0F627D" stroke-width="2" stroke-linecap="round" stroke-linejoin="round"/>
<path id="Vector_10" d="M28.4 22.75C26.6934 22.7506 25.0333 23.3056 23.6694 24.3313C22.3056 25.3571 21.3118 26.7981 20.8378 28.4375C20.1373 30.8487 18.512 32.8853 16.3162 34.1031C14.7222 34.953 13.5184 36.3863 12.9567 38.1032C12.3949 39.8201 12.5187 41.6878 13.3021 43.3155C14.0854 44.9433 15.4678 46.2052 17.16 46.8374C18.8523 47.4695 20.7234 47.423 22.3822 46.7075C26.2369 45.127 30.5587 45.127 34.4134 46.7075C36.0722 47.423 37.9433 47.4695 39.6355 46.8374C41.3278 46.2052 42.7101 44.9433 43.4935 43.3155C44.2769 41.6878 44.4006 39.8201 43.8389 38.1032C43.2771 36.3863 42.0734 34.953 40.4793 34.1031C38.2847 32.885 36.6609 30.8483 35.9622 28.4375C35.4881 26.7981 34.4944 25.3571 33.1305 24.3313C31.7667 23.3056 30.1065 22.7506 28.4 22.75Z" stroke="#0F627D" stroke-width="2" stroke-linecap="round" stroke-linejoin="round"/>
</g>
<defs>
<clipPath id="clip0_531_8506">
<rect width="56" height="56" fill="white" transform="translate(0.399902)"/>
</clipPath>
</defs>
</svg>
