<svg width="24" height="25" viewBox="0 0 24 25" fill="none" xmlns="http://www.w3.org/2000/svg">
<g id="Vector">
<path d="M9 13.4082H10V11.4082H11C11.2833 11.4082 11.5208 11.3124 11.7125 11.1207C11.9042 10.929 12 10.6915 12 10.4082V9.4082C12 9.12487 11.9042 8.88737 11.7125 8.6957C11.5208 8.50404 11.2833 8.4082 11 8.4082H9V13.4082ZM10 10.4082V9.4082H11V10.4082H10ZM13 13.4082H15C15.2833 13.4082 15.5208 13.3124 15.7125 13.1207C15.9042 12.929 16 12.6915 16 12.4082V9.4082C16 9.12487 15.9042 8.88737 15.7125 8.6957C15.5208 8.50404 15.2833 8.4082 15 8.4082H13V13.4082ZM14 12.4082V9.4082H15V12.4082H14ZM17 13.4082H18V11.4082H19V10.4082H18V9.4082H19V8.4082H17V13.4082ZM8 18.9082C7.45 18.9082 6.97917 18.7124 6.5875 18.3207C6.19583 17.929 6 17.4582 6 16.9082V4.9082C6 4.3582 6.19583 3.88737 6.5875 3.4957C6.97917 3.10404 7.45 2.9082 8 2.9082H20C20.55 2.9082 21.0208 3.10404 21.4125 3.4957C21.8042 3.88737 22 4.3582 22 4.9082V16.9082C22 17.4582 21.8042 17.929 21.4125 18.3207C21.0208 18.7124 20.55 18.9082 20 18.9082H8ZM8 16.9082H20V4.9082H8V16.9082ZM4 22.9082C3.45 22.9082 2.97917 22.7124 2.5875 22.3207C2.19583 21.929 2 21.4582 2 20.9082V6.9082H4V20.9082H18V22.9082H4Z" fill="#003636"/>
</g>
</svg>
