<svg width="57" height="56" viewBox="0 0 57 56" fill="none" xmlns="http://www.w3.org/2000/svg">
<g id="Placeholder" clip-path="url(#clip0_531_4003)">
<path id="Vector" opacity="0.2" d="M46.0996 8.75H11.0996C10.1331 8.75 9.34961 9.5335 9.34961 10.5V45.5C9.34961 46.4665 10.1331 47.25 11.0996 47.25H46.0996C47.0661 47.25 47.8496 46.4665 47.8496 45.5V10.5C47.8496 9.5335 47.0661 8.75 46.0996 8.75Z" fill="#0F627D"/>
<path id="Vector_2" d="M46.0996 8.75H11.0996C10.1331 8.75 9.34961 9.5335 9.34961 10.5V45.5C9.34961 46.4665 10.1331 47.25 11.0996 47.25H46.0996C47.0661 47.25 47.8496 46.4665 47.8496 45.5V10.5C47.8496 9.5335 47.0661 8.75 46.0996 8.75Z" stroke="#0F627D" stroke-width="2" stroke-linecap="round" stroke-linejoin="round"/>
<path id="Vector_3" d="M9.86133 9.26196L47.3376 46.7382" stroke="#0F627D" stroke-width="2" stroke-linecap="round" stroke-linejoin="round"/>
<path id="Vector_4" d="M9.86133 9.26196L47.3376 46.7382" stroke="#0F627D" stroke-width="2" stroke-linecap="round" stroke-linejoin="round"/>
</g>
<defs>
<clipPath id="clip0_531_4003">
<rect width="56" height="56" fill="white" transform="translate(0.599609)"/>
</clipPath>
</defs>
</svg>
