<svg width="56" height="56" viewBox="0 0 56 56" fill="none" xmlns="http://www.w3.org/2000/svg">
<g id="Placeholder" clip-path="url(#clip0_531_4793)">
<path id="Vector" opacity="0.2" d="M45.5 8.75H10.5C9.5335 8.75 8.75 9.5335 8.75 10.5V45.5C8.75 46.4665 9.5335 47.25 10.5 47.25H45.5C46.4665 47.25 47.25 46.4665 47.25 45.5V10.5C47.25 9.5335 46.4665 8.75 45.5 8.75Z" fill="#D14619"/>
<path id="Vector_2" d="M45.5 8.75H10.5C9.5335 8.75 8.75 9.5335 8.75 10.5V45.5C8.75 46.4665 9.5335 47.25 10.5 47.25H45.5C46.4665 47.25 47.25 46.4665 47.25 45.5V10.5C47.25 9.5335 46.4665 8.75 45.5 8.75Z" stroke="#D14619" stroke-width="2" stroke-linecap="round" stroke-linejoin="round"/>
<path id="Vector_3" d="M9.26172 9.26172L46.738 46.738" stroke="#D14619" stroke-width="2" stroke-linecap="round" stroke-linejoin="round"/>
<path id="Vector_4" d="M9.26172 9.26172L46.738 46.738" stroke="#D14619" stroke-width="2" stroke-linecap="round" stroke-linejoin="round"/>
</g>
<defs>
<clipPath id="clip0_531_4793">
<rect width="56" height="56" fill="white"/>
</clipPath>
</defs>
</svg>
