<svg width="20" height="21" viewBox="0 0 20 21" fill="none" xmlns="http://www.w3.org/2000/svg">
<path id="Vector" d="M9.5 13.4082L16.5 8.9082L9.5 4.4082V13.4082ZM6 16.9082C5.45 16.9082 4.97917 16.7124 4.5875 16.3207C4.19583 15.929 4 15.4582 4 14.9082V2.9082C4 2.3582 4.19583 1.88737 4.5875 1.4957C4.97917 1.10404 5.45 0.908203 6 0.908203H18C18.55 0.908203 19.0208 1.10404 19.4125 1.4957C19.8042 1.88737 20 2.3582 20 2.9082V14.9082C20 15.4582 19.8042 15.929 19.4125 16.3207C19.0208 16.7124 18.55 16.9082 18 16.9082H6ZM6 14.9082H18V2.9082H6V14.9082ZM2 20.9082C1.45 20.9082 0.979167 20.7124 0.5875 20.3207C0.195833 19.929 -1.19209e-07 19.4582 -1.19209e-07 18.9082V4.9082H2V18.9082H16V20.9082H2Z" fill="#003636"/>
</svg>
