<svg width="284" height="64" viewBox="0 0 284 64" fill="none" xmlns="http://www.w3.org/2000/svg">
<rect width="284" height="64" rx="8" fill="white" fill-opacity="0.9"/>
<g clip-path="url(#clip0_2502_249)">
<path opacity="0.2" d="M37.0456 38H50.75L43.25 29.75L50.75 21.5H29.5456L37.0456 38Z" fill="#952CFF"/>
<path d="M27.5 50L12.5 17H27.5L35 33.5H20" stroke="#952CFF" stroke-width="2" stroke-linecap="round" stroke-linejoin="round"/>
<path d="M35 33.5L37.0456 38H50.75L43.25 29.75L50.75 21.5H29.5456" stroke="#952CFF" stroke-width="2" stroke-linecap="round" stroke-linejoin="round"/>
</g>
<path d="M114.714 11.004C115.545 11.004 116.24 11.0833 116.8 11.242C117.369 11.4007 117.794 11.662 118.074 12.026C118.363 12.39 118.508 12.8753 118.508 13.482C118.508 13.874 118.433 14.224 118.284 14.532C118.144 14.8307 117.929 15.0827 117.64 15.288C117.36 15.484 117.015 15.6193 116.604 15.694V15.764C117.024 15.8293 117.402 15.9507 117.738 16.128C118.083 16.3053 118.354 16.5573 118.55 16.884C118.746 17.2107 118.844 17.6353 118.844 18.158C118.844 18.7647 118.704 19.2827 118.424 19.712C118.144 20.132 117.743 20.454 117.22 20.678C116.707 20.8927 116.091 21 115.372 21H111.858V11.004H114.714ZM114.966 15.26C115.825 15.26 116.413 15.1247 116.73 14.854C117.047 14.574 117.206 14.1633 117.206 13.622C117.206 13.0713 117.01 12.6793 116.618 12.446C116.235 12.2033 115.619 12.082 114.77 12.082H113.118V15.26H114.966ZM113.118 16.31V19.936H115.134C116.021 19.936 116.637 19.7633 116.982 19.418C117.327 19.0727 117.5 18.62 117.5 18.06C117.5 17.7053 117.421 17.3973 117.262 17.136C117.113 16.8747 116.856 16.674 116.492 16.534C116.137 16.3847 115.652 16.31 115.036 16.31H113.118ZM123.693 13.356C124.337 13.356 124.888 13.496 125.345 13.776C125.812 14.056 126.167 14.4527 126.409 14.966C126.661 15.47 126.787 16.0627 126.787 16.744V17.486H121.649C121.668 18.3353 121.883 18.984 122.293 19.432C122.713 19.8707 123.297 20.09 124.043 20.09C124.519 20.09 124.939 20.048 125.303 19.964C125.677 19.8707 126.059 19.74 126.451 19.572V20.65C126.069 20.818 125.691 20.9393 125.317 21.014C124.944 21.098 124.501 21.14 123.987 21.14C123.278 21.14 122.648 20.9953 122.097 20.706C121.556 20.4167 121.131 19.9873 120.823 19.418C120.525 18.8393 120.375 18.1347 120.375 17.304C120.375 16.4827 120.511 15.778 120.781 15.19C121.061 14.602 121.449 14.1493 121.943 13.832C122.447 13.5147 123.031 13.356 123.693 13.356ZM123.679 14.364C123.091 14.364 122.625 14.5553 122.279 14.938C121.943 15.3113 121.743 15.834 121.677 16.506H125.499C125.499 16.0767 125.434 15.7033 125.303 15.386C125.173 15.0687 124.972 14.8213 124.701 14.644C124.44 14.4573 124.099 14.364 123.679 14.364ZM131.54 13.37C132.454 13.37 133.131 13.5707 133.57 13.972C134.008 14.3733 134.228 15.0127 134.228 15.89V21H133.332L133.094 19.936H133.038C132.823 20.2067 132.599 20.4353 132.366 20.622C132.142 20.7993 131.88 20.93 131.582 21.014C131.292 21.098 130.938 21.14 130.518 21.14C130.07 21.14 129.664 21.0607 129.3 20.902C128.945 20.7433 128.665 20.5007 128.46 20.174C128.254 19.838 128.152 19.418 128.152 18.914C128.152 18.1673 128.446 17.5933 129.034 17.192C129.622 16.7813 130.527 16.5573 131.75 16.52L133.024 16.478V16.03C133.024 15.4047 132.888 14.9707 132.618 14.728C132.347 14.4853 131.964 14.364 131.47 14.364C131.078 14.364 130.704 14.4247 130.35 14.546C129.995 14.658 129.664 14.7887 129.356 14.938L128.978 14.014C129.304 13.8367 129.692 13.6873 130.14 13.566C130.588 13.4353 131.054 13.37 131.54 13.37ZM131.904 17.374C130.97 17.4113 130.322 17.5607 129.958 17.822C129.603 18.0833 129.426 18.452 129.426 18.928C129.426 19.348 129.552 19.656 129.804 19.852C130.065 20.048 130.396 20.146 130.798 20.146C131.432 20.146 131.96 19.9733 132.38 19.628C132.8 19.2733 133.01 18.732 133.01 18.004V17.332L131.904 17.374ZM139.555 21.14C138.893 21.14 138.3 21.0047 137.777 20.734C137.264 20.4633 136.858 20.0433 136.559 19.474C136.27 18.9047 136.125 18.1767 136.125 17.29C136.125 16.366 136.279 15.6147 136.587 15.036C136.895 14.4573 137.311 14.0327 137.833 13.762C138.365 13.4913 138.967 13.356 139.639 13.356C140.022 13.356 140.391 13.398 140.745 13.482C141.1 13.5567 141.389 13.65 141.613 13.762L141.235 14.784C141.011 14.7 140.75 14.6207 140.451 14.546C140.153 14.4713 139.873 14.434 139.611 14.434C139.107 14.434 138.692 14.5413 138.365 14.756C138.039 14.9707 137.796 15.288 137.637 15.708C137.479 16.128 137.399 16.6507 137.399 17.276C137.399 17.8733 137.479 18.382 137.637 18.802C137.796 19.222 138.034 19.5393 138.351 19.754C138.669 19.9687 139.065 20.076 139.541 20.076C139.952 20.076 140.311 20.034 140.619 19.95C140.937 19.866 141.226 19.7633 141.487 19.642V20.734C141.235 20.8647 140.955 20.9627 140.647 21.028C140.349 21.1027 139.985 21.14 139.555 21.14ZM144.504 13.482C144.504 13.6593 144.495 13.8413 144.476 14.028C144.467 14.2147 144.453 14.3827 144.434 14.532H144.518C144.677 14.2707 144.877 14.056 145.12 13.888C145.363 13.72 145.633 13.594 145.932 13.51C146.231 13.4167 146.539 13.37 146.856 13.37C147.463 13.37 147.967 13.468 148.368 13.664C148.779 13.8507 149.087 14.1447 149.292 14.546C149.497 14.9473 149.6 15.47 149.6 16.114V21H148.382V16.198C148.382 15.5913 148.247 15.1387 147.976 14.84C147.705 14.5413 147.281 14.392 146.702 14.392C146.142 14.392 145.703 14.4993 145.386 14.714C145.069 14.9193 144.84 15.2273 144.7 15.638C144.569 16.0393 144.504 16.534 144.504 17.122V21H143.272V10.36H144.504V13.482ZM160.015 11.97C159.483 11.97 159.002 12.0633 158.573 12.25C158.144 12.4273 157.78 12.6933 157.481 13.048C157.182 13.3933 156.954 13.818 156.795 14.322C156.636 14.8167 156.557 15.3767 156.557 16.002C156.557 16.8233 156.683 17.5373 156.935 18.144C157.196 18.7507 157.579 19.2173 158.083 19.544C158.596 19.8707 159.236 20.034 160.001 20.034C160.44 20.034 160.855 19.9967 161.247 19.922C161.639 19.8473 162.022 19.754 162.395 19.642V20.734C162.022 20.874 161.634 20.9767 161.233 21.042C160.841 21.1073 160.37 21.14 159.819 21.14C158.802 21.14 157.952 20.93 157.271 20.51C156.59 20.09 156.076 19.4927 155.731 18.718C155.395 17.9433 155.227 17.0333 155.227 15.988C155.227 15.232 155.33 14.5413 155.535 13.916C155.75 13.2907 156.058 12.7493 156.459 12.292C156.87 11.8347 157.374 11.4847 157.971 11.242C158.568 10.99 159.254 10.864 160.029 10.864C160.542 10.864 161.037 10.9153 161.513 11.018C161.989 11.1207 162.414 11.2653 162.787 11.452L162.283 12.516C161.975 12.376 161.63 12.25 161.247 12.138C160.874 12.026 160.463 11.97 160.015 11.97ZM170.933 17.234C170.933 17.8593 170.849 18.4147 170.681 18.9C170.522 19.376 170.289 19.782 169.981 20.118C169.682 20.454 169.313 20.7107 168.875 20.888C168.445 21.056 167.965 21.14 167.433 21.14C166.938 21.14 166.481 21.056 166.061 20.888C165.641 20.7107 165.277 20.454 164.969 20.118C164.661 19.782 164.418 19.376 164.241 18.9C164.073 18.4147 163.989 17.8593 163.989 17.234C163.989 16.4033 164.129 15.7033 164.409 15.134C164.689 14.5553 165.09 14.1167 165.613 13.818C166.135 13.51 166.756 13.356 167.475 13.356C168.156 13.356 168.753 13.51 169.267 13.818C169.789 14.1167 170.195 14.5553 170.485 15.134C170.783 15.7033 170.933 16.4033 170.933 17.234ZM165.263 17.234C165.263 17.822 165.337 18.3353 165.487 18.774C165.645 19.2033 165.888 19.5347 166.215 19.768C166.541 20.0013 166.957 20.118 167.461 20.118C167.965 20.118 168.38 20.0013 168.707 19.768C169.033 19.5347 169.271 19.2033 169.421 18.774C169.579 18.3353 169.659 17.822 169.659 17.234C169.659 16.6367 169.579 16.128 169.421 15.708C169.262 15.288 169.019 14.966 168.693 14.742C168.375 14.5087 167.96 14.392 167.447 14.392C166.681 14.392 166.126 14.644 165.781 15.148C165.435 15.652 165.263 16.3473 165.263 17.234ZM176.497 13.356C177.393 13.356 178.07 13.5753 178.527 14.014C178.985 14.4433 179.213 15.1433 179.213 16.114V21H177.995V16.198C177.995 15.5913 177.86 15.1387 177.589 14.84C177.319 14.5413 176.894 14.392 176.315 14.392C175.485 14.392 174.911 14.6253 174.593 15.092C174.276 15.5587 174.117 16.2307 174.117 17.108V21H172.885V13.496H173.879L174.061 14.518H174.131C174.299 14.2567 174.505 14.042 174.747 13.874C174.999 13.6967 175.275 13.566 175.573 13.482C175.872 13.398 176.18 13.356 176.497 13.356ZM184.2 21.14C183.266 21.14 182.52 20.818 181.96 20.174C181.4 19.5207 181.12 18.55 181.12 17.262C181.12 15.974 181.4 15.0033 181.96 14.35C182.529 13.6873 183.28 13.356 184.214 13.356C184.606 13.356 184.946 13.4073 185.236 13.51C185.525 13.6033 185.777 13.734 185.992 13.902C186.206 14.07 186.388 14.2567 186.538 14.462H186.622C186.612 14.3407 186.594 14.1633 186.566 13.93C186.547 13.6873 186.538 13.496 186.538 13.356V10.36H187.77V21H186.776L186.594 19.992H186.538C186.388 20.2067 186.206 20.4027 185.992 20.58C185.777 20.748 185.52 20.8833 185.222 20.986C184.932 21.0887 184.592 21.14 184.2 21.14ZM184.396 20.118C185.189 20.118 185.744 19.9033 186.062 19.474C186.388 19.0353 186.552 18.3773 186.552 17.5V17.276C186.552 16.3427 186.398 15.6287 186.09 15.134C185.782 14.63 185.212 14.378 184.382 14.378C183.719 14.378 183.22 14.644 182.884 15.176C182.557 15.6987 182.394 16.4033 182.394 17.29C182.394 18.186 182.557 18.8813 182.884 19.376C183.22 19.8707 183.724 20.118 184.396 20.118ZM191.385 13.496V21H190.153V13.496H191.385ZM190.783 10.682C190.97 10.682 191.133 10.7473 191.273 10.878C191.422 10.9993 191.497 11.1953 191.497 11.466C191.497 11.7273 191.422 11.9233 191.273 12.054C191.133 12.1847 190.97 12.25 190.783 12.25C190.578 12.25 190.405 12.1847 190.265 12.054C190.125 11.9233 190.055 11.7273 190.055 11.466C190.055 11.1953 190.125 10.9993 190.265 10.878C190.405 10.7473 190.578 10.682 190.783 10.682ZM196.268 20.132C196.455 20.132 196.646 20.118 196.842 20.09C197.038 20.0527 197.197 20.0153 197.318 19.978V20.916C197.188 20.9813 197.001 21.0327 196.758 21.07C196.516 21.1167 196.282 21.14 196.058 21.14C195.666 21.14 195.302 21.0747 194.966 20.944C194.64 20.804 194.374 20.566 194.168 20.23C193.963 19.894 193.86 19.4227 193.86 18.816V14.448H192.796V13.86L193.874 13.37L194.364 11.774H195.092V13.496H197.262V14.448H195.092V18.788C195.092 19.2453 195.2 19.586 195.414 19.81C195.638 20.0247 195.923 20.132 196.268 20.132ZM200.053 13.496V21H198.821V13.496H200.053ZM199.451 10.682C199.638 10.682 199.801 10.7473 199.941 10.878C200.09 10.9993 200.165 11.1953 200.165 11.466C200.165 11.7273 200.09 11.9233 199.941 12.054C199.801 12.1847 199.638 12.25 199.451 12.25C199.246 12.25 199.073 12.1847 198.933 12.054C198.793 11.9233 198.723 11.7273 198.723 11.466C198.723 11.1953 198.793 10.9993 198.933 10.878C199.073 10.7473 199.246 10.682 199.451 10.682ZM208.954 17.234C208.954 17.8593 208.87 18.4147 208.702 18.9C208.544 19.376 208.31 19.782 208.002 20.118C207.704 20.454 207.335 20.7107 206.896 20.888C206.467 21.056 205.986 21.14 205.454 21.14C204.96 21.14 204.502 21.056 204.082 20.888C203.662 20.7107 203.298 20.454 202.99 20.118C202.682 19.782 202.44 19.376 202.262 18.9C202.094 18.4147 202.01 17.8593 202.01 17.234C202.01 16.4033 202.15 15.7033 202.43 15.134C202.71 14.5553 203.112 14.1167 203.634 13.818C204.157 13.51 204.778 13.356 205.496 13.356C206.178 13.356 206.775 13.51 207.288 13.818C207.811 14.1167 208.217 14.5553 208.506 15.134C208.805 15.7033 208.954 16.4033 208.954 17.234ZM203.284 17.234C203.284 17.822 203.359 18.3353 203.508 18.774C203.667 19.2033 203.91 19.5347 204.236 19.768C204.563 20.0013 204.978 20.118 205.482 20.118C205.986 20.118 206.402 20.0013 206.728 19.768C207.055 19.5347 207.293 19.2033 207.442 18.774C207.601 18.3353 207.68 17.822 207.68 17.234C207.68 16.6367 207.601 16.128 207.442 15.708C207.284 15.288 207.041 14.966 206.714 14.742C206.397 14.5087 205.982 14.392 205.468 14.392C204.703 14.392 204.148 14.644 203.802 15.148C203.457 15.652 203.284 16.3473 203.284 17.234ZM214.519 13.356C215.415 13.356 216.091 13.5753 216.549 14.014C217.006 14.4433 217.235 15.1433 217.235 16.114V21H216.017V16.198C216.017 15.5913 215.881 15.1387 215.611 14.84C215.34 14.5413 214.915 14.392 214.337 14.392C213.506 14.392 212.932 14.6253 212.615 15.092C212.297 15.5587 212.139 16.2307 212.139 17.108V21H210.907V13.496H211.901L212.083 14.518H212.153C212.321 14.2567 212.526 14.042 212.769 13.874C213.021 13.6967 213.296 13.566 213.595 13.482C213.893 13.398 214.201 13.356 214.519 13.356ZM224.447 18.928C224.447 19.4133 224.326 19.8193 224.083 20.146C223.84 20.4727 223.495 20.72 223.047 20.888C222.599 21.056 222.067 21.14 221.451 21.14C220.928 21.14 220.476 21.098 220.093 21.014C219.72 20.93 219.388 20.8133 219.099 20.664V19.544C219.398 19.6933 219.757 19.8333 220.177 19.964C220.606 20.0853 221.04 20.146 221.479 20.146C222.104 20.146 222.557 20.048 222.837 19.852C223.117 19.6467 223.257 19.376 223.257 19.04C223.257 18.8533 223.206 18.6853 223.103 18.536C223 18.3867 222.814 18.2373 222.543 18.088C222.282 17.9387 221.904 17.7707 221.409 17.584C220.924 17.3973 220.508 17.2107 220.163 17.024C219.818 16.8373 219.552 16.6133 219.365 16.352C219.178 16.0907 219.085 15.7547 219.085 15.344C219.085 14.7093 219.342 14.2193 219.855 13.874C220.378 13.5287 221.059 13.356 221.899 13.356C222.356 13.356 222.781 13.4027 223.173 13.496C223.574 13.58 223.948 13.7013 224.293 13.86L223.873 14.84C223.668 14.7467 223.448 14.6673 223.215 14.602C222.991 14.5273 222.762 14.4713 222.529 14.434C222.296 14.3873 222.058 14.364 221.815 14.364C221.311 14.364 220.924 14.448 220.653 14.616C220.392 14.7747 220.261 14.994 220.261 15.274C220.261 15.4793 220.322 15.6567 220.443 15.806C220.564 15.946 220.765 16.086 221.045 16.226C221.334 16.3567 221.717 16.5153 222.193 16.702C222.669 16.8793 223.075 17.0613 223.411 17.248C223.747 17.4347 224.004 17.6633 224.181 17.934C224.358 18.1953 224.447 18.5267 224.447 18.928Z" fill="#261C02"/>
<path d="M73.088 33.576C74.56 33.576 75.632 33.896 76.304 34.536C76.9867 35.1653 77.328 36.0347 77.328 37.144C77.328 37.6453 77.2533 38.1253 77.104 38.584C76.9547 39.032 76.704 39.4373 76.352 39.8C76.0107 40.152 75.5573 40.4293 74.992 40.632C74.4267 40.8347 73.728 40.936 72.896 40.936H71.856V45H69.44V33.576H73.088ZM72.96 35.56H71.856V38.952H72.656C73.1147 38.952 73.5093 38.8933 73.84 38.776C74.1707 38.6587 74.4267 38.472 74.608 38.216C74.7893 37.96 74.88 37.6293 74.88 37.224C74.88 36.6587 74.7253 36.2427 74.416 35.976C74.1067 35.6987 73.6213 35.56 72.96 35.56ZM87.3109 36.264V45H85.4869L85.1669 43.88H85.0389C84.8575 44.1787 84.6229 44.424 84.3349 44.616C84.0575 44.7973 83.7482 44.9307 83.4069 45.016C83.0655 45.112 82.7135 45.16 82.3509 45.16C81.7322 45.16 81.1882 45.048 80.7189 44.824C80.2495 44.6 79.8869 44.2533 79.6309 43.784C79.3749 43.3147 79.2469 42.7067 79.2469 41.96V36.264H81.6309V41.368C81.6309 41.9867 81.7429 42.456 81.9669 42.776C82.1909 43.096 82.5482 43.256 83.0389 43.256C83.5295 43.256 83.9082 43.144 84.1749 42.92C84.4522 42.696 84.6442 42.3707 84.7509 41.944C84.8682 41.5173 84.9269 40.9947 84.9269 40.376V36.264H87.3109ZM94.6905 36.104C94.8078 36.104 94.9465 36.1093 95.1065 36.12C95.2665 36.1307 95.3945 36.1467 95.4905 36.168L95.3145 38.408C95.2398 38.3867 95.1278 38.3707 94.9785 38.36C94.8398 38.3387 94.7172 38.328 94.6105 38.328C94.3012 38.328 94.0025 38.3707 93.7145 38.456C93.4265 38.5307 93.1652 38.6533 92.9305 38.824C92.7065 38.9947 92.5252 39.224 92.3865 39.512C92.2585 39.7893 92.1945 40.136 92.1945 40.552V45H89.8105V36.264H91.6185L91.9705 37.736H92.0825C92.2532 37.4373 92.4665 37.1653 92.7225 36.92C92.9785 36.6747 93.2718 36.4773 93.6025 36.328C93.9438 36.1787 94.3065 36.104 94.6905 36.104ZM101.94 36.104C102.921 36.104 103.716 36.488 104.324 37.256C104.932 38.0133 105.236 39.1333 105.236 40.616C105.236 41.608 105.092 42.4453 104.804 43.128C104.516 43.8 104.121 44.3067 103.62 44.648C103.119 44.9893 102.537 45.16 101.876 45.16C101.46 45.16 101.097 45.1067 100.788 45C100.489 44.8933 100.233 44.7547 100.02 44.584C99.8068 44.4133 99.6201 44.232 99.4601 44.04H99.3321C99.3748 44.2427 99.4068 44.456 99.4281 44.68C99.4495 44.8933 99.4601 45.1067 99.4601 45.32V48.84H97.0761V36.264H99.0121L99.3481 37.4H99.4601C99.6201 37.1653 99.8121 36.952 100.036 36.76C100.26 36.5573 100.527 36.3973 100.836 36.28C101.156 36.1627 101.524 36.104 101.94 36.104ZM101.172 38.008C100.756 38.008 100.425 38.0933 100.18 38.264C99.9348 38.4347 99.7535 38.696 99.6361 39.048C99.5295 39.3893 99.4708 39.8213 99.4601 40.344V40.6C99.4601 41.1653 99.5135 41.6453 99.6201 42.04C99.7268 42.424 99.9081 42.7173 100.164 42.92C100.42 43.1227 100.767 43.224 101.204 43.224C101.567 43.224 101.865 43.1227 102.1 42.92C102.335 42.7173 102.511 42.4187 102.628 42.024C102.745 41.6293 102.804 41.1493 102.804 40.584C102.804 39.7307 102.671 39.0907 102.404 38.664C102.148 38.2267 101.737 38.008 101.172 38.008ZM109.585 45H107.201V32.84H109.585V45ZM115.676 36.104C116.487 36.104 117.18 36.2587 117.756 36.568C118.343 36.8773 118.796 37.3253 119.116 37.912C119.436 38.4987 119.596 39.2187 119.596 40.072V41.224H113.964C113.985 41.896 114.183 42.424 114.556 42.808C114.94 43.192 115.468 43.384 116.14 43.384C116.705 43.384 117.217 43.3307 117.676 43.224C118.135 43.1067 118.609 42.9307 119.1 42.696V44.536C118.673 44.7493 118.22 44.904 117.74 45C117.271 45.1067 116.7 45.16 116.028 45.16C115.153 45.16 114.38 45 113.708 44.68C113.036 44.3493 112.508 43.8533 112.124 43.192C111.74 42.5307 111.548 41.6987 111.548 40.696C111.548 39.672 111.719 38.824 112.06 38.152C112.412 37.4693 112.897 36.9573 113.516 36.616C114.135 36.2747 114.855 36.104 115.676 36.104ZM115.692 37.8C115.233 37.8 114.849 37.9493 114.54 38.248C114.241 38.5467 114.065 39.0107 114.012 39.64H117.356C117.356 39.288 117.292 38.9733 117.164 38.696C117.047 38.4187 116.865 38.2 116.62 38.04C116.375 37.88 116.065 37.8 115.692 37.8ZM130.518 38.056H128.454V45H126.07V38.056H124.758V36.904L126.07 36.264V35.624C126.07 34.8773 126.192 34.3013 126.438 33.896C126.694 33.48 127.051 33.1867 127.51 33.016C127.979 32.8453 128.528 32.76 129.158 32.76C129.627 32.76 130.048 32.7973 130.422 32.872C130.806 32.9467 131.115 33.032 131.35 33.128L130.742 34.872C130.56 34.8187 130.363 34.7707 130.15 34.728C129.936 34.6747 129.691 34.648 129.414 34.648C129.083 34.648 128.838 34.7493 128.678 34.952C128.528 35.1547 128.454 35.4107 128.454 35.72V36.264H130.518V38.056ZM134.262 45H131.878V32.84H134.262V45ZM140.348 36.088C141.521 36.088 142.417 36.344 143.036 36.856C143.665 37.3573 143.98 38.1307 143.98 39.176V45H142.316L141.852 43.816H141.788C141.542 44.1253 141.286 44.3813 141.02 44.584C140.764 44.7867 140.465 44.9307 140.124 45.016C139.793 45.112 139.382 45.16 138.892 45.16C138.38 45.16 137.916 45.064 137.5 44.872C137.094 44.6693 136.774 44.3653 136.54 43.96C136.305 43.544 136.188 43.0213 136.188 42.392C136.188 41.464 136.513 40.7813 137.164 40.344C137.814 39.896 138.79 39.6507 140.092 39.608L141.612 39.56V39.176C141.612 38.7173 141.489 38.3813 141.244 38.168C141.009 37.9547 140.678 37.848 140.252 37.848C139.825 37.848 139.409 37.912 139.004 38.04C138.598 38.1573 138.193 38.3067 137.788 38.488L137.004 36.872C137.473 36.6267 137.99 36.4347 138.556 36.296C139.132 36.1573 139.729 36.088 140.348 36.088ZM140.684 40.984C139.916 41.0053 139.382 41.144 139.084 41.4C138.785 41.656 138.636 41.992 138.636 42.408C138.636 42.7707 138.742 43.032 138.956 43.192C139.169 43.3413 139.446 43.416 139.788 43.416C140.3 43.416 140.732 43.2667 141.084 42.968C141.436 42.6587 141.612 42.2267 141.612 41.672V40.952L140.684 40.984ZM149.252 36.104C149.785 36.104 150.265 36.2107 150.692 36.424C151.119 36.6373 151.481 36.9573 151.78 37.384H151.844L152.036 36.264H154.052V45.016C154.052 45.848 153.887 46.5467 153.556 47.112C153.236 47.6773 152.751 48.104 152.1 48.392C151.449 48.6907 150.644 48.84 149.684 48.84C149.065 48.84 148.489 48.8027 147.956 48.728C147.433 48.6533 146.921 48.52 146.42 48.328V46.424C146.783 46.5733 147.145 46.696 147.508 46.792C147.881 46.8987 148.26 46.9733 148.644 47.016C149.039 47.0693 149.433 47.096 149.828 47.096C150.447 47.096 150.905 46.9307 151.204 46.6C151.513 46.2693 151.668 45.7733 151.668 45.112V44.936C151.668 44.7547 151.673 44.568 151.684 44.376C151.705 44.184 151.721 44.0133 151.732 43.864H151.668C151.369 44.3227 151.012 44.6533 150.596 44.856C150.18 45.0587 149.711 45.16 149.188 45.16C148.153 45.16 147.343 44.7653 146.756 43.976C146.18 43.176 145.892 42.0667 145.892 40.648C145.892 39.688 146.025 38.872 146.292 38.2C146.559 37.5173 146.943 37 147.444 36.648C147.956 36.2853 148.559 36.104 149.252 36.104ZM150.004 38.04C149.631 38.04 149.316 38.1413 149.06 38.344C148.815 38.536 148.628 38.8293 148.5 39.224C148.383 39.608 148.324 40.0933 148.324 40.68C148.324 41.5547 148.463 42.2107 148.74 42.648C149.017 43.0747 149.449 43.288 150.036 43.288C150.345 43.288 150.612 43.2507 150.836 43.176C151.06 43.0907 151.241 42.9573 151.38 42.776C151.529 42.584 151.641 42.3387 151.716 42.04C151.791 41.7413 151.828 41.3787 151.828 40.952V40.664C151.828 40.0347 151.764 39.528 151.636 39.144C151.508 38.76 151.311 38.4827 151.044 38.312C150.777 38.1307 150.431 38.04 150.004 38.04ZM156.209 43.88C156.209 43.3893 156.342 43.048 156.609 42.856C156.876 42.6533 157.201 42.552 157.585 42.552C157.958 42.552 158.278 42.6533 158.545 42.856C158.812 43.048 158.945 43.3893 158.945 43.88C158.945 44.3493 158.812 44.6907 158.545 44.904C158.278 45.1067 157.958 45.208 157.585 45.208C157.201 45.208 156.876 45.1067 156.609 44.904C156.342 44.6907 156.209 44.3493 156.209 43.88ZM156.209 37.432C156.209 36.9413 156.342 36.6 156.609 36.408C156.876 36.2053 157.201 36.104 157.585 36.104C157.958 36.104 158.278 36.2053 158.545 36.408C158.812 36.6 158.945 36.9413 158.945 37.432C158.945 37.9013 158.812 38.2427 158.545 38.456C158.278 38.6587 157.958 38.76 157.585 38.76C157.201 38.76 156.876 38.6587 156.609 38.456C156.342 38.2427 156.209 37.9013 156.209 37.432ZM170.288 45L167.536 36.04H167.472C167.482 36.2533 167.498 36.5733 167.52 37C167.541 37.4267 167.562 37.8853 167.584 38.376C167.605 38.856 167.616 39.2933 167.616 39.688V45H165.456V33.576H168.752L171.456 42.312H171.504L174.368 33.576H177.664V45H175.408V39.592C175.408 39.2293 175.413 38.8133 175.424 38.344C175.445 37.8747 175.461 37.432 175.472 37.016C175.493 36.5893 175.509 36.2693 175.52 36.056H175.456L172.512 45H170.288ZM183.941 36.088C185.115 36.088 186.011 36.344 186.629 36.856C187.259 37.3573 187.573 38.1307 187.573 39.176V45H185.909L185.445 43.816H185.381C185.136 44.1253 184.88 44.3813 184.613 44.584C184.357 44.7867 184.059 44.9307 183.717 45.016C183.387 45.112 182.976 45.16 182.485 45.16C181.973 45.16 181.509 45.064 181.093 44.872C180.688 44.6693 180.368 44.3653 180.133 43.96C179.899 43.544 179.781 43.0213 179.781 42.392C179.781 41.464 180.107 40.7813 180.757 40.344C181.408 39.896 182.384 39.6507 183.685 39.608L185.205 39.56V39.176C185.205 38.7173 185.083 38.3813 184.837 38.168C184.603 37.9547 184.272 37.848 183.845 37.848C183.419 37.848 183.003 37.912 182.597 38.04C182.192 38.1573 181.787 38.3067 181.381 38.488L180.597 36.872C181.067 36.6267 181.584 36.4347 182.149 36.296C182.725 36.1573 183.323 36.088 183.941 36.088ZM184.277 40.984C183.509 41.0053 182.976 41.144 182.677 41.4C182.379 41.656 182.229 41.992 182.229 42.408C182.229 42.7707 182.336 43.032 182.549 43.192C182.763 43.3413 183.04 43.416 183.381 43.416C183.893 43.416 184.325 43.2667 184.677 42.968C185.029 42.6587 185.205 42.2267 185.205 41.672V40.952L184.277 40.984ZM194.894 36.104C195.011 36.104 195.15 36.1093 195.31 36.12C195.47 36.1307 195.598 36.1467 195.694 36.168L195.518 38.408C195.443 38.3867 195.331 38.3707 195.182 38.36C195.043 38.3387 194.92 38.328 194.814 38.328C194.504 38.328 194.206 38.3707 193.918 38.456C193.63 38.5307 193.368 38.6533 193.134 38.824C192.91 38.9947 192.728 39.224 192.59 39.512C192.462 39.7893 192.398 40.136 192.398 40.552V45H190.014V36.264H191.822L192.174 37.736H192.286C192.456 37.4373 192.67 37.1653 192.926 36.92C193.182 36.6747 193.475 36.4773 193.806 36.328C194.147 36.1787 194.51 36.104 194.894 36.104ZM199.663 36.264V45H197.279V36.264H199.663ZM198.479 32.84C198.831 32.84 199.135 32.9253 199.391 33.096C199.647 33.256 199.775 33.56 199.775 34.008C199.775 34.4453 199.647 34.7493 199.391 34.92C199.135 35.0907 198.831 35.176 198.479 35.176C198.117 35.176 197.807 35.0907 197.551 34.92C197.306 34.7493 197.183 34.4453 197.183 34.008C197.183 33.56 197.306 33.256 197.551 33.096C197.807 32.9253 198.117 32.84 198.479 32.84ZM207.114 36.104C208.053 36.104 208.805 36.36 209.37 36.872C209.936 37.3733 210.218 38.184 210.218 39.304V45H207.834V39.896C207.834 39.2667 207.722 38.7973 207.498 38.488C207.274 38.168 206.917 38.008 206.426 38.008C205.701 38.008 205.205 38.2587 204.938 38.76C204.672 39.2507 204.538 39.96 204.538 40.888V45H202.154V36.264H203.978L204.298 37.384H204.426C204.618 37.0853 204.853 36.8453 205.13 36.664C205.408 36.472 205.717 36.3333 206.058 36.248C206.4 36.152 206.752 36.104 207.114 36.104ZM216.27 36.104C217.081 36.104 217.774 36.2587 218.35 36.568C218.937 36.8773 219.39 37.3253 219.71 37.912C220.03 38.4987 220.19 39.2187 220.19 40.072V41.224H214.558C214.579 41.896 214.777 42.424 215.15 42.808C215.534 43.192 216.062 43.384 216.734 43.384C217.299 43.384 217.811 43.3307 218.27 43.224C218.729 43.1067 219.203 42.9307 219.694 42.696V44.536C219.267 44.7493 218.814 44.904 218.334 45C217.865 45.1067 217.294 45.16 216.622 45.16C215.747 45.16 214.974 45 214.302 44.68C213.63 44.3493 213.102 43.8533 212.718 43.192C212.334 42.5307 212.142 41.6987 212.142 40.696C212.142 39.672 212.313 38.824 212.654 38.152C213.006 37.4693 213.491 36.9573 214.11 36.616C214.729 36.2747 215.449 36.104 216.27 36.104ZM216.286 37.8C215.827 37.8 215.443 37.9493 215.134 38.248C214.835 38.5467 214.659 39.0107 214.606 39.64H217.95C217.95 39.288 217.886 38.9733 217.758 38.696C217.641 38.4187 217.459 38.2 217.214 38.04C216.969 37.88 216.659 37.8 216.286 37.8ZM231.143 36.104C232.125 36.104 232.919 36.488 233.527 37.256C234.135 38.0133 234.439 39.1333 234.439 40.616C234.439 41.608 234.295 42.4453 234.007 43.128C233.719 43.8 233.325 44.3067 232.823 44.648C232.322 44.9893 231.741 45.16 231.079 45.16C230.663 45.16 230.301 45.1067 229.991 45C229.693 44.8933 229.437 44.7547 229.223 44.584C229.01 44.4133 228.823 44.232 228.663 44.04H228.535C228.578 44.2427 228.61 44.456 228.631 44.68C228.653 44.8933 228.663 45.1067 228.663 45.32V48.84H226.279V36.264H228.215L228.551 37.4H228.663C228.823 37.1653 229.015 36.952 229.239 36.76C229.463 36.5573 229.73 36.3973 230.039 36.28C230.359 36.1627 230.727 36.104 231.143 36.104ZM230.375 38.008C229.959 38.008 229.629 38.0933 229.383 38.264C229.138 38.4347 228.957 38.696 228.839 39.048C228.733 39.3893 228.674 39.8213 228.663 40.344V40.6C228.663 41.1653 228.717 41.6453 228.823 42.04C228.93 42.424 229.111 42.7173 229.367 42.92C229.623 43.1227 229.97 43.224 230.407 43.224C230.77 43.224 231.069 43.1227 231.303 42.92C231.538 42.7173 231.714 42.4187 231.831 42.024C231.949 41.6293 232.007 41.1493 232.007 40.584C232.007 39.7307 231.874 39.0907 231.607 38.664C231.351 38.2267 230.941 38.008 230.375 38.008ZM240.004 36.104C240.815 36.104 241.508 36.2587 242.084 36.568C242.671 36.8773 243.124 37.3253 243.444 37.912C243.764 38.4987 243.924 39.2187 243.924 40.072V41.224H238.292C238.314 41.896 238.511 42.424 238.884 42.808C239.268 43.192 239.796 43.384 240.468 43.384C241.034 43.384 241.546 43.3307 242.004 43.224C242.463 43.1067 242.938 42.9307 243.428 42.696V44.536C243.002 44.7493 242.548 44.904 242.068 45C241.599 45.1067 241.028 45.16 240.356 45.16C239.482 45.16 238.708 45 238.036 44.68C237.364 44.3493 236.836 43.8533 236.452 43.192C236.068 42.5307 235.876 41.6987 235.876 40.696C235.876 39.672 236.047 38.824 236.388 38.152C236.74 37.4693 237.226 36.9573 237.844 36.616C238.463 36.2747 239.183 36.104 240.004 36.104ZM240.02 37.8C239.562 37.8 239.178 37.9493 238.868 38.248C238.57 38.5467 238.394 39.0107 238.34 39.64H241.684C241.684 39.288 241.62 38.9733 241.492 38.696C241.375 38.4187 241.194 38.2 240.948 38.04C240.703 37.88 240.394 37.8 240.02 37.8ZM251.953 42.408C251.953 42.9947 251.815 43.496 251.537 43.912C251.26 44.3173 250.844 44.6267 250.289 44.84C249.735 45.0533 249.047 45.16 248.225 45.16C247.617 45.16 247.095 45.1173 246.657 45.032C246.22 44.9573 245.783 44.8293 245.345 44.648V42.68C245.815 42.8933 246.321 43.0693 246.865 43.208C247.409 43.3467 247.889 43.416 248.305 43.416C248.775 43.416 249.105 43.3467 249.297 43.208C249.5 43.0693 249.601 42.888 249.601 42.664C249.601 42.5147 249.559 42.3813 249.473 42.264C249.399 42.1467 249.228 42.0133 248.961 41.864C248.695 41.7147 248.279 41.5227 247.713 41.288C247.169 41.0533 246.721 40.824 246.369 40.6C246.017 40.3653 245.756 40.088 245.585 39.768C245.415 39.4373 245.329 39.0267 245.329 38.536C245.329 37.7253 245.644 37.1173 246.273 36.712C246.903 36.3067 247.74 36.104 248.785 36.104C249.329 36.104 249.847 36.1573 250.337 36.264C250.828 36.3707 251.335 36.5467 251.857 36.792L251.137 38.504C250.849 38.376 250.572 38.264 250.305 38.168C250.039 38.072 249.777 37.9973 249.521 37.944C249.276 37.8907 249.02 37.864 248.753 37.864C248.401 37.864 248.135 37.912 247.953 38.008C247.783 38.104 247.697 38.248 247.697 38.44C247.697 38.5787 247.74 38.7067 247.825 38.824C247.921 38.9307 248.097 39.048 248.353 39.176C248.62 39.304 249.009 39.4747 249.521 39.688C250.023 39.8907 250.455 40.104 250.817 40.328C251.18 40.5413 251.457 40.8133 251.649 41.144C251.852 41.464 251.953 41.8853 251.953 42.408ZM257.491 43.256C257.757 43.256 258.013 43.2293 258.259 43.176C258.504 43.1227 258.749 43.0587 258.995 42.984V44.76C258.739 44.8667 258.419 44.9573 258.035 45.032C257.661 45.1173 257.251 45.16 256.803 45.16C256.28 45.16 255.811 45.0747 255.395 44.904C254.989 44.7333 254.664 44.44 254.419 44.024C254.184 43.5973 254.067 43.0107 254.067 42.264V38.056H252.931V37.048L254.243 36.248L254.931 34.408H256.451V36.264H258.899V38.056H256.451V42.264C256.451 42.5947 256.547 42.8453 256.739 43.016C256.931 43.176 257.181 43.256 257.491 43.256ZM266.844 42.408C266.844 42.9947 266.705 43.496 266.428 43.912C266.151 44.3173 265.735 44.6267 265.18 44.84C264.625 45.0533 263.937 45.16 263.116 45.16C262.508 45.16 261.985 45.1173 261.548 45.032C261.111 44.9573 260.673 44.8293 260.236 44.648V42.68C260.705 42.8933 261.212 43.0693 261.756 43.208C262.3 43.3467 262.78 43.416 263.196 43.416C263.665 43.416 263.996 43.3467 264.188 43.208C264.391 43.0693 264.492 42.888 264.492 42.664C264.492 42.5147 264.449 42.3813 264.364 42.264C264.289 42.1467 264.119 42.0133 263.852 41.864C263.585 41.7147 263.169 41.5227 262.604 41.288C262.06 41.0533 261.612 40.824 261.26 40.6C260.908 40.3653 260.647 40.088 260.476 39.768C260.305 39.4373 260.22 39.0267 260.22 38.536C260.22 37.7253 260.535 37.1173 261.164 36.712C261.793 36.3067 262.631 36.104 263.676 36.104C264.22 36.104 264.737 36.1573 265.228 36.264C265.719 36.3707 266.225 36.5467 266.748 36.792L266.028 38.504C265.74 38.376 265.463 38.264 265.196 38.168C264.929 38.072 264.668 37.9973 264.412 37.944C264.167 37.8907 263.911 37.864 263.644 37.864C263.292 37.864 263.025 37.912 262.844 38.008C262.673 38.104 262.588 38.248 262.588 38.44C262.588 38.5787 262.631 38.7067 262.716 38.824C262.812 38.9307 262.988 39.048 263.244 39.176C263.511 39.304 263.9 39.4747 264.412 39.688C264.913 39.8907 265.345 40.104 265.708 40.328C266.071 40.5413 266.348 40.8133 266.54 41.144C266.743 41.464 266.844 41.8853 266.844 42.408Z" fill="#261C02"/>
<defs>
<clipPath id="clip0_2502_249">
<rect width="48" height="48" fill="white" transform="matrix(-1 0 0 1 56 8)"/>
</clipPath>
</defs>
</svg>
