<svg width="24" height="24" viewBox="0 0 24 24" fill="none" xmlns="http://www.w3.org/2000/svg">
<g id="Racquet" clip-path="url(#clip0_531_8779)">
<path id="Vector" opacity="0.2" d="M19.9671 12.467C22.8781 9.55596 23.35 5.30822 21.0211 2.97935C18.6922 0.650484 14.4445 1.12239 11.5335 4.03338C8.62252 6.94437 8.15062 11.1921 10.4795 13.521C12.8083 15.8499 17.0561 15.3779 19.9671 12.467Z" fill="#261C02"/>
<path id="Vector_2" d="M19.9671 12.467C22.8781 9.55596 23.35 5.30822 21.0211 2.97935C18.6922 0.650484 14.4445 1.12239 11.5335 4.03338C8.62252 6.94437 8.15062 11.1921 10.4795 13.521C12.8083 15.8499 17.0561 15.3779 19.9671 12.467Z" stroke="#261C02" stroke-linecap="round" stroke-linejoin="round"/>
<path id="Vector_3" d="M5.03061 16.7193L2.46978 19.2802C2.17689 19.573 2.17689 20.0479 2.46978 20.3408L3.65905 21.5301C3.95194 21.823 4.42682 21.823 4.71971 21.5301L7.28054 18.9693C7.57343 18.6764 7.57343 18.2015 7.28054 17.9086L6.09127 16.7193C5.79838 16.4264 5.32351 16.4264 5.03061 16.7193Z" stroke="#261C02" stroke-linecap="round" stroke-linejoin="round"/>
<path id="Vector_4" d="M6.68555 17.3147L10.4796 13.5206" stroke="#261C02" stroke-linecap="round" stroke-linejoin="round"/>
<path id="Vector_5" d="M18 1.54688V13.9669" stroke="#261C02" stroke-linecap="round" stroke-linejoin="round"/>
<path id="Vector_6" d="M13.5 2.53314V14.9531" stroke="#261C02" stroke-linecap="round" stroke-linejoin="round"/>
<path id="Vector_7" d="M10.0332 6H22.4532" stroke="#261C02" stroke-linecap="round" stroke-linejoin="round"/>
<path id="Vector_8" d="M9.04688 10.5H21.4669" stroke="#261C02" stroke-linecap="round" stroke-linejoin="round"/>
</g>
<defs>
<clipPath id="clip0_531_8779">
<rect width="24" height="24" fill="white"/>
</clipPath>
</defs>
</svg>
