<svg width="56" height="56" viewBox="0 0 56 56" fill="none" xmlns="http://www.w3.org/2000/svg">
<g id="ReadCvLogo" clip-path="url(#clip0_2616_558)">
<path id="Vector" opacity="0.2" d="M45.8164 10.3156L17.3237 5.28129C16.372 5.11313 15.4641 5.74836 15.2959 6.70011L8.76508 43.6629C8.59691 44.6146 9.23214 45.5225 10.1839 45.6907L38.6766 50.725C39.6284 50.8931 40.5363 50.2579 40.7044 49.3062L47.2353 12.3434C47.4034 11.3916 46.7682 10.4837 45.8164 10.3156Z" fill="#0F627D"/>
<path id="Vector_2" d="M45.8164 10.3156L17.3237 5.28129C16.372 5.11313 15.4641 5.74836 15.2959 6.70011L8.76508 43.6629C8.59691 44.6146 9.23214 45.5225 10.1839 45.6907L38.6766 50.725C39.6284 50.8931 40.5363 50.2579 40.7044 49.3062L47.2353 12.3434C47.4034 11.3916 46.7682 10.4837 45.8164 10.3156Z" stroke="#0F627D" stroke-width="2" stroke-linecap="round" stroke-linejoin="round"/>
<path id="Vector_3" d="M21.2669 13.0834L39.4188 16.2903" stroke="#0F627D" stroke-width="2" stroke-linecap="round" stroke-linejoin="round"/>
<path id="Vector_4" d="M38.2069 23.1831L20.0528 19.9785" stroke="#0F627D" stroke-width="2" stroke-linecap="round" stroke-linejoin="round"/>
<path id="Vector_5" d="M27.9169 28.4747L18.8409 26.8712" stroke="#0F627D" stroke-width="2" stroke-linecap="round" stroke-linejoin="round"/>
</g>
<defs>
<clipPath id="clip0_2616_558">
<rect width="56" height="56" fill="white"/>
</clipPath>
</defs>
</svg>
