<svg width="24" height="24" viewBox="0 0 24 24" fill="none" xmlns="http://www.w3.org/2000/svg">
<g id="Recycle" clip-path="url(#clip0_531_8767)">
<path id="Vector" opacity="0.2" d="M2.45389 17.25C2.32239 17.4778 2.25308 17.7361 2.25293 17.9992C2.25278 18.2622 2.32179 18.5206 2.45304 18.7485C2.58429 18.9765 2.77316 19.1659 3.00071 19.2978C3.22827 19.4297 3.4865 19.4994 3.74952 19.5H20.2495C20.5127 19.4997 20.7712 19.4302 20.999 19.2985C21.2268 19.1667 21.4159 18.9773 21.5474 18.7493C21.6789 18.5214 21.748 18.2628 21.748 17.9996C21.7479 17.7364 21.6786 17.4779 21.547 17.25L13.297 3C13.1653 2.77225 12.976 2.58316 12.7481 2.4517C12.5202 2.32024 12.2617 2.25104 11.9986 2.25104C11.7355 2.25104 11.477 2.32024 11.2491 2.4517C11.0212 2.58316 10.8319 2.77225 10.7001 3L2.45389 17.25Z" fill="#261C02"/>
<path id="Vector_2" d="M14.25 21.75L12 19.5L14.25 17.25" stroke="#261C02" stroke-linecap="round" stroke-linejoin="round"/>
<path id="Vector_3" d="M18.2468 7.04907L17.4227 10.1231L14.3496 9.29907" stroke="#261C02" stroke-linecap="round" stroke-linejoin="round"/>
<path id="Vector_4" d="M7.40207 13.1972L6.57707 10.125L3.50488 10.9472" stroke="#261C02" stroke-linecap="round" stroke-linejoin="round"/>
<path id="Vector_5" d="M6.57791 10.125L2.45292 17.25C2.32133 17.4779 2.25202 17.7364 2.25195 17.9996C2.25189 18.2628 2.32106 18.5214 2.45253 18.7493C2.584 18.9773 2.77314 19.1667 3.00095 19.2985C3.22877 19.4302 3.48724 19.4997 3.75042 19.5H8.25041" stroke="#261C02" stroke-linecap="round" stroke-linejoin="round"/>
<path id="Vector_6" d="M12 19.5H20.25C20.5132 19.4997 20.7716 19.4302 20.9995 19.2985C21.2273 19.1667 21.4164 18.9773 21.5479 18.7493C21.6794 18.5214 21.7485 18.2628 21.7485 17.9996C21.7484 17.7364 21.6791 17.4779 21.5475 17.25L19.3781 13.5" stroke="#261C02" stroke-linecap="round" stroke-linejoin="round"/>
<path id="Vector_7" d="M17.4225 10.125L13.2975 3C13.1658 2.77225 12.9764 2.58316 12.7485 2.4517C12.5206 2.32024 12.2622 2.25104 11.9991 2.25104C11.736 2.25104 11.4775 2.32024 11.2496 2.4517C11.0217 2.58316 10.8324 2.77225 10.7006 3L8.53125 6.75" stroke="#261C02" stroke-linecap="round" stroke-linejoin="round"/>
</g>
<defs>
<clipPath id="clip0_531_8767">
<rect width="24" height="24" fill="white"/>
</clipPath>
</defs>
</svg>
