<svg width="12" height="13" viewBox="0 0 12 13" fill="none" xmlns="http://www.w3.org/2000/svg">
<path id="Primary" d="M11.6449 2.95755C12.1134 2.48902 12.1134 1.72813 11.6449 1.2596C11.1763 0.791071 10.4154 0.791071 9.9469 1.2596L6 5.21025L2.04935 1.26335C1.58082 0.794819 0.819928 0.794819 0.351398 1.26335C-0.117133 1.73188 -0.117133 2.49277 0.351398 2.9613L4.30205 6.9082L0.355146 10.8588C-0.113384 11.3274 -0.113384 12.0883 0.355146 12.5568C0.823676 13.0253 1.58457 13.0253 2.0531 12.5568L6 8.60616L9.95065 12.5531C10.4192 13.0216 11.1801 13.0216 11.6486 12.5531C12.1171 12.0845 12.1171 11.3236 11.6486 10.8551L7.69795 6.9082L11.6449 2.95755Z" fill="#003636"/>
</svg>
