<svg width="24" height="24" viewBox="0 0 24 24" fill="none" xmlns="http://www.w3.org/2000/svg">
<g id="Sailboat" clip-path="url(#clip0_531_8736)">
<path id="Vector" opacity="0.2" d="M1.5 16.5H22.5L19.725 19.9688C19.6548 20.0565 19.5658 20.1273 19.4645 20.1759C19.3632 20.2246 19.2523 20.2499 19.14 20.25H4.86C4.74765 20.2499 4.63675 20.2246 4.5355 20.1759C4.43424 20.1273 4.34522 20.0565 4.275 19.9688L1.5 16.5Z" fill="#261C02"/>
<path id="Vector_2" opacity="0.2" d="M12.75 0.75L3 12.75H12.75V0.75Z" fill="#261C02"/>
<path id="Vector_3" d="M1.5 16.5H22.5L19.725 19.9688C19.6548 20.0565 19.5658 20.1273 19.4645 20.1759C19.3632 20.2246 19.2523 20.2499 19.14 20.25H4.86C4.74765 20.2499 4.63675 20.2246 4.5355 20.1759C4.43424 20.1273 4.34522 20.0565 4.275 19.9688L1.5 16.5Z" stroke="#261C02" stroke-linecap="round" stroke-linejoin="round"/>
<path id="Vector_4" d="M12.75 12.75H20.25L12.75 4.5" stroke="#261C02" stroke-linecap="round" stroke-linejoin="round"/>
<path id="Vector_5" d="M12.75 16.5V0.75L3 12.75H12.75" stroke="#261C02" stroke-linecap="round" stroke-linejoin="round"/>
</g>
<defs>
<clipPath id="clip0_531_8736">
<rect width="24" height="24" fill="white"/>
</clipPath>
</defs>
</svg>
