<svg width="57" height="56" viewBox="0 0 57 56" fill="none" xmlns="http://www.w3.org/2000/svg">
<g id="SealCheck" clip-path="url(#clip0_531_8429)">
<path id="Vector" opacity="0.2" d="M12.7129 44.0869C10.7004 42.0744 12.0348 37.8459 11.0111 35.3697C9.94793 32.8125 6.0498 30.7344 6.0498 28C6.0498 25.2656 9.94793 23.1875 11.0111 20.6303C12.0348 18.1562 10.7004 13.9256 12.7129 11.9131C14.7254 9.90062 18.9561 11.235 21.4301 10.2113C23.9982 9.14812 26.0654 5.25 28.7998 5.25C31.5342 5.25 33.6123 9.14812 36.1695 10.2113C38.6457 11.235 42.8742 9.90062 44.8867 11.9131C46.8992 13.9256 45.5648 18.1541 46.5886 20.6303C47.6517 23.1984 51.5498 25.2656 51.5498 28C51.5498 30.7344 47.6517 32.8125 46.5886 35.3697C45.5648 37.8459 46.8992 42.0744 44.8867 44.0869C42.8742 46.0994 38.6457 44.765 36.1695 45.7887C33.6123 46.8519 31.5342 50.75 28.7998 50.75C26.0654 50.75 23.9873 46.8519 21.4301 45.7887C18.9561 44.765 14.7254 46.0994 12.7129 44.0869Z" fill="#4B6E9A"/>
<path id="Vector_2" d="M12.7129 44.0869C10.7004 42.0744 12.0348 37.8459 11.0111 35.3697C9.94793 32.8125 6.0498 30.7344 6.0498 28C6.0498 25.2656 9.94793 23.1875 11.0111 20.6303C12.0348 18.1562 10.7004 13.9256 12.7129 11.9131C14.7254 9.90062 18.9561 11.235 21.4301 10.2113C23.9982 9.14813 26.0654 5.25 28.7998 5.25C31.5342 5.25 33.6123 9.14813 36.1695 10.2113C38.6457 11.235 42.8742 9.90062 44.8867 11.9131C46.8992 13.9256 45.5648 18.1541 46.5886 20.6303C47.6517 23.1984 51.5498 25.2656 51.5498 28C51.5498 30.7344 47.6517 32.8125 46.5886 35.3697C45.5648 37.8459 46.8992 42.0744 44.8867 44.0869C42.8742 46.0994 38.6457 44.765 36.1695 45.7888C33.6123 46.8519 31.5342 50.75 28.7998 50.75C26.0654 50.75 23.9873 46.8519 21.4301 45.7888C18.9561 44.765 14.7254 46.0994 12.7129 44.0869Z" stroke="#4B6E9A" stroke-width="2" stroke-linecap="round" stroke-linejoin="round"/>
<path id="Vector_3" d="M20.0498 29.75L25.2998 35L37.5498 22.75" stroke="#4B6E9A" stroke-width="2" stroke-linecap="round" stroke-linejoin="round"/>
</g>
<defs>
<clipPath id="clip0_531_8429">
<rect width="56" height="56" fill="white" transform="translate(0.799805)"/>
</clipPath>
</defs>
</svg>
