<svg width="21" height="21" viewBox="0 0 21 21" fill="none" xmlns="http://www.w3.org/2000/svg">
<path id="Path 413" d="M21 19.0672L16.6415 14.7278C17.8552 13.1415 18.5055 11.199 18.4906 9.20494C18.4981 7.99406 18.2641 6.79373 17.8022 5.67357C17.3403 4.5534 16.6595 3.53569 15.7995 2.67945C14.9395 1.82321 13.9174 1.14548 12.7923 0.685555C11.6672 0.225631 10.4616 -0.00733183 9.24538 0.000175848C8.02918 -0.00733183 6.82358 0.225631 5.69849 0.685555C4.57341 1.14548 3.55123 1.82321 2.69122 2.67945C1.83122 3.53569 1.15051 4.5534 0.688567 5.67357C0.226622 6.79373 -0.00736404 7.99406 0.000176621 9.20494C-0.00736404 10.4158 0.226622 11.6162 0.688567 12.7363C1.15051 13.8565 1.83122 14.8742 2.69122 15.7304C3.55123 16.5867 4.57341 17.2644 5.69849 17.7243C6.82358 18.1843 8.02918 18.4172 9.24538 18.4097C11.2482 18.4246 13.1992 17.7771 14.7925 16.5688L19.151 20.9081L21 19.0672ZM2.64166 9.20494C2.63301 8.33913 2.79792 7.48029 3.12672 6.67871C3.45553 5.87712 3.94163 5.14889 4.55657 4.53664C5.17151 3.92439 5.90294 3.44041 6.70805 3.11305C7.51316 2.78568 8.37576 2.6215 9.24538 2.63011C10.115 2.6215 10.9776 2.78568 11.7827 3.11305C12.5878 3.44041 13.3193 3.92439 13.9342 4.53664C14.5491 5.14889 15.0352 5.87712 15.364 6.67871C15.6928 7.48029 15.8578 8.33913 15.8491 9.20494C15.8578 10.0708 15.6928 10.9296 15.364 11.7312C15.0352 12.5328 14.5491 13.261 13.9342 13.8732C13.3193 14.4855 12.5878 14.9695 11.7827 15.2968C10.9776 15.6242 10.115 15.7884 9.24538 15.7798C8.37576 15.7884 7.51316 15.6242 6.70805 15.2968C5.90294 14.9695 5.17151 14.4855 4.55657 13.8732C3.94163 13.261 3.45553 12.5328 3.12672 11.7312C2.79792 10.9296 2.63301 10.0708 2.64166 9.20494Z" fill="#003636"/>
</svg>
