<svg width="56" height="56" viewBox="0 0 56 56" fill="none" xmlns="http://www.w3.org/2000/svg">
<g id="Shower" clip-path="url(#clip0_531_8468)">
<path id="Vector" opacity="0.2" d="M40.2498 15.75L35.4176 44.0366C35.3644 44.3533 35.2251 44.6494 35.0149 44.8923C34.8047 45.1352 34.5317 45.3155 34.2258 45.4135C33.92 45.5116 33.593 45.5236 33.2808 45.4481C32.9685 45.3727 32.6831 45.2128 32.4557 44.9859L11.0182 23.5484C10.7913 23.321 10.6314 23.0356 10.556 22.7234C10.4806 22.4111 10.4926 22.0842 10.5906 21.7783C10.6886 21.4724 10.869 21.1994 11.1119 20.9892C11.3547 20.779 11.6508 20.6397 11.9676 20.5866L40.2498 15.75Z" fill="#0F627D"/>
<path id="Vector_2" d="M11.3748 54.25C12.8245 54.25 13.9998 53.0747 13.9998 51.625C13.9998 50.1753 12.8245 49 11.3748 49C9.92501 49 8.74976 50.1753 8.74976 51.625C8.74976 53.0747 9.92501 54.25 11.3748 54.25Z" fill="#0F627D"/>
<path id="Vector_3" d="M18.3748 47.25C19.8245 47.25 20.9998 46.0747 20.9998 44.625C20.9998 43.1753 19.8245 42 18.3748 42C16.925 42 15.7498 43.1753 15.7498 44.625C15.7498 46.0747 16.925 47.25 18.3748 47.25Z" fill="#0F627D"/>
<path id="Vector_4" d="M4.37476 47.25C5.8245 47.25 6.99976 46.0747 6.99976 44.625C6.99976 43.1753 5.8245 42 4.37476 42C2.92501 42 1.74976 43.1753 1.74976 44.625C1.74976 46.0747 2.92501 47.25 4.37476 47.25Z" fill="#0F627D"/>
<path id="Vector_5" d="M11.3748 40.25C12.8245 40.25 13.9998 39.0747 13.9998 37.625C13.9998 36.1753 12.8245 35 11.3748 35C9.92501 35 8.74976 36.1753 8.74976 37.625C8.74976 39.0747 9.92501 40.25 11.3748 40.25Z" fill="#0F627D"/>
<path id="Vector_6" d="M54.2498 8.75H47.2498L40.2498 15.75M40.2498 15.75L35.4176 44.0366C35.3644 44.3533 35.2251 44.6494 35.0149 44.8923C34.8047 45.1352 34.5317 45.3155 34.2258 45.4135C33.92 45.5116 33.593 45.5235 33.2808 45.4481C32.9685 45.3727 32.6831 45.2128 32.4557 44.9859L11.0182 23.5484C10.7913 23.321 10.6314 23.0356 10.556 22.7234C10.4806 22.4111 10.4926 22.0842 10.5906 21.7783C10.6886 21.4724 10.869 21.1994 11.1119 20.9892C11.3547 20.779 11.6508 20.6397 11.9676 20.5866L40.2498 15.75Z" stroke="#0F627D" stroke-width="2" stroke-linecap="round" stroke-linejoin="round"/>
</g>
<defs>
<clipPath id="clip0_531_8468">
<rect width="56" height="56" fill="white" transform="translate(-0.000244141)"/>
</clipPath>
</defs>
</svg>
