<svg width="56" height="56" viewBox="0 0 56 56" fill="none" xmlns="http://www.w3.org/2000/svg">
<g id="SquaresFour" clip-path="url(#clip0_599_874)">
<path id="Vector" opacity="0.2" d="M22.75 10.5H12.25C11.2835 10.5 10.5 11.2835 10.5 12.25V22.75C10.5 23.7165 11.2835 24.5 12.25 24.5H22.75C23.7165 24.5 24.5 23.7165 24.5 22.75V12.25C24.5 11.2835 23.7165 10.5 22.75 10.5Z" fill="#B3B3B3"/>
<path id="Vector_2" opacity="0.2" d="M43.75 10.5H33.25C32.2835 10.5 31.5 11.2835 31.5 12.25V22.75C31.5 23.7165 32.2835 24.5 33.25 24.5H43.75C44.7165 24.5 45.5 23.7165 45.5 22.75V12.25C45.5 11.2835 44.7165 10.5 43.75 10.5Z" fill="#B3B3B3"/>
<path id="Vector_3" opacity="0.2" d="M22.75 31.5H12.25C11.2835 31.5 10.5 32.2835 10.5 33.25V43.75C10.5 44.7165 11.2835 45.5 12.25 45.5H22.75C23.7165 45.5 24.5 44.7165 24.5 43.75V33.25C24.5 32.2835 23.7165 31.5 22.75 31.5Z" fill="#B3B3B3"/>
<path id="Vector_4" opacity="0.2" d="M43.75 31.5H33.25C32.2835 31.5 31.5 32.2835 31.5 33.25V43.75C31.5 44.7165 32.2835 45.5 33.25 45.5H43.75C44.7165 45.5 45.5 44.7165 45.5 43.75V33.25C45.5 32.2835 44.7165 31.5 43.75 31.5Z" fill="#B3B3B3"/>
<path id="Vector_5" d="M43.75 31.5H33.25C32.2835 31.5 31.5 32.2835 31.5 33.25V43.75C31.5 44.7165 32.2835 45.5 33.25 45.5H43.75C44.7165 45.5 45.5 44.7165 45.5 43.75V33.25C45.5 32.2835 44.7165 31.5 43.75 31.5Z" stroke="#B3B3B3" stroke-width="2" stroke-linecap="round" stroke-linejoin="round"/>
<path id="Vector_6" d="M22.75 10.5H12.25C11.2835 10.5 10.5 11.2835 10.5 12.25V22.75C10.5 23.7165 11.2835 24.5 12.25 24.5H22.75C23.7165 24.5 24.5 23.7165 24.5 22.75V12.25C24.5 11.2835 23.7165 10.5 22.75 10.5Z" stroke="#B3B3B3" stroke-width="2" stroke-linecap="round" stroke-linejoin="round"/>
<path id="Vector_7" d="M43.75 10.5H33.25C32.2835 10.5 31.5 11.2835 31.5 12.25V22.75C31.5 23.7165 32.2835 24.5 33.25 24.5H43.75C44.7165 24.5 45.5 23.7165 45.5 22.75V12.25C45.5 11.2835 44.7165 10.5 43.75 10.5Z" stroke="#B3B3B3" stroke-width="2" stroke-linecap="round" stroke-linejoin="round"/>
<path id="Vector_8" d="M22.75 31.5H12.25C11.2835 31.5 10.5 32.2835 10.5 33.25V43.75C10.5 44.7165 11.2835 45.5 12.25 45.5H22.75C23.7165 45.5 24.5 44.7165 24.5 43.75V33.25C24.5 32.2835 23.7165 31.5 22.75 31.5Z" stroke="#B3B3B3" stroke-width="2" stroke-linecap="round" stroke-linejoin="round"/>
</g>
<defs>
<clipPath id="clip0_599_874">
<rect width="56" height="56" fill="white"/>
</clipPath>
</defs>
</svg>
