<svg width="57" height="56" viewBox="0 0 57 56" fill="none" xmlns="http://www.w3.org/2000/svg">
<g id="Tree" clip-path="url(#clip0_531_8457)">
<path id="Vector" opacity="0.2" d="M28.2002 38.9244C30.7786 40.9937 34.0086 42.0791 37.3134 41.9869C44.7356 41.7988 50.9699 35.3763 50.9502 27.9519C50.9423 25.1647 50.1026 22.4433 48.5387 20.1362C46.9748 17.8292 44.7579 16.0414 42.1718 15.0019C41.1252 12.1376 39.2237 9.66421 36.7246 7.91667C34.2255 6.16912 31.2497 5.23188 28.2002 5.23188C25.1508 5.23188 22.175 6.16912 19.6759 7.91667C17.1768 9.66421 15.2752 12.1376 14.2287 15.0019C11.6412 16.042 9.42333 17.8311 7.85932 20.1399C6.2953 22.4487 5.45643 25.172 5.45024 27.9606C5.43055 35.385 11.6671 41.8075 19.0893 41.9956C22.3944 42.085 25.6237 40.9965 28.2002 38.9244Z" fill="#4B6E9A"/>
<path id="Vector_2" d="M28.2002 50.75V19.25" stroke="#4B6E9A" stroke-width="2" stroke-linecap="round" stroke-linejoin="round"/>
<path id="Vector_3" d="M28.2002 33.25L17.7002 28" stroke="#4B6E9A" stroke-width="2" stroke-linecap="round" stroke-linejoin="round"/>
<path id="Vector_4" d="M28.2002 28L38.7002 22.75" stroke="#4B6E9A" stroke-width="2" stroke-linecap="round" stroke-linejoin="round"/>
<path id="Vector_5" d="M28.2002 38.9244C30.7786 40.9937 34.0086 42.0791 37.3134 41.9869C44.7356 41.7988 50.9699 35.3763 50.9502 27.9519C50.9423 25.1647 50.1026 22.4433 48.5387 20.1362C46.9748 17.8292 44.7579 16.0414 42.1718 15.0019C41.1252 12.1376 39.2237 9.66421 36.7246 7.91667C34.2255 6.16912 31.2497 5.23188 28.2002 5.23188C25.1508 5.23188 22.175 6.16912 19.6759 7.91667C17.1768 9.66421 15.2752 12.1376 14.2287 15.0019C11.6412 16.042 9.42333 17.8311 7.85932 20.1399C6.2953 22.4487 5.45643 25.172 5.45024 27.9606C5.43055 35.385 11.6671 41.8075 19.0893 41.9956C22.3944 42.085 25.6237 40.9965 28.2002 38.9244Z" stroke="#4B6E9A" stroke-width="2" stroke-linecap="round" stroke-linejoin="round"/>
</g>
<defs>
<clipPath id="clip0_531_8457">
<rect width="56" height="56" fill="white" transform="translate(0.200195)"/>
</clipPath>
</defs>
</svg>
